{
.appVersion = "3335";
.formatVersion = 3;
classes = (
{
automatic = 1;
code = "A Aacute Acircumflex Adieresis Agrave Aring Atilde AE B C Ccedilla D Eth E Eacute Ecircumflex Edieresis Egrave F G H I Iacute Icircumflex Idieresis Igrave J K L M N Ntilde O Oacute Ocircumflex Odieresis Ograve Oslash Otilde OE P Thorn Q R S T U Uacute Ucircumflex Udieresis Ugrave V W X Y Yacute Z";
name = Uppercase;
}
);
customParameters = (
{
name = trademark;
value = "Amethysta is a trademark of Cyreal (www.cyreal.org).";
}
);
date = "2024-12-28 19:27:06 +0000";
familyName = Amethysta;
featurePrefixes = (
{
code = "###
# OpenType Layout feature definitions
# Format: Adobe FDK for OpenType (AFDKO) version 2.5
# Generated on: 2024-12-29 0:26
# Generated by: FontLab 8.0.0
# Font path: /Users/alexeiva/Downloads/Amethysta-Regular.vfb
# Font PostScript name: Amethysta-Regular
# Font copyright: Copyright (c) 2011, Cyreal (www.cyreal.org)with Reserved Font Name \"Amethysta\".This Font Software is licensed under the SIL Open Font License,Version 1.1. This license is available with a FAQ at:http://scripts.sil.org/OFL
#
# Totals:
# Languagesystems: 0
# GSUB lookups: 0
# GPOS lookups: 0

#
# Languagesystem definitions
#

#> languagesystem
languagesystem DFLT dflt;
languagesystem latn dflt;
#< languagesystem


#
# Lookup definitions
#


";
name = xxxx;
},
{
automatic = 1;
code = "languagesystem DFLT dflt;
";
name = Languagesystems;
}
);
features = (
{
automatic = 1;
code = "feature sups;
feature frac;
feature ordn;
feature case;
";
tag = aalt;
},
{
automatic = 1;
code = "lookup ccmp_Other_1 {
	lookupflag 0;
	@Markscomb = [dieresis grave acute circumflex caron tilde];
	@MarkscombCase = [dieresis.case grave.case acute.case circumflex.case caron.case tilde.case];
	sub @Markscomb @Markscomb' by @MarkscombCase;
	sub @Uppercase @Markscomb' by @MarkscombCase;
} ccmp_Other_1;

lookup ccmp_Other_2 {
	lookupflag 0;
	sub @Markscomb' @MarkscombCase by @MarkscombCase;

glyphs = (
{
glyphname = A;
lastChange = "2024-12-28 19:31:45 +0000";
layers = (
{
anchors = (
{
name = top;
pos = (360,732);
}
);
hints = (
{
horizontal = 1;
place = (690,-20);
target = down;
type = TopGhost;
},
{
horizontal = 1;
place = (299,57);
type = Stem;
},
{
horizontal = 1;
place = (10,-20);
target = down;
type = TopGhost;
},
{
place = (604,90);
type = Stem;
},
{
place = (200,90);
type = Stem;
}
);
layerId = "41C87B6E-BB58-4237-A2FA-B195285FD109";
shapes = (
{
closed = 1;
nodes = (
(184,237,l),
(509,237,l),
(509,289,l),
(184,289,l)
);
},
{
closed = 1;
nodes = (
(383,720,l),
(338,720,l),
(83,55,l),
(-2,20,l),
(-2,0,l),
(231,0,l),
(231,20,l),
(149,46,l),
(345,571,l),
(349,571,l),
(553,46,l),
(474,20,l),
(474,0,l),
(724,0,l),
(724,20,l),
(644,55,l)
);
}
);
width = 709;
}
);
unicode = 65;
},
{
glyphname = Aacute;
lastChange = "2024-12-28 19:31:45 +0000";
layers = (
{
associatedMasterId = "41C87B6E-BB58-4237-A2FA-B195285FD109";
layerId = "58169014-C2AF-4848-951C-D1AF2D5F80B0";
name = img;
width = 709;
},
{
layerId = "41C87B6E-BB58-4237-A2FA-B195285FD109";
shapes = (
{
closed = 1;
nodes = (
(184,237,l),
(509,237,l),
(509,289,l),
(184,289,l)
);
},
{
closed = 1;
nodes = (
(383,720,l),
(338,720,l),
(83,55,l),
(-2,20,l),
(-2,0,l),
(231,0,l),
(231,20,l),
(149,46,l),
(345,571,l),
(349,571,l),
(553,46,l),
(474,20,l),
(474,0,l),
(724,0,l),
(724,20,l),
(644,55,l)
);
},
{
closed = 1;
nodes = (
(289,808,l),
(306,779,l),
(502,852,l),
(505,872,l),
(448,922,l)
);
}
);
width = 709;
}
);
unicode = 193;
},
{
glyphname = Acircumflex;
lastChange = "2024-12-28 19:31:45 +0000";
layers = (
{
associatedMasterId = "41C87B6E-BB58-4237-A2FA-B195285FD109";
layerId = "58169014-C2AF-4848-951C-D1AF2D5F80B0";
name = img;
width = 709;
},
{
layerId = "41C87B6E-BB58-4237-A2FA-B195285FD109";
shapes = (
{
closed = 1;
nodes = (
(184,237,l),
(509,237,l),
(509,289,l),
(184,289,l)
);
},
{
closed = 1;
nodes = (
(383,720,l),
(338,720,l),
(83,55,l),
(-2,20,l),
(-2,0,l),
(231,0,l),
(231,20,l),
(149,46,l),
(345,571,l),
(349,571,l),
(553,46,l),
(474,20,l),
(474,0,l),
(724,0,l),
(724,20,l),
(644,55,l)
);
},
{
closed = 1;
nodes = (
(203,807,l),
(203,793,l),
(236,773,l),
(363,873,l),
(367,873,l),
(494,773,l),
(527,793,l),
(527,807,l),
(393,934,l),
(337,934,l)
);
}
);
width = 709;
}
);
unicode = 194;
},
{
glyphname = Adieresis;
lastChange = "2024-12-28 19:31:45 +0000";
layers = (
{
associatedMasterId = "41C87B6E-BB58-4237-A2FA-B195285FD109";
layerId = "58169014-C2AF-4848-951C-D1AF2D5F80B0";
name = img;
width = 709;
},
{
layerId = "41C87B6E-BB58-4237-A2FA-B195285FD109";
shapes = (
{
closed = 1;
nodes = (
(184,237,l),
(509,237,l),
(509,289,l),
(184,289,l)
);
},
{
closed = 1;
nodes = (
(383,720,l),
(338,720,l),
(83,55,l),
(-2,20,l),
(-2,0,l),
(231,0,l),
(231,20,l),
(149,46,l),
(345,571,l),
(349,571,l),
(553,46,l),
(474,20,l),
(474,0,l),
(724,0,l),
(724,20,l),
(644,55,l)
);
},
{
closed = 1;
nodes = (
(222,827,o),
(246,802,o),
(279,802,cs),
(310,802,o),
(336,827,o),
(336,860,cs),
(336,892,o),
(310,917,o),
(279,917,cs),
(246,917,o),
(222,892,o),
(222,860,cs)
);
},
{
closed = 1;
nodes = (
(404,827,o),
(430,802,o),
(462,802,cs),
(495,802,o),
(519,827,o),
(519,860,cs),
(519,892,o),
(495,917,o),
(462,917,cs),
(430,917,o),
(404,892,o),
(404,860,cs)
);
}
);
width = 709;
}
);
unicode = 196;
},
{
glyphname = Agrave;
lastChange = "2024-12-28 19:31:45 +0000";
layers = (
{
associatedMasterId = "41C87B6E-BB58-4237-A2FA-B195285FD109";
layerId = "58169014-C2AF-4848-951C-D1AF2D5F80B0";
name = img;
width = 709;
},
{
layerId = "41C87B6E-BB58-4237-A2FA-B195285FD109";
shapes = (
{
closed = 1;
nodes = (
(184,237,l),
(509,237,l),
(509,289,l),
(184,289,l)
);
},
{
closed = 1;
nodes = (
(383,720,l),
(338,720,l),
(83,55,l),
(-2,20,l),
(-2,0,l),
(231,0,l),
(231,20,l),
(149,46,l),
(345,571,l),
(349,571,l),
(553,46,l),
(474,20,l),
(474,0,l),
(724,0,l),
(724,20,l),
(644,55,l)
);
},
{
closed = 1;
nodes = (
(263,922,l),
(206,872,l),
(209,852,l),
(405,779,l),
(422,808,l)
);
}
);
width = 709;
}
);
unicode = 192;
},
{
glyphname = Aring;
lastChange = "2024-12-28 19:31:45 +0000";
layers = (
{
associatedMasterId = "41C87B6E-BB58-4237-A2FA-B195285FD109";
layerId = "58169014-C2AF-4848-951C-D1AF2D5F80B0";
name = img;
width = 709;
},
{
layerId = "41C87B6E-BB58-4237-A2FA-B195285FD109";
shapes = (
{
closed = 1;
nodes = (
(184,237,l),
(509,237,l),
(509,289,l),
(184,289,l)
);
},
{
closed = 1;
nodes = (
(383,720,l),
(338,720,l),
(83,55,l),
(-2,20,l),
(-2,0,l),
(231,0,l),
(231,20,l),
(149,46,l),
(345,571,l),
(349,571,l),
(553,46,l),
(474,20,l),
(474,0,l),
(724,0,l),
(724,20,l),
(644,55,l)
);
},
{
closed = 1;
nodes = (
(259,827,o),
(306,780,o),
(362,780,cs),
(418,780,o),
(465,827,o),
(465,884,cs),
(465,940,o),
(418,987,o),
(362,987,cs),
(306,987,o),
(259,940,o),
(259,884,cs)
);
},
{
closed = 1;
nodes = (
(331,829,o),
(307,853,o),
(307,883,cs),
(307,913,o),
(331,937,o),
(361,937,cs),
(392,937,o),
(416,913,o),
(416,883,cs),
(416,853,o),
(392,829,o),
(361,829,cs)
);
}
);
width = 709;
}
);
unicode = 197;
},
{
glyphname = Atilde;
lastChange = "2024-12-28 19:31:45 +0000";
layers = (
{
associatedMasterId = "41C87B6E-BB58-4237-A2FA-B195285FD109";
layerId = "58169014-C2AF-4848-951C-D1AF2D5F80B0";
name = img;
width = 709;
},
{
layerId = "41C87B6E-BB58-4237-A2FA-B195285FD109";
shapes = (
{
closed = 1;
nodes = (
(184,237,l),
(509,237,l),
(509,289,l),
(184,289,l)
);
},
{
closed = 1;
nodes = (
(383,720,l),
(338,720,l),
(83,55,l),
(-2,20,l),
(-2,0,l),
(231,0,l),
(231,20,l),
(149,46,l),
(345,571,l),
(349,571,l),
(553,46,l),
(474,20,l),
(474,0,l),
(724,0,l),
(724,20,l),
(644,55,l)
);
},
{
closed = 1;
nodes = (
(405,848,o),
(370,901,o),
(317,896,c),
(264,890,o),
(208,811,o),
(208,811,c),
(226,788,l),
(260,814,o),
(278,826,o),
(306,828,c),
(347,833,o),
(395,780,o),
(447,786,cs),
(508,792,o),
(558,872,o),
(558,872,c),
(539,892,l),
(511,866,o),
(482,856,o),
(459,854,c)
);
}
);
width = 709;
}
);
unicode = 195;
},
{
glyphname = AE;
lastChange = "2024-12-28 19:31:45 +0000";
layers = (
{
associatedMasterId = "41C87B6E-BB58-4237-A2FA-B195285FD109";
layerId = "58169014-C2AF-4848-951C-D1AF2D5F80B0";
name = img;
width = 973;
},
{
hints = (
{
horizontal = 1;
place = (690,-20);
target = down;
type = TopGhost;
},
{
horizontal = 1;
place = (299,57);
type = Stem;
},
{
horizontal = 1;
place = (10,-20);
target = down;
type = TopGhost;
},
{
horizontal = 1;
place = (0,20);
type = Stem;
},
{
horizontal = 1;
place = (334,57);
type = Stem;
},
{
horizontal = 1;
place = (680,20);
type = Stem;
},
{
place = (514,90);
type = Stem;
},
{
place = (110,90);
type = Stem;
},
{
place = (498,90);
type = Stem;
},
{
place = (902,90);
type = Stem;
}
);
layerId = "41C87B6E-BB58-4237-A2FA-B195285FD109";
shapes = (
{
closed = 1;
nodes = (
(275,20,l),
(137,55,l),
(137,0,l),
(275,0,l)
);
},
{
closed = 1;
nodes = (
(508,720,l),
(463,720,l),
(100,55,l),
(15,20,l),
(15,0,l),
(142,0,l),
(493,641,l),
(508,702,l)
);
},
{
closed = 1;
nodes = (
(234,237,l),
(569,237,l),
(569,289,l),
(234,289,l)
);
},
{
closed = 1;
nodes = (
(588,720,l),
(493,720,l),
(493,0,l),
(588,0,l)
);
},
{
closed = 1;
nodes = (
(588,668,l),
(909,668,l),
(909,720,l),
(894,733,l),
(801,720,l),
(588,720,l)
);
},
{
closed = 1;
nodes = (
(826,672,l),
(889,524,l),
(889,524,o),
(909,524,o),
(909,524,c),
(909,524,o),
(909,711,o),
(909,711,c)
);
},
{
closed = 1;
nodes = (
(919,9,l),
(919,9,o),
(919,196,o),
(919,196,c),
(919,196,o),
(899,196,o),
(899,196,c),
(836,48,l)
);
},
{
closed = 1;
nodes = (
(588,339,l),
(800,331,l),
(810,396,l),
(791,403,l),
(588,393,l)
);
},
{
closed = 1;
nodes = (
(588,0,l),
(811,0,l),
(904,-13,l),
(919,0,l),
(919,52,l),
(588,52,l)
);
}
);
width = 973;
}
);
unicode = 198;
},
{
glyphname = B;
lastChange = "2024-12-28 19:31:45 +0000";
layers = (
{
layerId = "41C87B6E-BB58-4237-A2FA-B195285FD109";
shapes = (
{
closed = 1;
nodes = (
(583,654,o),
(514,720,o),
(324,720,cs),
(55,720,l),
(55,700,l),
(145,665,l),
(145,55,l),
(55,20,l),
(55,0,l),
(359,0,ls),
(532,0,o),
(625,76,o),
(625,200,cs),
(625,291,o),
(564,355,o),
(468,384,c),
(468,389,l),
(533,418,o),
(583,469,o),
(583,551,cs)
);
},
{
closed = 1;
nodes = (
(240,356,l),
(372,356,ls),
(471,356,o),
(522,276,o),
(522,202,cs),
(522,129,o),
(473,52,o),
(372,52,cs),
(240,52,l)
);
},
{
closed = 1;
nodes = (
(240,408,l),
(240,668,l),
(338,668,ls),
(446,668,o),
(482,618,o),
(482,543,cs),
(482,471,o),
(441,408,o),
(349,408,c)
);
}
);
width = 660;
}
);
unicode = 66;
},
{
glyphname = C;
lastChange = "2024-12-28 19:31:45 +0000";
layers = (
{
hints = (
{
horizontal = 1;
place = (0,20);
type = Stem;
},
{
horizontal = 1;
place = (335,57);
type = Stem;
},
{
horizontal = 1;
place = (680,20);
type = Stem;
},
{
place = (143,90);
type = Stem;
},
{
place = (547,90);
type = Stem;
}
);
layerId = "41C87B6E-BB58-4237-A2FA-B195285FD109";
shapes = (
{
closed = 1;
nodes = (
(523,666,l),
(585,523,l),
(585,523,o),
(605,523,o),
(605,523,c),
(605,523,o),
(606,709,o),
(606,709,c)
);
},
{
closed = 1;
nodes = (
(601,81,l),
(548,54,o),
(495,41,o),
(444,41,cs),
(295,41,o),
(170,155,o),
(170,358,cs),
(170,598,o),
(291,680,o),
(416,680,cs),
(483,680,o),
(511,669,o),
(532,659,c),
(606,709,l),
(549,727,o),
(492,736,o),
(438,736,cs),
(230,736,o),
(60,604,o),
(60,352,cs),
(60,101,o),
(240,-12,o),
(438,-12,cs),
(496,-12,o),
(556,-2,o),
(613,18,c)
);
},
{
closed = 1;
nodes = (
(533,39,l),
(613,18,l),
(612,216,l),
(612,216,o),
(592,216,o),
(592,216,c)
);
}
);
width = 658;
}
);
unicode = 67;
},
{
glyphname = Ccedilla;
lastChange = "2024-12-28 19:31:45 +0000";
layers = (
{
associatedMasterId = "41C87B6E-BB58-4237-A2FA-B195285FD109";
layerId = "58169014-C2AF-4848-951C-D1AF2D5F80B0";
name = img;
width = 658;
},
{
layerId = "41C87B6E-BB58-4237-A2FA-B195285FD109";
shapes = (
{
closed = 1;
nodes = (
(612,216,l),
(592,216,l),
(538,55,l),
(506,45,o),
(475,41,o),
(444,41,cs),
(295,41,o),
(170,155,o),
(170,358,cs),
(170,598,o),
(291,680,o),
(416,680,cs),
(475,680,o),
(504,671,o),
(524,662,c),
(585,523,l),
(605,523,l),
(606,709,l),
(549,727,o),
(492,736,o),
(438,736,cs),
(230,736,o),
(60,604,o),
(60,352,cs),
(60,101,o),
(240,-12,o),
(438,-12,cs),
(496,-12,o),
(556,-2,o),
(613,18,c)
);
},
{
closed = 1;
nodes = (
(407,0,l),
(392,-62,l),
(435,-69,o),
(463,-89,o),
(463,-133,cs),
(463,-186,o),
(420,-198,o),
(379,-198,cs),
(363,-198,o),
(348,-196,o),
(335,-194,c),
(335,-231,l),
(358,-237,o),
(383,-240,o),
(408,-240,cs),
(477,-240,o),
(542,-213,o),
(542,-132,cs),
(542,-83,o),
(503,-43,o),
(432,-40,c),
(442,0,l)
);
}
);
width = 658;
}
);
unicode = 199;
},
{
glyphname = D;
lastChange = "2024-12-28 19:31:45 +0000";
layers = (
{
guides = (
{
angle = 90;
pos = (733,0);
}
);
hints = (
{
horizontal = 1;
place = (0,52);
type = Stem;
},
{
horizontal = 1;
place = (668,52);
type = Stem;
},
{
place = (145,95);
type = Stem;
},
{
place = (604,103);
type = Stem;
}
);
layerId = "41C87B6E-BB58-4237-A2FA-B195285FD109";
shapes = (
{
closed = 1;
nodes = (
(55,720,l),
(55,700,l),
(145,665,l),
(145,55,l),
(55,20,l),
(55,0,l),
(357,0,ls),
(563,0,o),
(707,145,o),
(707,359,cs),
(707,598,o),
(560,720,o),
(358,720,cs)
);
},
{
closed = 1;
nodes = (
(351,668,ls),
(512,668,o),
(604,555,o),
(604,349,cs),
(604,152,o),
(484,52,o),
(354,52,cs),
(240,52,l),
(240,668,l)
);
}
);
width = 757;
}
);
unicode = 68;
},
{
glyphname = Eth;
lastChange = "2024-12-28 19:31:45 +0000";
layers = (
{
associatedMasterId = "41C87B6E-BB58-4237-A2FA-B195285FD109";
layerId = "58169014-C2AF-4848-951C-D1AF2D5F80B0";
name = img;
width = 780;
},
{
hints = (
{
horizontal = 1;
place = (0,20);
type = Stem;
},
{
horizontal = 1;
place = (334,57);
type = Stem;
},
{
horizontal = 1;
place = (680,20);
type = Stem;
},
{
place = (160,90);
type = Stem;
},
{
place = (564,90);
type = Stem;
},
{
place = (169,90);
type = Stem;
},
{
place = (573,90);
type = Stem;
}
);
layerId = "41C87B6E-BB58-4237-A2FA-B195285FD109";
shapes = (
{
closed = 1;
nodes = (
(55,391,l),
(55,331,l),
(435,331,l),
(435,391,l)
);
},
{
closed = 1;
nodes = (
(73,720,l,{
name = .hr01;
}),
(73,700,l),
(163,665,l),
(163,55,l),
(73,20,l),
(73,0,l),
(375,0,ls),
(581,0,o),
(725,145,o),
(725,359,cs),
(725,598,o),
(578,720,o),
(376,720,cs)
);
},
{
closed = 1;
nodes = (
(369,668,ls),
(530,668,o),
(622,555,o),
(622,349,cs),
(622,152,o),
(502,52,o),
(372,52,cs),
(258,52,l),
(258,668,l)
);
}
);
width = 780;
}
);
unicode = 208;
},
{
glyphname = E;
lastChange = "2024-12-28 19:31:45 +0000";
layers = (
{
anchors = (
{
name = top;
pos = (379,732);
}
);
guides = (
{
pos = (0,682);
}
);
hints = (
{
horizontal = 1;
place = (0,20);
type = Stem;
},
{
horizontal = 1;
place = (334,57);
type = Stem;
},
{
horizontal = 1;
place = (680,20);
type = Stem;
},
{
place = (150,90);
type = Stem;
},
{
place = (554,90);
type = Stem;
}
);
layerId = "41C87B6E-BB58-4237-A2FA-B195285FD109";
shapes = (
{
closed = 1;
nodes = (
(240,720,l),
(55,720,l),
(55,700,l),
(145,665,l),
(145,55,l),
(55,20,l),
(55,0,l),
(240,0,l)
);
},
{
closed = 1;
nodes = (
(228,668,l),
(560,668,l),
(560,720,l),
(545,733,l),
(452,720,l),
(228,720,l)
);
},
{
closed = 1;
nodes = (
(477,672,l),
(540,524,l),
(540,524,o),
(560,524,o),
(560,524,c),
(560,524,o),
(560,711,o),
(560,711,c)
);
},
{
closed = 1;
nodes = (
(228,0,l),
(570,0,l),
(570,52,l),
(228,52,l)
);
},
{
closed = 1;
nodes = (
(570,9,l),
(570,9,o),
(570,196,o),
(570,196,c),
(570,196,o),
(550,196,o),
(550,196,c),
(487,48,l)
);
},
{
closed = 1;
nodes = (
(240,339,l),
(452,331,l),
(462,396,l),
(443,403,l),
(240,393,l)
);
}
);
width = 625;
}
);
unicode = 69;
},
{
glyphname = Eacute;
lastChange = "2024-12-28 19:31:45 +0000";
layers = (
{
associatedMasterId = "41C87B6E-BB58-4237-A2FA-B195285FD109";
layerId = "58169014-C2AF-4848-951C-D1AF2D5F80B0";
name = img;
width = 625;
},
{
layerId = "41C87B6E-BB58-4237-A2FA-B195285FD109";
shapes = (
{
closed = 1;
nodes = (
(240,720,l),
(55,720,l),
(55,700,l),
(145,665,l),
(145,55,l),
(55,20,l),
(55,0,l),
(240,0,l)
);
},
{
closed = 1;
nodes = (
(228,668,l),
(560,668,l),
(560,720,l),
(545,733,l),
(452,720,l),
(228,720,l)
);
},
{
closed = 1;
nodes = (
(477,672,l),
(540,524,l),
(540,524,o),
(560,524,o),
(560,524,c),
(560,524,o),
(560,711,o),
(560,711,c)
);
},
{
closed = 1;
nodes = (
(228,0,l),
(570,0,l),
(570,52,l),
(228,52,l)
);
},
{
closed = 1;
nodes = (
(570,9,l),
(570,9,o),
(570,196,o),
(570,196,c),
(570,196,o),
(550,196,o),
(550,196,c),
(487,48,l)
);
},
{
closed = 1;
nodes = (
(240,339,l),
(452,331,l),
(462,396,l),
(443,403,l),
(240,393,l)
);
},
{
closed = 1;
nodes = (
(204,803,l),
(221,774,l),
(417,847,l),
(420,867,l),
(363,917,l)
);
}
);
width = 625;
}
);
unicode = 201;
},
{
glyphname = Ecircumflex;
lastChange = "2024-12-28 19:31:45 +0000";
layers = (
{
associatedMasterId = "41C87B6E-BB58-4237-A2FA-B195285FD109";
layerId = "58169014-C2AF-4848-951C-D1AF2D5F80B0";
name = img;
width = 625;
},
{
layerId = "41C87B6E-BB58-4237-A2FA-B195285FD109";
shapes = (
{
closed = 1;
nodes = (
(240,720,l),
(55,720,l),
(55,700,l),
(145,665,l),
(145,55,l),
(55,20,l),
(55,0,l),
(240,0,l)
);
},
{
closed = 1;
nodes = (
(228,668,l),
(560,668,l),
(560,720,l),
(545,733,l),
(452,720,l),
(228,720,l)
);
},
{
closed = 1;
nodes = (
(477,672,l),
(540,524,l),
(540,524,o),
(560,524,o),
(560,524,c),
(560,524,o),
(560,711,o),
(560,711,c)
);
},
{
closed = 1;
nodes = (
(228,0,l),
(570,0,l),
(570,52,l),
(228,52,l)
);
},
{
closed = 1;
nodes = (
(570,9,l),
(570,9,o),
(570,196,o),
(570,196,c),
(570,196,o),
(550,196,o),
(550,196,c),
(487,48,l)
);
},
{
closed = 1;
nodes = (
(240,339,l),
(452,331,l),
(462,396,l),
(443,403,l),
(240,393,l)
);
},
{
closed = 1;
nodes = (
(151,802,l),
(151,788,l),
(184,768,l),
(311,868,l),
(315,868,l),
(442,768,l),
(475,788,l),
(475,802,l),
(341,929,l),
(285,929,l)
);
}
);
width = 625;
}
);
unicode = 202;
},
{
glyphname = Edieresis;
lastChange = "2024-12-28 19:31:45 +0000";
layers = (
{
associatedMasterId = "41C87B6E-BB58-4237-A2FA-B195285FD109";
layerId = "58169014-C2AF-4848-951C-D1AF2D5F80B0";
name = img;
width = 625;
},
{
layerId = "41C87B6E-BB58-4237-A2FA-B195285FD109";
shapes = (
{
closed = 1;
nodes = (
(240,720,l),
(55,720,l),
(55,700,l),
(145,665,l),
(145,55,l),
(55,20,l),
(55,0,l),
(240,0,l)
);
},
{
closed = 1;
nodes = (
(228,668,l),
(560,668,l),
(560,720,l),
(545,733,l),
(452,720,l),
(228,720,l)
);
},
{
closed = 1;
nodes = (
(477,672,l),
(540,524,l),
(540,524,o),
(560,524,o),
(560,524,c),
(560,524,o),
(560,711,o),
(560,711,c)
);
},
{
closed = 1;
nodes = (
(228,0,l),
(570,0,l),
(570,52,l),
(228,52,l)
);
},
{
closed = 1;
nodes = (
(570,9,l),
(570,9,o),
(570,196,o),
(570,196,c),
(570,196,o),
(550,196,o),
(550,196,c),
(487,48,l)
);
},
{
closed = 1;
nodes = (
(240,339,l),
(452,331,l),
(462,396,l),
(443,403,l),
(240,393,l)
);
},
{
closed = 1;
nodes = (
(164,822,o),
(188,797,o),
(221,797,cs),
(252,797,o),
(278,822,o),
(278,855,cs),
(278,887,o),
(252,912,o),
(221,912,cs),
(188,912,o),
(164,887,o),
(164,855,cs)
);
},
{
closed = 1;
nodes = (
(346,822,o),
(372,797,o),
(404,797,cs),
(437,797,o),
(461,822,o),
(461,855,cs),
(461,887,o),
(437,912,o),
(404,912,cs),
(372,912,o),
(346,887,o),
(346,855,cs)
);
}
);
width = 625;
}
);
unicode = 203;
},
{
glyphname = Egrave;
lastChange = "2024-12-28 19:31:45 +0000";
layers = (
{
associatedMasterId = "41C87B6E-BB58-4237-A2FA-B195285FD109";
layerId = "58169014-C2AF-4848-951C-D1AF2D5F80B0";
name = img;
width = 625;
},
{
layerId = "41C87B6E-BB58-4237-A2FA-B195285FD109";
shapes = (
{
closed = 1;
nodes = (
(240,720,l),
(55,720,l),
(55,700,l),
(145,665,l),
(145,55,l),
(55,20,l),
(55,0,l),
(240,0,l)
);
},
{
closed = 1;
nodes = (
(228,668,l),
(560,668,l),
(560,720,l),
(545,733,l),
(452,720,l),
(228,720,l)
);
},
{
closed = 1;
nodes = (
(477,672,l),
(540,524,l),
(540,524,o),
(560,524,o),
(560,524,c),
(560,524,o),
(560,711,o),
(560,711,c)
);
},
{
closed = 1;
nodes = (
(228,0,l),
(570,0,l),
(570,52,l),
(228,52,l)
);
},
{
closed = 1;
nodes = (
(570,9,l),
(570,9,o),
(570,196,o),
(570,196,c),
(570,196,o),
(550,196,o),
(550,196,c),
(487,48,l)
);
},
{
closed = 1;
nodes = (
(240,339,l),
(452,331,l),
(462,396,l),
(443,403,l),
(240,393,l)
);
},
{
closed = 1;
nodes = (
(261,917,l),
(204,867,l),
(207,847,l),
(403,774,l),
(420,803,l)
);
}
);
width = 625;
}
);
unicode = 200;
},
{
glyphname = F;
lastChange = "2024-12-28 19:31:45 +0000";
layers = (
{
hints = (
{
horizontal = 1;
place = (0,20);
type = Stem;
},
{
horizontal = 1;
place = (334,57);
type = Stem;
},
{
horizontal = 1;
place = (680,20);
type = Stem;
},
{
place = (150,90);
type = Stem;
},
{
place = (554,90);
type = Stem;
}
);
layerId = "41C87B6E-BB58-4237-A2FA-B195285FD109";
shapes = (
{
closed = 1;
nodes = (
(446,671,l),
(509,523,l),
(509,523,o),
(530,523,o),
(530,523,c),
(530,523,o),
(530,685,o),
(530,685,c)
);
},
{
closed = 1;
nodes = (
(240,55,l),
(240,329,l),
(452,321,l),
(462,386,l),
(443,393,l),
(240,383,l),
(240,720,l),
(55,720,l),
(55,700,l),
(145,665,l),
(145,55,l),
(55,20,l),
(55,0,l),
(360,0,l),
(360,20,l)
);
},
{
closed = 1;
nodes = (
(198,668,l),
(530,668,l),
(530,720,l),
(515,733,l),
(422,720,l),
(198,720,l)
);
}
);
width = 585;
}
);
unicode = 70;
},
{
glyphname = G;
lastChange = "2024-12-28 19:31:45 +0000";
layers = (
{
hints = (
{
horizontal = 1;
place = (0,20);
type = Stem;
},
{
horizontal = 1;
place = (335,57);
type = Stem;
},
{
horizontal = 1;
place = (680,20);
type = Stem;
},
{
place = (137,90);
type = Stem;
},
{
place = (541,90);
type = Stem;
}
);
layerId = "41C87B6E-BB58-4237-A2FA-B195285FD109";
shapes = (
{
closed = 1;
nodes = (
(645,46,l),
(645,264,l),
(665,326,l),
(645,346,l),
(428,346,l),
(428,316,l),
(555,291,l),
(555,46,l)
);
},
{
closed = 1;
nodes = (
(550,666,l),
(612,523,l),
(612,523,o),
(632,523,o),
(632,523,c),
(632,523,o),
(633,709,o),
(633,709,c)
);
},
{
closed = 1;
nodes = (
(645,46,l),
(608,74,l),
(557,51,o),
(505,40,o),
(456,40,cs),
(303,40,o),
(172,147,o),
(172,358,cs),
(172,582,o),
(305,677,o),
(450,677,cs),
(484,677,o),
(525,671,o),
(559,659,c),
(633,709,l),
(578,727,o),
(517,736,o),
(463,736,cs),
(250,736,o),
(60,608,o),
(60,352,cs),
(60,115,o),
(239,-13,o),
(429,-13,cs),
(503,-13,o),
(567,-1,o),
(645,36,c)
);
}
);
width = 715;
}
);
unicode = 71;
},
{
glyphname = H;
lastChange = "2024-12-28 19:31:45 +0000";
layers = (
{
hints = (
{
horizontal = 1;
place = (0,20);
type = Stem;
},
{
horizontal = 1;
place = (334,57);
type = Stem;
},
{
horizontal = 1;
place = (680,20);
type = Stem;
},
{
place = (150,90);
type = Stem;
},
{
place = (554,90);
type = Stem;
}
);
layerId = "41C87B6E-BB58-4237-A2FA-B195285FD109";
shapes = (
{
closed = 1;
nodes = (
(234,340,l),
(609,340,l),
(609,392,l),
(234,392,l)
);
},
{
closed = 1;
nodes = (
(240,665,l),
(325,700,l),
(325,720,l),
(55,720,l),
(55,700,l),
(145,665,l),
(145,55,l),
(60,20,l),
(60,0,l),
(330,0,l),
(330,20,l),
(240,55,l)
);
},
{
closed = 1;
nodes = (
(604,55,l),
(519,20,l),
(519,0,l),
(789,0,l),
(789,20,l),
(699,55,l),
(699,665,l),
(774,702,l),
(774,720,l),
(514,720,l),
(514,700,l),
(604,665,l)
);
}
);
width = 844;
}
);
unicode = 72;
},
{
glyphname = I;
lastChange = "2024-12-28 19:31:45 +0000";
layers = (
{
anchors = (
{
name = top;
pos = (194,732);
}
);
hints = (
{
horizontal = 1;
place = (0,20);
type = Stem;
},
{
horizontal = 1;
place = (680,20);
type = Stem;
},
{
place = (150,90);
type = Stem;
}
);
layerId = "41C87B6E-BB58-4237-A2FA-B195285FD109";
shapes = (
{
closed = 1;
nodes = (
(240,665,l),
(325,700,l),
(325,720,l),
(55,720,l),
(55,700,l),
(145,665,l),
(145,55,l),
(60,20,l),
(60,0,l),
(330,0,l),
(330,20,l),
(240,55,l)
);
}
);
width = 385;
}
);
unicode = 73;
},
{
glyphname = Iacute;
layers = (
{
associatedMasterId = "41C87B6E-BB58-4237-A2FA-B195285FD109";
layerId = "58169014-C2AF-4848-951C-D1AF2D5F80B0";
name = img;
width = 788;
},
{
layerId = "41C87B6E-BB58-4237-A2FA-B195285FD109";
shapes = (
{
closed = 1;
nodes = (
(492,1362,l),
(666,1434,l),
(666,1475,l),
(113,1475,l),
(113,1434,l),
(297,1362,l),
(297,113,l),
(123,41,l),
(123,0,l),
(676,0,l),
(676,41,l),
(492,113,l)
);
},
{
closed = 1;
nodes = (
(172,1645,l),
(207,1585,l),
(608,1735,l),
(614,1776,l),
(497,1878,l)
);
}
);
width = 788;
}
);
unicode = 205;
},
{
glyphname = Icircumflex;
lastChange = "2024-12-28 19:31:45 +0000";
layers = (
{
associatedMasterId = "41C87B6E-BB58-4237-A2FA-B195285FD109";
layerId = "58169014-C2AF-4848-951C-D1AF2D5F80B0";
name = img;
width = 434;
},
{
layerId = "41C87B6E-BB58-4237-A2FA-B195285FD109";
shapes = (
{
closed = 1;
nodes = (
(264,665,l),
(349,700,l),
(349,720,l),
(79,720,l),
(79,700,l),
(169,665,l),
(169,55,l),
(84,20,l),
(84,0,l),
(354,0,l),
(354,20,l),
(264,55,l)
);
},
{
closed = 1;
nodes = (
(55,802,l),
(55,788,l),
(88,768,l),
(215,868,l),
(219,868,l),
(346,768,l),
(379,788,l),
(379,802,l),
(245,929,l),
(189,929,l)
);
}
);
width = 434;
}
);
unicode = 206;
},
{
glyphname = Idieresis;
lastChange = "2024-12-28 19:31:45 +0000";
layers = (
{
associatedMasterId = "41C87B6E-BB58-4237-A2FA-B195285FD109";
layerId = "58169014-C2AF-4848-951C-D1AF2D5F80B0";
name = img;
width = 407;
},
{
layerId = "41C87B6E-BB58-4237-A2FA-B195285FD109";
shapes = (
{
closed = 1;
nodes = (
(251,665,l),
(336,700,l),
(336,720,l),
(66,720,l),
(66,700,l),
(156,665,l),
(156,55,l),
(71,20,l),
(71,0,l),
(341,0,l),
(341,20,l),
(251,55,l)
);
},
{
closed = 1;
nodes = (
(55,822,o),
(79,797,o),
(112,797,cs),
(143,797,o),
(169,822,o),
(169,855,cs),
(169,887,o),
(143,912,o),
(112,912,cs),
(79,912,o),
(55,887,o),
(55,855,cs)
);
},
{
closed = 1;
nodes = (
(237,822,o),
(263,797,o),
(295,797,cs),
(328,797,o),
(352,822,o),
(352,855,cs),
(352,887,o),
(328,912,o),
(295,912,cs),
(263,912,o),
(237,887,o),
(237,855,cs)
);
}
);
width = 407;
}
);
unicode = 207;
},
{
glyphname = Igrave;
lastChange = "2024-12-28 19:31:45 +0000";
layers = (
{
associatedMasterId = "41C87B6E-BB58-4237-A2FA-B195285FD109";
layerId = "58169014-C2AF-4848-951C-D1AF2D5F80B0";
name = img;
width = 385;
},
{
layerId = "41C87B6E-BB58-4237-A2FA-B195285FD109";
shapes = (
{
closed = 1;
nodes = (
(240,665,l),
(325,700,l),
(325,720,l),
(55,720,l),
(55,700,l),
(145,665,l),
(145,55,l),
(60,20,l),
(60,0,l),
(330,0,l),
(330,20,l),
(240,55,l)
);
},
{
closed = 1;
nodes = (
(141,917,l),
(84,867,l),
(87,847,l),
(283,774,l),
(300,803,l)
);
}
);
width = 385;
}
);
unicode = 204;
},
{
glyphname = J;
lastChange = "2024-12-28 19:31:45 +0000";
layers = (
{
hints = (
{
horizontal = 1;
place = (0,20);
type = Stem;
},
{
horizontal = 1;
place = (680,20);
type = Stem;
},
{
place = (132,90);
type = Stem;
}
);
layerId = "41C87B6E-BB58-4237-A2FA-B195285FD109";
shapes = (
{
closed = 1;
nodes = (
(222,665,l),
(307,700,l),
(307,720,l),
(37,720,l),
(37,700,l),
(127,665,l),
(127,120,ls),
(127,5,o),
(101,-47,o),
(8,-100,c),
(11,-132,l),
(154,-92,o),
(222,-14,o),
(222,112,cs)
);
}
);
width = 332;
}
);
unicode = 74;
},
{
glyphname = K;
lastChange = "2024-12-28 19:31:45 +0000";
layers = (
{
hints = (
{
horizontal = 1;
place = (0,20);
type = Stem;
},
{
horizontal = 1;
place = (255,40);
type = Stem;
},
{
horizontal = 1;
place = (480,20);
type = Stem;
},
{
place = (53,90);
type = Stem;
},
{
place = (143,90);
type = Stem;
},
{
place = (233,80);
type = Stem;
},
{
place = (459,90);
type = Stem;
},
{
place = (505,85);
type = Stem;
}
);
layerId = "41C87B6E-BB58-4237-A2FA-B195285FD109";
shapes = (
{
closed = 1;
nodes = (
(693,23,l),
(596,62,l),
(596,0,l),
(693,0,l)
);
},
{
closed = 1;
nodes = (
(526,0,l),
(643,0,l),
(356,413,l),
(280,366,l)
);
},
{
closed = 1;
nodes = (
(280,366,l),
(354,366,l),
(636,720,l),
(556,720,l)
);
},
{
closed = 1;
nodes = (
(685,720,l),
(577,720,l),
(577,657,l),
(685,697,l)
);
},
{
closed = 1;
nodes = (
(440,697,l),
(543,657,l),
(565,720,l),
(440,720,l)
);
},
{
closed = 1;
nodes = (
(235,665,l),
(320,700,l),
(320,720,l),
(55,720,l),
(55,700,l),
(145,665,l),
(145,55,l),
(60,20,l),
(60,0,l),
(325,0,l),
(325,20,l),
(235,55,l)
);
},
{
closed = 1;
nodes = (
(223,345,l),
(327,345,l),
(327,407,l),
(223,388,l)
);
}
);
width = 698;
}
);
unicode = 75;
},
{
glyphname = L;
lastChange = "2024-12-28 19:31:45 +0000";
layers = (
{
hints = (
{
horizontal = 1;
place = (0,57);
type = Stem;
},
{
horizontal = 1;
place = (720,-20);
target = down;
type = TopGhost;
},
{
place = (155,90);
type = Stem;
}
);
layerId = "41C87B6E-BB58-4237-A2FA-B195285FD109";
shapes = (
{
closed = 1;
nodes = (
(575,0,l),
(575,201,l),
(555,201,l),
(493,57,l),
(245,57,l),
(245,665,l),
(330,700,l),
(330,720,l),
(55,720,l),
(55,700,l),
(145,665,l),
(145,55,l),
(55,20,l),
(55,0,l)
);
}
);
width = 610;
}
);
unicode = 76;
},
{
glyphname = M;
lastChange = "2024-12-28 19:31:45 +0000";
layers = (
{
hints = (
{
horizontal = 1;
place = (0,20);
type = Stem;
},
{
horizontal = 1;
place = (334,57);
type = Stem;
},
{
horizontal = 1;
place = (680,20);
type = Stem;
},
{
place = (96,90);
type = Stem;
},
{
place = (500,90);
type = Stem;
}
);
layerId = "41C87B6E-BB58-4237-A2FA-B195285FD109";
shapes = (
{
closed = 1;
nodes = (
(677,720,l),
(463,154,l),
(459,154,l),
(280,674,l),
(278,720,l),
(45,720,l),
(45,700,l),
(135,665,l),
(135,60,l),
(50,20,l),
(50,0,l),
(280,0,l),
(280,20,l),
(200,60,l),
(200,617,l),
(205,617,l),
(425,0,l),
(474,0,l),
(704,615,l),
(710,615,l),
(710,55,l),
(632,20,l),
(632,0,l),
(877,0,l),
(877,20,l),
(787,55,l),
(787,665,l),
(872,700,l),
(872,720,l)
);
}
);
width = 922;
}
);
unicode = 77;
},
{
glyphname = N;
lastChange = "2024-12-28 19:31:45 +0000";
layers = (
{
layerId = "41C87B6E-BB58-4237-A2FA-B195285FD109";
shapes = (
{
closed = 1;
nodes = (
(655,660,l),
(740,700,l),
(740,720,l),
(510,720,l),
(510,700,l),
(590,660,l),
(590,294,l),
(595,177,l),
(589,177,l),
(511,305,l),
(260,672,l),
(250,720,l),
(35,720,l),
(35,700,l),
(125,665,l),
(125,60,l),
(40,20,l),
(40,0,l),
(270,0,l),
(270,20,l),
(190,60,l),
(190,513,l),
(187,634,l),
(193,634,l),
(254,524,l),
(609,0,l),
(655,0,l)
);
}
);
width = 775;
}
);
unicode = 78;
},
{
glyphname = Ntilde;
lastChange = "2024-12-28 19:31:45 +0000";
layers = (
{
associatedMasterId = "41C87B6E-BB58-4237-A2FA-B195285FD109";
layerId = "58169014-C2AF-4848-951C-D1AF2D5F80B0";
name = img;
width = 775;
},
{
layerId = "41C87B6E-BB58-4237-A2FA-B195285FD109";
shapes = (
{
closed = 1;
nodes = (
(655,660,l),
(740,700,l),
(740,720,l),
(510,720,l),
(510,700,l),
(590,660,l),
(590,294,l),
(595,177,l),
(589,177,l),
(511,305,l),
(260,672,l),
(250,720,l),
(35,720,l),
(35,700,l),
(125,665,l),
(125,60,l),
(40,20,l),
(40,0,l),
(270,0,l),
(270,20,l),
(190,60,l),
(190,513,l),
(187,634,l),
(193,634,l),
(254,524,l),
(609,0,l),
(655,0,l)
);
},
{
closed = 1;
nodes = (
(409,843,o),
(374,896,o),
(321,891,c),
(268,885,o),
(212,806,o),
(212,806,c),
(230,783,l),
(264,809,o),
(282,821,o),
(310,823,c),
(351,828,o),
(399,775,o),
(451,781,cs),
(512,787,o),
(562,867,o),
(562,867,c),
(543,887,l),
(515,861,o),
(486,851,o),
(463,849,c)
);
}
);
width = 775;
}
);
unicode = 209;
},
{
glyphname = O;
lastChange = "2024-12-28 19:31:45 +0000";
layers = (
{
anchors = (
{
name = top;
pos = (393,732);
}
);
hints = (
{
horizontal = 1;
place = (-12,53);
type = Stem;
},
{
horizontal = 1;
place = (679,55);
type = Stem;
},
{
place = (55,110);
type = Stem;
},
{
place = (619,110);
type = Stem;
}
);
layerId = "41C87B6E-BB58-4237-A2FA-B195285FD109";
shapes = (
{
closed = 1;
nodes = (
(573,-20,o),
(724,127,o),
(724,359,cs),
(724,591,o),
(587,742,o),
(400,742,cs),
(212,742,o),
(60,590,o),
(60,358,cs),
(60,126,o),
(198,-20,o),
(387,-20,cs)
);
},
{
closed = 1;
nodes = (
(529,687,o),
(619,552,o),
(619,359,cs),
(619,166,o),
(529,33,o),
(393,33,cs),
(255,33,o),
(165,165,o),
(165,358,cs),
(165,550,o),
(254,687,o),
(393,687,cs)
);
}
);
width = 784;
}
);
unicode = 79;
},
{
glyphname = Oacute;
lastChange = "2024-12-28 19:31:45 +0000";
layers = (
{
associatedMasterId = "41C87B6E-BB58-4237-A2FA-B195285FD109";
layerId = "58169014-C2AF-4848-951C-D1AF2D5F80B0";
name = img;
width = 784;
},
{
layerId = "41C87B6E-BB58-4237-A2FA-B195285FD109";
shapes = (
{
closed = 1;
nodes = (
(573,-20,o),
(724,127,o),
(724,359,cs),
(724,591,o),
(587,742,o),
(400,742,cs),
(212,742,o),
(60,590,o),
(60,358,cs),
(60,126,o),
(198,-20,o),
(387,-20,cs)
);
},
{
closed = 1;
nodes = (
(529,687,o),
(619,552,o),
(619,359,cs),
(619,166,o),
(529,33,o),
(393,33,cs),
(255,33,o),
(165,165,o),
(165,358,cs),
(165,550,o),
(254,687,o),
(393,687,cs)
);
},
{
closed = 1;
nodes = (
(284,803,l),
(301,774,l),
(497,847,l),
(500,867,l),
(443,917,l)
);
}
);
width = 784;
}
);
unicode = 211;
},
{
glyphname = Ocircumflex;
lastChange = "2024-12-28 19:31:45 +0000";
layers = (
{
associatedMasterId = "41C87B6E-BB58-4237-A2FA-B195285FD109";
layerId = "58169014-C2AF-4848-951C-D1AF2D5F80B0";
name = img;
width = 784;
},
{
layerId = "41C87B6E-BB58-4237-A2FA-B195285FD109";
shapes = (
{
closed = 1;
nodes = (
(573,-20,o),
(724,127,o),
(724,359,cs),
(724,591,o),
(587,742,o),
(400,742,cs),
(212,742,o),
(60,590,o),
(60,358,cs),
(60,126,o),
(198,-20,o),
(387,-20,cs)
);
},
{
closed = 1;
nodes = (
(529,687,o),
(619,552,o),
(619,359,cs),
(619,166,o),
(529,33,o),
(393,33,cs),
(255,33,o),
(165,165,o),
(165,358,cs),
(165,550,o),
(254,687,o),
(393,687,cs)
);
},
{
closed = 1;
nodes = (
(231,802,l),
(231,788,l),
(264,768,l),
(391,868,l),
(395,868,l),
(522,768,l),
(555,788,l),
(555,802,l),
(421,929,l),
(365,929,l)
);
}
);
width = 784;
}
);
unicode = 212;
},
{
glyphname = Odieresis;
lastChange = "2024-12-28 19:31:45 +0000";
layers = (
{
associatedMasterId = "41C87B6E-BB58-4237-A2FA-B195285FD109";
layerId = "58169014-C2AF-4848-951C-D1AF2D5F80B0";
name = img;
width = 784;
},
{
layerId = "41C87B6E-BB58-4237-A2FA-B195285FD109";
shapes = (
{
closed = 1;
nodes = (
(573,-20,o),
(724,127,o),
(724,359,cs),
(724,591,o),
(587,742,o),
(400,742,cs),
(212,742,o),
(60,590,o),
(60,358,cs),
(60,126,o),
(198,-20,o),
(387,-20,cs)
);
},
{
closed = 1;
nodes = (
(529,687,o),
(619,552,o),
(619,359,cs),
(619,166,o),
(529,33,o),
(393,33,cs),
(255,33,o),
(165,165,o),
(165,358,cs),
(165,550,o),
(254,687,o),
(393,687,cs)
);
},
{
closed = 1;
nodes = (
(243,822,o),
(267,797,o),
(300,797,cs),
(331,797,o),
(357,822,o),
(357,855,cs),
(357,887,o),
(331,912,o),
(300,912,cs),
(267,912,o),
(243,887,o),
(243,855,cs)
);
},
{
closed = 1;
nodes = (
(425,822,o),
(451,797,o),
(483,797,cs),
(516,797,o),
(540,822,o),
(540,855,cs),
(540,887,o),
(516,912,o),
(483,912,cs),
(451,912,o),
(425,887,o),
(425,855,cs)
);
}
);
width = 784;
}
);
unicode = 214;
},
{
glyphname = Ograve;
lastChange = "2024-12-28 19:31:45 +0000";
layers = (
{
associatedMasterId = "41C87B6E-BB58-4237-A2FA-B195285FD109";
layerId = "58169014-C2AF-4848-951C-D1AF2D5F80B0";
name = img;
width = 784;
},
{
layerId = "41C87B6E-BB58-4237-A2FA-B195285FD109";
shapes = (
{
closed = 1;
nodes = (
(573,-20,o),
(724,127,o),
(724,359,cs),
(724,591,o),
(587,742,o),
(400,742,cs),
(212,742,o),
(60,590,o),
(60,358,cs),
(60,126,o),
(198,-20,o),
(387,-20,cs)
);
},
{
closed = 1;
nodes = (
(529,687,o),
(619,552,o),
(619,359,cs),
(619,166,o),
(529,33,o),
(393,33,cs),
(255,33,o),
(165,165,o),
(165,358,cs),
(165,550,o),
(254,687,o),
(393,687,cs)
);
},
{
closed = 1;
nodes = (
(341,917,l),
(284,867,l),
(287,847,l),
(483,774,l),
(500,803,l)
);
}
);
width = 784;
}
);
unicode = 210;
},
{
glyphname = Oslash;
lastChange = "2024-12-28 19:31:45 +0000";
layers = (
{
associatedMasterId = "41C87B6E-BB58-4237-A2FA-B195285FD109";
layerId = "58169014-C2AF-4848-951C-D1AF2D5F80B0";
name = img;
width = 794;
},
{
hints = (
{
horizontal = 1;
place = (0,20);
type = Stem;
},
{
horizontal = 1;
place = (335,57);
type = Stem;
},
{
horizontal = 1;
place = (680,20);
type = Stem;
},
{
place = (135,90);
type = Stem;
},
{
place = (539,90);
type = Stem;
}
);
layerId = "41C87B6E-BB58-4237-A2FA-B195285FD109";
shapes = (
{
closed = 1;
nodes = (
(175,-53,l),
(232,42,l),
(259,70,l),
(579,603,l),
(607,633,l),
(678,750,l),
(603,750,l),
(564,686,l),
(528,642,l),
(214,121,l),
(178,77,l),
(100,-53,l)
);
},
{
closed = 1;
nodes = (
(578,-12,o),
(734,127,o),
(734,359,cs),
(734,591,o),
(592,734,o),
(405,734,cs),
(217,734,o),
(60,590,o),
(60,358,cs),
(60,126,o),
(203,-12,o),
(392,-12,cs,{
name = .hr01;
})
);
},
{
closed = 1;
nodes = (
(534,679,o),
(624,552,o),
(624,359,cs),
(624,166,o),
(534,41,o),
(398,41,cs),
(260,41,o),
(170,165,o),
(170,358,cs),
(170,550,o),
(259,679,o),
(398,679,cs)
);
}
);
width = 794;
}
);
unicode = 216;
},
{
glyphname = Otilde;
lastChange = "2024-12-28 19:31:45 +0000";
layers = (
{
associatedMasterId = "41C87B6E-BB58-4237-A2FA-B195285FD109";
layerId = "58169014-C2AF-4848-951C-D1AF2D5F80B0";
name = img;
width = 784;
},
{
layerId = "41C87B6E-BB58-4237-A2FA-B195285FD109";
shapes = (
{
closed = 1;
nodes = (
(573,-20,o),
(724,127,o),
(724,359,cs),
(724,591,o),
(587,742,o),
(400,742,cs),
(212,742,o),
(60,590,o),
(60,358,cs),
(60,126,o),
(198,-20,o),
(387,-20,cs)
);
},
{
closed = 1;
nodes = (
(529,687,o),
(619,552,o),
(619,359,cs),
(619,166,o),
(529,33,o),
(393,33,cs),
(255,33,o),
(165,165,o),
(165,358,cs),
(165,550,o),
(254,687,o),
(393,687,cs)
);
},
{
closed = 1;
nodes = (
(414,843,o),
(379,896,o),
(326,891,c),
(273,885,o),
(217,806,o),
(217,806,c),
(235,783,l),
(269,809,o),
(287,821,o),
(315,823,c),
(356,828,o),
(404,775,o),
(456,781,cs),
(517,787,o),
(567,867,o),
(567,867,c),
(548,887,l),
(520,861,o),
(491,851,o),
(468,849,c)
);
}
);
width = 784;
}
);
unicode = 213;
},
{
glyphname = OE;
lastChange = "2024-12-28 19:31:45 +0000";
layers = (
{
associatedMasterId = "41C87B6E-BB58-4237-A2FA-B195285FD109";
background = {
shapes = (
{
closed = 1;
nodes = (
(681,668,l),
(1013,668,l),
(1013,720,l),
(681,720,l)
);
},
{
closed = 1;
nodes = (
(930,672,l),
(993,524,l),
(993,524,o),
(1013,524,o),
(1013,524,c),
(1013,524,o),
(1013,711,o),
(1013,711,c)
);
},
{
closed = 1;
nodes = (
(681,0,l),
(1023,0,l),
(1023,52,l),
(681,52,l)
);
},
{
closed = 1;
nodes = (
(1023,9,l),
(1023,9,o),
(1023,196,o),
(1023,196,c),
(1023,196,o),
(1003,196,o),
(1003,196,c),
(940,48,l)
);
}
);
};
layerId = "58169014-C2AF-4848-951C-D1AF2D5F80B0";
name = img;
width = 1078;
},
{
hints = (
{
horizontal = 1;
place = (0,20);
type = Stem;
},
{
horizontal = 1;
place = (335,57);
type = Stem;
},
{
horizontal = 1;
place = (680,20);
type = Stem;
},
{
horizontal = 1;
place = (334,57);
type = Stem;
},
{
place = (135,90);
type = Stem;
},
{
place = (539,90);
type = Stem;
},
{
place = (901,90);
type = Stem;
},
{
place = (1305,90);
type = Stem;
}
);
layerId = "41C87B6E-BB58-4237-A2FA-B195285FD109";
shapes = (
{
closed = 1;
nodes = (
(568,-12,o),
(691,127,o),
(691,359,cs),
(691,591,o),
(580,734,o),
(405,734,cs),
(217,734,o),
(60,590,o),
(60,358,cs),
(60,126,o),
(203,-12,o),
(392,-12,cs)
);
},
{
closed = 1;
nodes = (
(522,679,o),
(604,552,o),
(604,359,cs),
(604,166,o),
(522,41,o),
(398,41,cs),
(260,41,o),
(170,165,o),
(170,358,cs),
(170,550,o),
(259,679,o),
(398,679,cs)
);
},
{
closed = 1;
nodes = (
(693,720,l),
(605,720,l),
(605,0,l),
(693,0,l)
);
},
{
closed = 1;
nodes = (
(692,668,l),
(1013,668,l),
(1013,720,l),
(998,733,l),
(905,720,l),
(692,720,l)
);
},
{
closed = 1;
nodes = (
(930,672,l),
(993,524,l),
(993,524,o),
(1013,524,o),
(1013,524,c),
(1013,524,o),
(1013,711,o),
(1013,711,c)
);
},
{
closed = 1;
nodes = (
(1023,9,l),
(1023,9,o),
(1023,196,o),
(1023,196,c),
(1023,196,o),
(1003,196,o),
(1003,196,c),
(940,48,l)
);
},
{
closed = 1;
nodes = (
(693,339,l),
(905,331,l),
(915,396,l),
(896,403,l),
(693,393,l)
);
},
{
closed = 1;
nodes = (
(692,0,l),
(915,0,l),
(1008,-13,l),
(1023,0,l),
(1023,52,l),
(692,52,l)
);
}
);
width = 1078;
}
);
unicode = 338;
},
{
glyphname = P;
lastChange = "2024-12-28 19:31:45 +0000";
layers = (
{
hints = (
{
horizontal = 1;
place = (0,20);
type = Stem;
},
{
horizontal = 1;
place = (334,57);
type = Stem;
},
{
horizontal = 1;
place = (680,20);
type = Stem;
},
{
place = (144,90);
type = Stem;
},
{
place = (548,90);
type = Stem;
}
);
layerId = "41C87B6E-BB58-4237-A2FA-B195285FD109";
shapes = (
{
closed = 1;
nodes = (
(235,293,l),
(481,265,o),
(584,383,o),
(584,520,cs),
(584,638,o),
(492,720,o),
(319,720,cs),
(55,720,l),
(235,669,l),
(333,669,ls),
(429,669,o),
(485,618,o),
(485,512,cs),
(485,406,o),
(436,319,o),
(235,345,c),
(235,720,l),
(55,720,l),
(55,700,l),
(145,665,l),
(145,55,l),
(55,20,l),
(55,0,l),
(345,0,l),
(345,20,l),
(235,55,l)
);
}
);
width = 619;
}
);
unicode = 80;
},
{
glyphname = Thorn;
lastChange = "2024-12-28 19:31:45 +0000";
layers = (
{
guides = (
{
angle = 90;
pos = (385,0);
}
);
hints = (
{
horizontal = 1;
place = (0,20);
type = Stem;
},
{
horizontal = 1;
place = (334,57);
type = Stem;
},
{
horizontal = 1;
place = (680,20);
type = Stem;
},
{
place = (142,90);
type = Stem;
},
{
place = (546,90);
type = Stem;
}
);
layerId = "41C87B6E-BB58-4237-A2FA-B195285FD109";
shapes = (
{
closed = 1;
nodes = (
(235,183,l),
(481,155,o),
(584,273,o),
(584,410,cs),
(584,528,o),
(492,610,o),
(319,610,cs),
(235,610,l),
(235,559,l),
(333,559,ls),
(429,559,o),
(485,508,o),
(485,402,cs),
(485,296,o),
(436,209,o),
(235,235,c)
);
},
{
closed = 1;
nodes = (
(235,665,l),
(320,700,l),
(320,720,l),
(55,720,l),
(55,700,l),
(145,665,l),
(145,55,l),
(60,20,l),
(60,0,l),
(325,0,l),
(325,20,l),
(235,55,l)
);
}
);
width = 647;
}
);
unicode = 222;
},
{
glyphname = Q;
lastChange = "2024-12-28 19:31:45 +0000";
layers = (
{
layerId = "41C87B6E-BB58-4237-A2FA-B195285FD109";
shapes = (
{
closed = 1;
nodes = (
(578,-12,o),
(734,127,o),
(734,359,cs),
(734,591,o),
(592,734,o),
(405,734,cs),
(217,734,o),
(60,590,o),
(60,358,cs),
(60,126,o),
(203,-12,o),
(392,-12,cs)
);
},
{
closed = 1;
nodes = (
(534,679,o),
(624,552,o),
(624,359,cs),
(624,166,o),
(534,41,o),
(398,41,cs),
(260,41,o),
(170,165,o),
(170,358,cs),
(170,550,o),
(259,679,o),
(398,679,cs)
);
},
{
closed = 1;
nodes = (
(368,2,l),
(402,-93,o),
(459,-162,o),
(535,-208,c),
(653,-144,l),
(643,-126,l),
(567,-136,l),
(519,-100,o),
(481,-57,o),
(454,9,c)
);
}
);
width = 794;
}
);
unicode = 81;
},
{
glyphname = R;
lastChange = "2024-12-28 19:31:45 +0000";
layers = (
{
hints = (
{
horizontal = 1;
place = (0,20);
type = Stem;
},
{
horizontal = 1;
place = (334,57);
type = Stem;
},
{
horizontal = 1;
place = (680,20);
type = Stem;
},
{
place = (143,90);
type = Stem;
},
{
place = (547,90);
type = Stem;
}
);
layerId = "41C87B6E-BB58-4237-A2FA-B195285FD109";
shapes = (
{
closed = 1;
nodes = (
(235,303,l),
(481,275,o),
(595,383,o),
(595,520,cs),
(595,638,o),
(503,720,o),
(330,720,cs),
(55,720,l),
(235,669,l),
(344,669,ls),
(440,669,o),
(496,618,o),
(496,512,cs),
(496,406,o),
(436,329,o),
(235,355,c),
(235,720,l),
(55,720,l),
(55,700,l),
(145,665,l),
(145,55,l),
(55,20,l),
(55,0,l),
(345,0,l),
(345,20,l),
(235,55,l)
);
},
{
closed = 1;
nodes = (
(524,0,l),
(675,0,l),
(675,20,l),
(603,48,l),
(455,337,l),
(363,317,l)
);
}
);
width = 705;
}
);
unicode = 82;
},
{
glyphname = S;
lastChange = "2024-12-28 19:31:45 +0000";
layers = (
{
hints = (
{
horizontal = 1;
place = (0,20);
type = Stem;
},
{
horizontal = 1;
place = (334,57);
type = Stem;
},
{
horizontal = 1;
place = (680,20);
type = Stem;
},
{
place = (66,90);
type = Stem;
},
{
place = (470,90);
type = Stem;
}
);
layerId = "41C87B6E-BB58-4237-A2FA-B195285FD109";
shapes = (
{
closed = 1;
nodes = (
(50,19,l),
(118,-1,o),
(173,-12,o),
(251,-12,cs),
(375,-12,o),
(492,36,o),
(492,186,cs),
(492,288,o),
(442,326,o),
(299,405,cs),
(171,476,o),
(145,515,o),
(145,568,cs),
(145,645,o),
(204,677,o),
(293,677,cs),
(324,677,o),
(355,673,o),
(389,666,c),
(459,711,l),
(408,724,o),
(348,734,o),
(287,734,cs),
(161,734,o),
(57,694,o),
(57,550,cs),
(57,453,o),
(112,400,o),
(245,329,cs),
(369,263,o),
(394,221,o),
(394,163,cs),
(394,72,o),
(321,45,o),
(251,45,cs),
(206,45,o),
(155,56,o),
(123,64,c)
);
},
{
closed = 1;
nodes = (
(386,667,l),
(439,542,l),
(439,542,o),
(459,542,o),
(459,542,c),
(459,542,o),
(459,711,o),
(459,711,c)
);
},
{
closed = 1;
nodes = (
(123,64,l),
(75,195,l),
(75,195,o),
(50,195,o),
(50,195,c),
(50,195,o),
(50,19,o),
(50,19,c)
);
}
);
width = 547;
}
);
unicode = 83;
},
{
glyphname = T;
lastChange = "2024-12-28 19:31:45 +0000";
layers = (
{
hints = (
{
horizontal = 1;
place = (0,20);
type = Stem;
},
{
horizontal = 1;
place = (680,20);
type = Stem;
},
{
place = (265,90);
type = Stem;
}
);
layerId = "41C87B6E-BB58-4237-A2FA-B195285FD109";
shapes = (
{
closed = 1;
nodes = (
(355,720,l),
(265,720,l),
(265,55,l),
(180,20,l),
(180,0,l),
(445,0,l),
(445,20,l),
(355,55,l)
);
},
{
closed = 1;
nodes = (
(5,720,l),
(5,518,l),
(25,518,l),
(89,666,l),
(265,674,l),
(355,674,l),
(525,667,l),
(586,518,l),
(606,518,l),
(606,720,l)
);
},
{
closed = 1;
nodes = (
(494,698,l),
(606,698,l),
(606,720,l),
(591,733,l),
(498,720,l),
(494,720,l)
);
},
{
closed = 1;
nodes = (
(117,720,l),
(113,720,l),
(20,733,l),
(5,720,l),
(5,698,l),
(117,698,l)
);
}
);
width = 611;
}
);
unicode = 84;
},
{
glyphname = U;
lastChange = "2024-12-28 19:31:45 +0000";
layers = (
{
anchors = (
{
name = top;
pos = (425,732);
}
);
hints = (
{
horizontal = 1;
place = (-12,53);
type = Stem;
},
{
horizontal = 1;
place = (720,-20);
target = down;
type = TopGhost;
},
{
place = (135,96);
type = Stem;
},
{
place = (612,65);
type = Stem;
}
);
layerId = "41C87B6E-BB58-4237-A2FA-B195285FD109";
shapes = (
{
closed = 1;
nodes = (
(302,33,o),
(231,98,o),
(231,278,cs),
(231,665,l),
(316,700,l),
(316,720,l),
(46,720,l),
(46,700,l),
(136,665,l),
(136,265,ls),
(136,37,o),
(255,-20,o),
(406,-20,cs),
(586,-20,o),
(677,72,o),
(677,272,cs),
(677,660,l),
(759,700,l),
(759,720,l),
(522,720,l),
(522,700,l),
(612,660,l),
(612,265,ls),
(612,85,o),
(530,33,o),
(404,33,cs)
);
}
);
width = 774;
}
);
unicode = 85;
},
{
glyphname = Uacute;
lastChange = "2024-12-28 19:31:45 +0000";
layers = (
{
associatedMasterId = "41C87B6E-BB58-4237-A2FA-B195285FD109";
layerId = "58169014-C2AF-4848-951C-D1AF2D5F80B0";
name = img;
width = 774;
},
{
layerId = "41C87B6E-BB58-4237-A2FA-B195285FD109";
shapes = (
{
closed = 1;
nodes = (
(302,33,o),
(231,98,o),
(231,278,cs),
(231,665,l),
(316,700,l),
(316,720,l),
(46,720,l),
(46,700,l),
(136,665,l),
(136,265,ls),
(136,37,o),
(255,-20,o),
(406,-20,cs),
(586,-20,o),
(677,72,o),
(677,272,cs),
(677,660,l),
(759,700,l),
(759,720,l),
(522,720,l),
(522,700,l),
(612,660,l),
(612,265,ls),
(612,85,o),
(530,33,o),
(404,33,cs)
);
},
{
closed = 1;
nodes = (
(279,803,l),
(296,774,l),
(492,847,l),
(495,867,l),
(438,917,l)
);
}
);
width = 774;
}
);
unicode = 218;
},
{
glyphname = Ucircumflex;
lastChange = "2024-12-28 19:31:45 +0000";
layers = (
{
associatedMasterId = "41C87B6E-BB58-4237-A2FA-B195285FD109";
layerId = "58169014-C2AF-4848-951C-D1AF2D5F80B0";
name = img;
width = 774;
},
{
layerId = "41C87B6E-BB58-4237-A2FA-B195285FD109";
shapes = (
{
closed = 1;
nodes = (
(302,33,o),
(231,98,o),
(231,278,cs),
(231,665,l),
(316,700,l),
(316,720,l),
(46,720,l),
(46,700,l),
(136,665,l),
(136,265,ls),
(136,37,o),
(255,-20,o),
(406,-20,cs),
(586,-20,o),
(677,72,o),
(677,272,cs),
(677,660,l),
(759,700,l),
(759,720,l),
(522,720,l),
(522,700,l),
(612,660,l),
(612,265,ls),
(612,85,o),
(530,33,o),
(404,33,cs)
);
},
{
closed = 1;
nodes = (
(226,802,l),
(226,788,l),
(259,768,l),
(386,868,l),
(390,868,l),
(517,768,l),
(550,788,l),
(550,802,l),
(416,929,l),
(360,929,l)
);
}
);
width = 774;
}
);
unicode = 219;
},
{
glyphname = Udieresis;
lastChange = "2024-12-28 19:31:45 +0000";
layers = (
{
associatedMasterId = "41C87B6E-BB58-4237-A2FA-B195285FD109";
layerId = "58169014-C2AF-4848-951C-D1AF2D5F80B0";
name = img;
width = 774;
},
{
layerId = "41C87B6E-BB58-4237-A2FA-B195285FD109";
shapes = (
{
closed = 1;
nodes = (
(302,33,o),
(231,98,o),
(231,278,cs),
(231,665,l),
(316,700,l),
(316,720,l),
(46,720,l),
(46,700,l),
(136,665,l),
(136,265,ls),
(136,37,o),
(255,-20,o),
(406,-20,cs),
(586,-20,o),
(677,72,o),
(677,272,cs),
(677,660,l),
(759,700,l),
(759,720,l),
(522,720,l),
(522,700,l),
(612,660,l),
(612,265,ls),
(612,85,o),
(530,33,o),
(404,33,cs)
);
},
{
closed = 1;
nodes = (
(238,822,o),
(262,797,o),
(295,797,cs),
(326,797,o),
(352,822,o),
(352,855,cs),
(352,887,o),
(326,912,o),
(295,912,cs),
(262,912,o),
(238,887,o),
(238,855,cs)
);
},
{
closed = 1;
nodes = (
(420,822,o),
(446,797,o),
(478,797,cs),
(511,797,o),
(535,822,o),
(535,855,cs),
(535,887,o),
(511,912,o),
(478,912,cs),
(446,912,o),
(420,887,o),
(420,855,cs)
);
}
);
width = 774;
}
);
unicode = 220;
},
{
glyphname = Ugrave;
lastChange = "2024-12-28 19:31:45 +0000";
layers = (
{
associatedMasterId = "41C87B6E-BB58-4237-A2FA-B195285FD109";
layerId = "58169014-C2AF-4848-951C-D1AF2D5F80B0";
name = img;
width = 774;
},
{
layerId = "41C87B6E-BB58-4237-A2FA-B195285FD109";
shapes = (
{
closed = 1;
nodes = (
(302,33,o),
(231,98,o),
(231,278,cs),
(231,665,l),
(316,700,l),
(316,720,l),
(46,720,l),
(46,700,l),
(136,665,l),
(136,265,ls),
(136,37,o),
(255,-20,o),
(406,-20,cs),
(586,-20,o),
(677,72,o),
(677,272,cs),
(677,660,l),
(759,700,l),
(759,720,l),
(522,720,l),
(522,700,l),
(612,660,l),
(612,265,ls),
(612,85,o),
(530,33,o),
(404,33,cs)
);
},
{
closed = 1;
nodes = (
(336,917,l),
(279,867,l),
(282,847,l),
(478,774,l),
(495,803,l)
);
}
);
width = 774;
}
);
unicode = 217;
},
{
glyphname = V;
lastChange = "2024-12-28 19:31:45 +0000";
layers = (
{
hints = (
{
horizontal = 1;
place = (0,20);
type = Stem;
},
{
horizontal = 1;
place = (334,57);
type = Stem;
},
{
horizontal = 1;
place = (680,20);
type = Stem;
},
{
place = (-10,90);
type = Stem;
},
{
place = (394,90);
type = Stem;
}
);
layerId = "41C87B6E-BB58-4237-A2FA-B195285FD109";
shapes = (
{
closed = 1;
nodes = (
(227,720,l),
(-25,720,l),
(-25,700,l),
(56,665,l),
(316,-10,l),
(354,-10,l),
(617,665,l),
(702,700,l),
(702,720,l),
(479,720,l),
(479,700,l),
(552,671,l),
(352,148,l),
(348,148,l),
(147,671,l),
(227,700,l)
);
}
);
width = 677;
}
);
unicode = 86;
},
{
glyphname = W;
lastChange = "2024-12-28 19:31:45 +0000";
layers = (
{
guides = (
{
pos = (0,293);
}
);
hints = (
{
horizontal = 1;
place = (0,20);
type = Stem;
},
{
horizontal = 1;
place = (334,57);
type = Stem;
},
{
horizontal = 1;
place = (680,20);
type = Stem;
},
{
place = (-10,90);
type = Stem;
},
{
place = (394,90);
type = Stem;
}
);
layerId = "41C87B6E-BB58-4237-A2FA-B195285FD109";
shapes = (
{
closed = 1;
nodes = (
(472,677,l),
(305,143,l),
(301,143,l),
(152,720,l),
(-25,720,l),
(-25,700,l),
(65,665,l),
(268,-10,l),
(321,-10,l),
(496,556,l)
);
},
{
closed = 1;
nodes = (
(251,720,l),
(150,720,l),
(161,665,l),
(251,700,l)
);
},
{
closed = 1;
nodes = (
(463,648,l),
(495,553,l),
(498,553,l),
(683,-10,l),
(729,-10,l),
(914,665,l),
(999,700,l),
(999,720,l),
(865,720,l),
(713,154,l),
(709,154,l),
(545,720,l),
(482,720,l)
);
},
{
closed = 1;
nodes = (
(765,700,l),
(855,665,l),
(871,720,l),
(765,720,l)
);
}
);
width = 987;
}
);
unicode = 87;
},
{
glyphname = X;
lastChange = "2024-12-28 19:31:45 +0000";
layers = (
{
layerId = "41C87B6E-BB58-4237-A2FA-B195285FD109";
shapes = (
{
closed = 1;
nodes = (
(697,720,l),
(575,720,l),
(575,640,l),
(697,691,l)
);
},
{
closed = 1;
nodes = (
(446,691,l),
(569,640,l),
(589,720,l),
(446,720,l)
);
},
{
closed = 1;
nodes = (
(562,0,l),
(670,0,l),
(173,720,l),
(68,720,l)
);
},
{
closed = 1;
nodes = (
(650,720,l),
(574,720,l),
(57,0,l),
(57,0,o),
(136,0,o),
(136,0,c)
);
},
{
closed = 1;
nodes = (
(296,720,l),
(165,720,l),
(185,640,l),
(296,691,l)
);
},
{
closed = 1;
nodes = (
(22,691,l),
(151,640,l),
(151,720,l),
(22,720,l)
);
},
{
closed = 1;
nodes = (
(432,0,l),
(571,0,l),
(571,80,l),
(432,29,l)
);
},
{
closed = 1;
nodes = (
(714,29,l),
(584,80,l),
(584,0,l),
(714,0,l)
);
},
{
closed = 1;
nodes = (
(7,0,l),
(263,0,l),
(263,29,l),
(144,71,l),
(115,71,l),
(7,29,l)
);
}
);
width = 721;
}
);
unicode = 88;
},
{
glyphname = Y;
lastChange = "2024-12-28 19:31:45 +0000";
layers = (
{
layerId = "41C87B6E-BB58-4237-A2FA-B195285FD109";
shapes = (
{
closed = 1;
nodes = (
(356,311,l),
(266,311,l),
(266,55,l),
(181,20,l),
(181,0,l),
(446,0,l),
(446,20,l),
(356,55,l)
);
},
{
closed = 1;
nodes = (
(218,720,l),
(-25,720,l),
(-25,700,l),
(55,665,l),
(296,220,l),
(325,220,l),
(569,665,l),
(644,700,l),
(644,720,l),
(439,720,l),
(439,700,l),
(505,674,l),
(326,343,l),
(322,343,l),
(154,675,l),
(218,700,l)
);
}
);
width = 619;
}
);
unicode = 89;
},
{
glyphname = Yacute;
lastChange = "2024-12-28 19:31:45 +0000";
layers = (
{
associatedMasterId = "41C87B6E-BB58-4237-A2FA-B195285FD109";
layerId = "58169014-C2AF-4848-951C-D1AF2D5F80B0";
name = img;
width = 619;
},
{
layerId = "41C87B6E-BB58-4237-A2FA-B195285FD109";
shapes = (
{
closed = 1;
nodes = (
(356,311,l),
(266,311,l),
(266,55,l),
(181,20,l),
(181,0,l),
(446,0,l),
(446,20,l),
(356,55,l)
);
},
{
closed = 1;
nodes = (
(218,720,l),
(-25,720,l),
(-25,700,l),
(55,665,l),
(296,220,l),
(325,220,l),
(569,665,l),
(644,700,l),
(644,720,l),
(439,720,l),
(439,700,l),
(505,674,l),
(326,343,l),
(322,343,l),
(154,675,l),
(218,700,l)
);
},
{
closed = 1;
nodes = (
(201,803,l),
(218,774,l),
(414,847,l),
(417,867,l),
(360,917,l)
);
}
);
width = 619;
}
);
unicode = 221;
},
{
glyphname = Z;
lastChange = "2024-12-28 19:31:45 +0000";
layers = (
{
guides = (
{
pos = (0,1317);
}
);
hints = (
{
horizontal = 1;
place = (0,20);
type = Stem;
},
{
horizontal = 1;
place = (334,57);
type = Stem;
},
{
horizontal = 1;
place = (680,20);
type = Stem;
},
{
place = (136,90);
type = Stem;
},
{
place = (540,90);
type = Stem;
}
);
layerId = "41C87B6E-BB58-4237-A2FA-B195285FD109";
shapes = (
{
closed = 1;
nodes = (
(493,720,l),
(54,720,l),
(54,663,l),
(493,663,l)
);
},
{
closed = 1;
nodes = (
(54,711,l),
(54,711,o),
(54,519,o),
(54,519,c),
(54,519,o),
(74,519,o),
(74,519,c),
(137,667,l)
);
},
{
closed = 1;
nodes = (
(92,0,l),
(568,0,l),
(568,57,l),
(92,57,l)
);
},
{
closed = 1;
nodes = (
(568,9,l),
(568,9,o),
(568,201,o),
(568,201,c),
(568,201,o),
(548,201,o),
(548,201,c),
(485,53,l)
);
},
{
closed = 1;
nodes = (
(563,720,l),
(470,720,l),
(470,706,l),
(89,115,l),
(30,44,l),
(40,0,l),
(92,0,l),
(154,0,l),
(154,53,l),
(514,605,l),
(573,676,l)
);
},
{
closed = 1;
nodes = (
(166,720,l),
(162,720,l),
(69,733,l),
(54,720,l),
(54,698,l),
(166,698,l)
);
},
{
closed = 1;
nodes = (
(456,0,l),
(460,0,l),
(553,-13,l),
(568,0,l),
(568,22,l),
(456,22,l)
);
}
);
width = 623;
}
);
unicode = 90;
},
{
glyphname = a;
lastChange = "2024-12-28 19:31:45 +0000";
layers = (
{
anchors = (
{
name = top;
pos = (257,527);
}
);
guides = (
{
pos = (0,-25);
}
);
hints = (
{
horizontal = 1;
place = (-12,54);
type = Stem;
},
{
horizontal = 1;
place = (56,68);
type = Stem;
},
{
horizontal = 1;
place = (256,40);
type = Stem;
},
{
horizontal = 1;
place = (471,41);
type = Stem;
},
{
place = (57,98);
type = Stem;
},
{
place = (103,20);
type = Stem;
},
{
place = (335,28);
type = Stem;
}
);
layerId = "41C87B6E-BB58-4237-A2FA-B195285FD109";
shapes = (
{
closed = 1;
nodes = (
(357,127,l),
(333,78,o),
(276,45,o),
(227,45,cs),
(182,45,o),
(135,65,o),
(135,126,cs),
(135,199,o),
(205,254,o),
(351,256,c),
(351,256,o),
(351,296,o),
(351,296,c),
(226,296,o),
(45,267,o),
(45,116,cs),
(45,49,o),
(86,-12,o),
(186,-12,cs),
(263,-12,o),
(323,27,o),
(361,75,c)
);
},
{
closed = 1;
nodes = (
(425,61,l),
(425,373,ls),
(425,477,o),
(358,512,o),
(257,512,cs),
(210,512,o),
(139,501,o),
(78,479,c),
(78,340,l),
(102,340,l),
(102,340,o),
(154,453,o),
(154,453,c),
(179,459,o),
(212,465,o),
(242,465,cs),
(307,465,o),
(335,436,o),
(335,343,cs),
(335,68,l)
);
},
{
closed = 1;
nodes = (
(515,43,l),
(425,68,l),
(335,78,l),
(335,48,ls),
(335,0,o),
(370,-16,o),
(409,-8,c),
(515,25,l)
);
}
);
width = 530;
}
);
unicode = 97;
},
{
glyphname = aacute;
lastChange = "2024-12-28 19:31:45 +0000";
layers = (
{
associatedMasterId = "41C87B6E-BB58-4237-A2FA-B195285FD109";
layerId = "58169014-C2AF-4848-951C-D1AF2D5F80B0";
name = img;
width = 530;
},
{
layerId = "41C87B6E-BB58-4237-A2FA-B195285FD109";
shapes = (
{
closed = 1;
nodes = (
(357,127,l),
(333,78,o),
(276,45,o),
(227,45,cs),
(182,45,o),
(135,65,o),
(135,126,cs),
(135,199,o),
(205,254,o),
(351,256,c),
(351,256,o),
(351,296,o),
(351,296,c),
(226,296,o),
(45,267,o),
(45,116,cs),
(45,49,o),
(86,-12,o),
(186,-12,cs),
(263,-12,o),
(323,27,o),
(361,75,c)
);
},
{
closed = 1;
nodes = (
(425,61,l),
(425,373,ls),
(425,477,o),
(358,512,o),
(257,512,cs),
(210,512,o),
(139,501,o),
(78,479,c),
(78,340,l),
(102,340,l),
(102,340,o),
(154,453,o),
(154,453,c),
(179,459,o),
(212,465,o),
(242,465,cs),
(307,465,o),
(335,436,o),
(335,343,cs),
(335,68,l)
);
},
{
closed = 1;
nodes = (
(515,43,l),
(425,68,l),
(335,78,l),
(335,48,ls),
(335,0,o),
(370,-16,o),
(409,-8,c),
(515,25,l)
);
},
{
closed = 1;
nodes = (
(219,589,l),
(246,570,l),
(393,718,l),
(387,740,l),
(315,760,l)
);
}
);
width = 530;
}
);
unicode = 225;
},
{
glyphname = acircumflex;
lastChange = "2024-12-28 19:31:45 +0000";
layers = (
{
associatedMasterId = "41C87B6E-BB58-4237-A2FA-B195285FD109";
layerId = "58169014-C2AF-4848-951C-D1AF2D5F80B0";
name = img;
width = 530;
},
{
layerId = "41C87B6E-BB58-4237-A2FA-B195285FD109";
shapes = (
{
closed = 1;
nodes = (
(357,127,l),
(333,78,o),
(276,45,o),
(227,45,cs),
(182,45,o),
(135,65,o),
(135,126,cs),
(135,199,o),
(205,254,o),
(351,256,c),
(351,256,o),
(351,296,o),
(351,296,c),
(226,296,o),
(45,267,o),
(45,116,cs),
(45,49,o),
(86,-12,o),
(186,-12,cs),
(263,-12,o),
(323,27,o),
(361,75,c)
);
},
{
closed = 1;
nodes = (
(425,61,l),
(425,373,ls),
(425,477,o),
(358,512,o),
(257,512,cs),
(210,512,o),
(139,501,o),
(78,479,c),
(78,340,l),
(102,340,l),
(102,340,o),
(154,453,o),
(154,453,c),
(179,459,o),
(212,465,o),
(242,465,cs),
(307,465,o),
(335,436,o),
(335,343,cs),
(335,68,l)
);
},
{
closed = 1;
nodes = (
(515,43,l),
(425,68,l),
(335,78,l),
(335,48,ls),
(335,0,o),
(370,-16,o),
(409,-8,c),
(515,25,l)
);
},
{
closed = 1;
nodes = (
(284,759,l),
(238,759,l),
(119,591,l),
(125,579,l),
(162,569,l),
(259,679,l),
(263,679,l),
(359,569,l),
(399,579,l),
(405,590,l)
);
}
);
width = 530;
}
);
unicode = 226;
},
{
glyphname = adieresis;
lastChange = "2024-12-28 19:31:45 +0000";
layers = (
{
associatedMasterId = "41C87B6E-BB58-4237-A2FA-B195285FD109";
layerId = "58169014-C2AF-4848-951C-D1AF2D5F80B0";
name = img;
width = 530;
},
{
layerId = "41C87B6E-BB58-4237-A2FA-B195285FD109";
shapes = (
{
closed = 1;
nodes = (
(357,127,l),
(333,78,o),
(276,45,o),
(227,45,cs),
(182,45,o),
(135,65,o),
(135,126,cs),
(135,199,o),
(205,254,o),
(351,256,c),
(351,256,o),
(351,296,o),
(351,296,c),
(226,296,o),
(45,267,o),
(45,116,cs),
(45,49,o),
(86,-12,o),
(186,-12,cs),
(263,-12,o),
(323,27,o),
(361,75,c)
);
},
{
closed = 1;
nodes = (
(425,61,l),
(425,373,ls),
(425,477,o),
(358,512,o),
(257,512,cs),
(210,512,o),
(139,501,o),
(78,479,c),
(78,340,l),
(102,340,l),
(102,340,o),
(154,453,o),
(154,453,c),
(179,459,o),
(212,465,o),
(242,465,cs),
(307,465,o),
(335,436,o),
(335,343,cs),
(335,68,l)
);
},
{
closed = 1;
nodes = (
(515,43,l),
(425,68,l),
(335,78,l),
(335,48,ls),
(335,0,o),
(370,-16,o),
(409,-8,c),
(515,25,l)
);
},
{
closed = 1;
nodes = (
(112,623,o),
(137,598,o),
(169,598,cs),
(201,598,o),
(224,623,o),
(224,655,cs),
(224,685,o),
(201,710,o),
(169,710,cs),
(137,710,o),
(112,685,o),
(112,655,cs)
);
},
{
closed = 1;
nodes = (
(279,623,o),
(303,598,o),
(335,598,cs),
(367,598,o),
(391,623,o),
(391,655,cs),
(391,685,o),
(367,710,o),
(335,710,cs),
(303,710,o),
(279,685,o),
(279,655,cs)
);
}
);
width = 530;
}
);
unicode = 228;
},
{
glyphname = agrave;
lastChange = "2024-12-28 19:31:45 +0000";
layers = (
{
associatedMasterId = "41C87B6E-BB58-4237-A2FA-B195285FD109";
layerId = "58169014-C2AF-4848-951C-D1AF2D5F80B0";
name = img;
width = 530;
},
{
layerId = "41C87B6E-BB58-4237-A2FA-B195285FD109";
shapes = (
{
closed = 1;
nodes = (
(357,127,l),
(333,78,o),
(276,45,o),
(227,45,cs),
(182,45,o),
(135,65,o),
(135,126,cs),
(135,199,o),
(205,254,o),
(351,256,c),
(351,256,o),
(351,296,o),
(351,296,c),
(226,296,o),
(45,267,o),
(45,116,cs),
(45,49,o),
(86,-12,o),
(186,-12,cs),
(263,-12,o),
(323,27,o),
(361,75,c)
);
},
{
closed = 1;
nodes = (
(425,61,l),
(425,373,ls),
(425,477,o),
(358,512,o),
(257,512,cs),
(210,512,o),
(139,501,o),
(78,479,c),
(78,340,l),
(102,340,l),
(102,340,o),
(154,453,o),
(154,453,c),
(179,459,o),
(212,465,o),
(242,465,cs),
(307,465,o),
(335,436,o),
(335,343,cs),
(335,68,l)
);
},
{
closed = 1;
nodes = (
(515,43,l),
(425,68,l),
(335,78,l),
(335,48,ls),
(335,0,o),
(370,-16,o),
(409,-8,c),
(515,25,l)
);
},
{
closed = 1;
nodes = (
(192,760,l),
(120,738,l),
(114,718,l),
(261,570,l),
(288,589,l)
);
}
);
width = 530;
}
);
unicode = 224;
},
{
glyphname = aring;
lastChange = "2024-12-28 19:31:45 +0000";
layers = (
{
associatedMasterId = "41C87B6E-BB58-4237-A2FA-B195285FD109";
layerId = "58169014-C2AF-4848-951C-D1AF2D5F80B0";
name = img;
width = 530;
},
{
layerId = "41C87B6E-BB58-4237-A2FA-B195285FD109";
shapes = (
{
closed = 1;
nodes = (
(357,127,l),
(333,78,o),
(276,45,o),
(227,45,cs),
(182,45,o),
(135,65,o),
(135,126,cs),
(135,199,o),
(205,254,o),
(351,256,c),
(351,256,o),
(351,296,o),
(351,296,c),
(226,296,o),
(45,267,o),
(45,116,cs),
(45,49,o),
(86,-12,o),
(186,-12,cs),
(263,-12,o),
(323,27,o),
(361,75,c)
);
},
{
closed = 1;
nodes = (
(425,61,l),
(425,373,ls),
(425,477,o),
(358,512,o),
(257,512,cs),
(210,512,o),
(139,501,o),
(78,479,c),
(78,340,l),
(102,340,l),
(102,340,o),
(154,453,o),
(154,453,c),
(179,459,o),
(212,465,o),
(242,465,cs),
(307,465,o),
(335,436,o),
(335,343,cs),
(335,68,l)
);
},
{
closed = 1;
nodes = (
(515,43,l),
(425,68,l),
(335,78,l),
(335,48,ls),
(335,0,o),
(370,-16,o),
(409,-8,c),
(515,25,l)
);
},
{
closed = 1;
nodes = (
(156,622,o),
(203,575,o),
(259,575,cs),
(315,575,o),
(362,622,o),
(362,679,cs),
(362,735,o),
(315,782,o),
(259,782,cs),
(203,782,o),
(156,735,o),
(156,679,cs)
);
},
{
closed = 1;
nodes = (
(228,624,o),
(204,648,o),
(204,678,cs),
(204,708,o),
(228,732,o),
(258,732,cs),
(289,732,o),
(313,708,o),
(313,678,cs),
(313,648,o),
(289,624,o),
(258,624,cs)
);
}
);
width = 530;
}
);
unicode = 229;
},
{
glyphname = atilde;
lastChange = "2024-12-28 19:31:45 +0000";
layers = (
{
associatedMasterId = "41C87B6E-BB58-4237-A2FA-B195285FD109";
layerId = "58169014-C2AF-4848-951C-D1AF2D5F80B0";
name = img;
width = 530;
},
{
layerId = "41C87B6E-BB58-4237-A2FA-B195285FD109";
shapes = (
{
closed = 1;
nodes = (
(357,127,l),
(333,78,o),
(276,45,o),
(227,45,cs),
(182,45,o),
(135,65,o),
(135,126,cs),
(135,199,o),
(205,254,o),
(351,256,c),
(351,256,o),
(351,296,o),
(351,296,c),
(226,296,o),
(45,267,o),
(45,116,cs),
(45,49,o),
(86,-12,o),
(186,-12,cs),
(263,-12,o),
(323,27,o),
(361,75,c)
);
},
{
closed = 1;
nodes = (
(425,61,l),
(425,373,ls),
(425,477,o),
(358,512,o),
(257,512,cs),
(210,512,o),
(139,501,o),
(78,479,c),
(78,340,l),
(102,340,l),
(102,340,o),
(154,453,o),
(154,453,c),
(179,459,o),
(212,465,o),
(242,465,cs),
(307,465,o),
(335,436,o),
(335,343,cs),
(335,68,l)
);
},
{
closed = 1;
nodes = (
(515,43,l),
(425,68,l),
(335,78,l),
(335,48,ls),
(335,0,o),
(370,-16,o),
(409,-8,c),
(515,25,l)
);
},
{
closed = 1;
nodes = (
(285,653,o),
(246,703,o),
(194,693,c),
(142,684,o),
(92,599,o),
(92,599,c),
(113,578,l),
(143,607,o),
(161,620,o),
(188,625,cs),
(229,632,o),
(281,584,o),
(332,594,cs),
(392,605,o),
(436,690,o),
(436,690,c),
(415,708,l),
(390,680,o),
(362,667,o),
(339,663,c)
);
}
);
width = 530;
}
);
unicode = 227;
},
{
glyphname = ae;
lastChange = "2024-12-28 19:31:45 +0000";
layers = (
{
associatedMasterId = "41C87B6E-BB58-4237-A2FA-B195285FD109";
layerId = "58169014-C2AF-4848-951C-D1AF2D5F80B0";
name = img;
width = 801;
},
{
hints = (
{
horizontal = 1;
place = (-12,54);
type = Stem;
},
{
horizontal = 1;
place = (56,68);
type = Stem;
},
{
horizontal = 1;
place = (256,40);
type = Stem;
},
{
horizontal = 1;
place = (471,41);
type = Stem;
},
{
horizontal = 1;
place = (-12,66);
type = Stem;
},
{
horizontal = 1;
place = (247,52);
type = Stem;
},
{
horizontal = 1;
place = (470,42);
type = Stem;
},
{
place = (57,98);
type = Stem;
},
{
place = (103,20);
type = Stem;
},
{
place = (335,28);
type = Stem;
},
{
place = (405,38);
type = Stem;
},
{
place = (678,95);
type = Stem;
}
);
layerId = "41C87B6E-BB58-4237-A2FA-B195285FD109";
shapes = (
{
closed = 1;
nodes = (
(436,380,o),
(481,465,o),
(569,465,cs),
(635,465,o),
(671,402,o),
(671,299,c),
(398,299,l),
(398,247,l),
(752,247,l),
(766,261,l),
(766,433,o),
(675,512,o),
(567,512,cs),
(482,512,o),
(335,426,o),
(335,250,cs),
(335,94,o),
(444,-12,o),
(566,-12,cs),
(628,-12,o),
(682,-3,o),
(741,49,c),
(726,78,l),
(687,55,o),
(654,44,o),
(617,44,cs),
(523,44,o),
(436,98,o),
(436,254,cs)
);
},
{
closed = 1;
nodes = (
(425,357,l),
(425,437,o),
(358,512,o),
(257,512,cs),
(210,512,o),
(139,501,o),
(78,479,c),
(78,340,l),
(102,340,l),
(154,453,l),
(179,459,o),
(212,465,o),
(242,465,cs),
(307,465,o),
(335,436,o),
(335,343,cs),
(335,296,l),
(211,293,o),
(45,260,o),
(45,116,cs),
(45,49,o),
(86,-12,o),
(186,-12,cs),
(323,-12,o),
(425,56,o),
(425,206,cs)
);
},
{
closed = 1;
nodes = (
(182,42,o),
(142,65,o),
(142,126,cs),
(142,196,o),
(190,250,o),
(335,256,c),
(335,187,ls),
(335,99,o),
(292,42,o),
(227,42,cs)
);
}
);
width = 801;
}
);
unicode = 230;
},
{
glyphname = b;
lastChange = "2024-12-28 19:31:45 +0000";
layers = (
{
layerId = "41C87B6E-BB58-4237-A2FA-B195285FD109";
shapes = (
{
closed = 1;
nodes = (
(5,707,l),
(95,672,l),
(185,672,l),
(185,752,l),
(175,762,l),
(5,727,l)
);
},
{
closed = 1;
nodes = (
(95,55,l),
(149,10,o),
(216,-12,o),
(280,-12,cs),
(410,-12,o),
(531,78,o),
(531,250,cs),
(531,413,o),
(426,512,o),
(318,512,cs),
(249,512,o),
(171,487,o),
(135,398,c),
(158,371,l),
(182,429,o),
(227,462,o),
(282,462,cs),
(372,462,o),
(429,373,o),
(429,250,cs),
(429,141,o),
(380,38,o),
(285,38,cs),
(256,38,o),
(221,43,o),
(185,84,c),
(185,712,l),
(95,672,l)
);
},
{
closed = 1;
nodes = (
(125,-22,l),
(190,68,l),
(95,68,l),
(95,-22,l)
);
}
);
width = 576;
}
);
unicode = 98;
},
{
glyphname = c;
lastChange = "2024-12-28 19:31:45 +0000";
layers = (
{
hints = (
{
horizontal = 1;
place = (-12,66);
type = Stem;
},
{
horizontal = 1;
place = (464,48);
type = Stem;
},
{
place = (44,102);
type = Stem;
},
{
place = (413,20);
type = Stem;
}
);
layerId = "41C87B6E-BB58-4237-A2FA-B195285FD109";
shapes = (
{
closed = 1;
nodes = (
(338,-12,o),
(389,-2,o),
(451,47,c),
(436,78,l),
(392,53,o),
(366,44,o),
(327,44,cs),
(217,44,o),
(146,115,o),
(146,250,cs),
(146,385,o),
(191,468,o),
(296,468,cs),
(313,468,o),
(333,466,o),
(354,461,c),
(408,330,l),
(428,330,l),
(428,481,l),
(381,503,o),
(333,513,o),
(287,513,cs),
(155,513,o),
(45,423,o),
(45,250,cs),
(45,91,o),
(154,-12,o),
(276,-12,cs)
);
}
);
width = 491;
}
);
unicode = 99;
},
{
glyphname = ccedilla;
lastChange = "2024-12-28 19:31:45 +0000";
layers = (
{
associatedMasterId = "41C87B6E-BB58-4237-A2FA-B195285FD109";
layerId = "58169014-C2AF-4848-951C-D1AF2D5F80B0";
name = img;
width = 486;
},
{
layerId = "41C87B6E-BB58-4237-A2FA-B195285FD109";
shapes = (
{
closed = 1;
nodes = (
(338,-12,o),
(389,-2,o),
(451,47,c),
(436,78,l),
(392,53,o),
(366,44,o),
(327,44,cs),
(217,44,o),
(146,115,o),
(146,250,cs),
(146,385,o),
(191,468,o),
(296,468,cs),
(313,468,o),
(333,466,o),
(354,461,c),
(408,330,l),
(428,330,l),
(428,481,l),
(381,503,o),
(333,513,o),
(287,513,cs),
(155,513,o),
(45,423,o),
(45,250,cs),
(45,91,o),
(154,-12,o),
(276,-12,cs)
);
},
{
closed = 1;
nodes = (
(211,0,l),
(196,-62,l),
(239,-69,o),
(267,-89,o),
(267,-133,cs),
(267,-186,o),
(224,-198,o),
(183,-198,cs),
(167,-198,o),
(152,-196,o),
(139,-194,c),
(139,-231,l),
(162,-237,o),
(187,-240,o),
(212,-240,cs),
(281,-240,o),
(346,-213,o),
(346,-132,cs),
(346,-83,o),
(307,-43,o),
(236,-40,c),
(246,0,l)
);
}
);
width = 486;
}
);
unicode = 231;
},
{
glyphname = d;
lastChange = "2024-12-28 19:31:45 +0000";
layers = (
{
layerId = "41C87B6E-BB58-4237-A2FA-B195285FD109";
shapes = (
{
closed = 1;
nodes = (
(391,98,l),
(365,63,o),
(328,40,o),
(287,40,cs),
(197,40,o),
(147,127,o),
(147,250,cs),
(147,369,o),
(213,462,o),
(305,462,cs),
(332,462,o),
(360,454,o),
(391,437,c),
(391,495,l),
(358,506,o),
(326,511,o),
(295,511,cs),
(157,511,o),
(45,408,o),
(45,250,cs),
(45,87,o),
(145,-12,o),
(253,-12,cs),
(300,-12,o),
(351,6,o),
(391,45,c)
);
},
{
closed = 1;
nodes = (
(481,750,l),
(391,730,l),
(391,78,l),
(481,68,l)
);
},
{
closed = 1;
nodes = (
(571,43,l),
(481,68,l),
(391,78,l),
(391,-2,l),
(401,-12,l),
(571,25,l)
);
},
{
closed = 1;
nodes = (
(301,707,l),
(391,672,l),
(481,672,l),
(481,752,l),
(471,762,l),
(301,727,l)
);
}
);
width = 601;
}
);
unicode = 100;
},
{
glyphname = eth;
lastChange = "2024-12-28 19:31:45 +0000";
layers = (
{
associatedMasterId = "41C87B6E-BB58-4237-A2FA-B195285FD109";
layerId = "58169014-C2AF-4848-951C-D1AF2D5F80B0";
name = img;
width = 582;
},
{
hints = (
{
horizontal = 1;
place = (-12,42);
type = Stem;
},
{
horizontal = 1;
place = (470,42);
type = Stem;
},
{
place = (46,102);
type = Stem;
},
{
place = (422,102);
type = Stem;
}
);
layerId = "41C87B6E-BB58-4237-A2FA-B195285FD109";
shapes = (
{
closed = 1;
nodes = (
(432,124,o),
(413,23,o),
(292,23,cs),
(229,23,o),
(172,86,o),
(172,242,cs),
(172,370,o),
(222,417,o),
(305,417,cs),
(353,417,o),
(394,406,o),
(442,359,c),
(457,400,l),
(413,444,o),
(360,471,o),
(299,471,cs),
(150,471,o),
(76,365,o),
(76,230,cs),
(76,90,o),
(158,-23,o),
(288,-23,cs),
(457,-23,o),
(527,90,o),
(527,247,cs),
(527,497,o),
(381,656,o),
(169,728,c),
(137,704,l),
(360,606,o),
(432,430,o),
(432,229,cs)
);
},
{
closed = 1;
nodes = (
(205,582,l),
(330,718,l),
(295,745,l),
(169,609,l)
);
}
);
width = 582;
}
);
unicode = 240;
},
{
glyphname = e;
lastChange = "2024-12-28 19:31:45 +0000";
layers = (
{
anchors = (
{
name = top;
pos = (277,527);
}
);
hints = (
{
horizontal = 1;
place = (-12,66);
type = Stem;
},
{
horizontal = 1;
place = (247,52);
type = Stem;
},
{
horizontal = 1;
place = (470,42);
type = Stem;
},
{
place = (108,38);
type = Stem;
},
{
place = (381,95);
type = Stem;
}
);
layerId = "41C87B6E-BB58-4237-A2FA-B195285FD109";
shapes = (
{
closed = 1;
nodes = (
(146,380,o),
(191,465,o),
(279,465,cs),
(345,465,o),
(381,402,o),
(381,299,c),
(108,299,l),
(108,247,l),
(462,247,l),
(476,261,l),
(476,433,o),
(385,512,o),
(277,512,cs),
(170,512,o),
(45,437,o),
(45,250,cs),
(45,94,o),
(154,-12,o),
(276,-12,cs),
(338,-12,o),
(392,-3,o),
(451,49,c),
(436,78,l),
(397,55,o),
(364,44,o),
(327,44,cs),
(233,44,o),
(146,98,o),
(146,254,cs)
);
}
);
width = 516;
}
);
unicode = 101;
},
{
glyphname = eacute;
lastChange = "2024-12-28 19:31:45 +0000";
layers = (
{
associatedMasterId = "41C87B6E-BB58-4237-A2FA-B195285FD109";
layerId = "58169014-C2AF-4848-951C-D1AF2D5F80B0";
name = img;
width = 511;
},
{
layerId = "41C87B6E-BB58-4237-A2FA-B195285FD109";
shapes = (
{
closed = 1;
nodes = (
(146,380,o),
(191,465,o),
(279,465,cs),
(345,465,o),
(381,402,o),
(381,299,c),
(108,299,l),
(108,247,l),
(462,247,l),
(476,261,l),
(476,433,o),
(385,512,o),
(277,512,cs),
(170,512,o),
(45,437,o),
(45,250,cs),
(45,94,o),
(154,-12,o),
(276,-12,cs),
(338,-12,o),
(392,-3,o),
(451,49,c),
(436,78,l),
(397,55,o),
(364,44,o),
(327,44,cs),
(233,44,o),
(146,98,o),
(146,254,cs)
);
},
{
closed = 1;
nodes = (
(239,589,l),
(266,570,l),
(413,718,l),
(407,740,l),
(335,760,l)
);
}
);
width = 511;
}
);
unicode = 233;
},
{
glyphname = ecircumflex;
lastChange = "2024-12-28 19:31:45 +0000";
layers = (
{
associatedMasterId = "41C87B6E-BB58-4237-A2FA-B195285FD109";
layerId = "58169014-C2AF-4848-951C-D1AF2D5F80B0";
name = img;
width = 511;
},
{
layerId = "41C87B6E-BB58-4237-A2FA-B195285FD109";
shapes = (
{
closed = 1;
nodes = (
(146,380,o),
(191,465,o),
(279,465,cs),
(345,465,o),
(381,402,o),
(381,299,c),
(108,299,l),
(108,247,l),
(462,247,l),
(476,261,l),
(476,433,o),
(385,512,o),
(277,512,cs),
(170,512,o),
(45,437,o),
(45,250,cs),
(45,94,o),
(154,-12,o),
(276,-12,cs),
(338,-12,o),
(392,-3,o),
(451,49,c),
(436,78,l),
(397,55,o),
(364,44,o),
(327,44,cs),
(233,44,o),
(146,98,o),
(146,254,cs)
);
},
{
closed = 1;
nodes = (
(304,759,l),
(258,759,l),
(139,591,l),
(145,579,l),
(182,569,l),
(279,679,l),
(283,679,l),
(379,569,l),
(419,579,l),
(425,590,l)
);
}
);
width = 511;
}
);
unicode = 234;
},
{
glyphname = edieresis;
lastChange = "2024-12-28 19:31:45 +0000";
layers = (
{
associatedMasterId = "41C87B6E-BB58-4237-A2FA-B195285FD109";
layerId = "58169014-C2AF-4848-951C-D1AF2D5F80B0";
name = img;
width = 511;
},
{
layerId = "41C87B6E-BB58-4237-A2FA-B195285FD109";
shapes = (
{
closed = 1;
nodes = (
(146,380,o),
(191,465,o),
(279,465,cs),
(345,465,o),
(381,402,o),
(381,299,c),
(108,299,l),
(108,247,l),
(462,247,l),
(476,261,l),
(476,433,o),
(385,512,o),
(277,512,cs),
(170,512,o),
(45,437,o),
(45,250,cs),
(45,94,o),
(154,-12,o),
(276,-12,cs),
(338,-12,o),
(392,-3,o),
(451,49,c),
(436,78,l),
(397,55,o),
(364,44,o),
(327,44,cs),
(233,44,o),
(146,98,o),
(146,254,cs)
);
},
{
closed = 1;
nodes = (
(132,623,o),
(157,598,o),
(189,598,cs),
(221,598,o),
(244,623,o),
(244,655,cs),
(244,685,o),
(221,710,o),
(189,710,cs),
(157,710,o),
(132,685,o),
(132,655,cs)
);
},
{
closed = 1;
nodes = (
(299,623,o),
(323,598,o),
(355,598,cs),
(387,598,o),
(411,623,o),
(411,655,cs),
(411,685,o),
(387,710,o),
(355,710,cs),
(323,710,o),
(299,685,o),
(299,655,cs)
);
}
);
width = 511;
}
);
unicode = 235;
},
{
glyphname = egrave;
lastChange = "2024-12-28 19:31:45 +0000";
layers = (
{
associatedMasterId = "41C87B6E-BB58-4237-A2FA-B195285FD109";
layerId = "58169014-C2AF-4848-951C-D1AF2D5F80B0";
name = img;
width = 511;
},
{
layerId = "41C87B6E-BB58-4237-A2FA-B195285FD109";
shapes = (
{
closed = 1;
nodes = (
(146,380,o),
(191,465,o),
(279,465,cs),
(345,465,o),
(381,402,o),
(381,299,c),
(108,299,l),
(108,247,l),
(462,247,l),
(476,261,l),
(476,433,o),
(385,512,o),
(277,512,cs),
(170,512,o),
(45,437,o),
(45,250,cs),
(45,94,o),
(154,-12,o),
(276,-12,cs),
(338,-12,o),
(392,-3,o),
(451,49,c),
(436,78,l),
(397,55,o),
(364,44,o),
(327,44,cs),
(233,44,o),
(146,98,o),
(146,254,cs)
);
},
{
closed = 1;
nodes = (
(212,760,l),
(140,738,l),
(134,718,l),
(281,570,l),
(308,589,l)
);
}
);
width = 511;
}
);
unicode = 232;
},
{
glyphname = f;
lastChange = "2024-12-28 19:31:45 +0000";
layers = (
{
hints = (
{
horizontal = 1;
place = (0,20);
type = Stem;
},
{
horizontal = 1;
place = (422,50);
type = Stem;
},
{
horizontal = 1;
place = (717,45);
type = Stem;
},
{
place = (40,90);
type = Stem;
},
{
place = (130,90);
type = Stem;
},
{
place = (220,115);
type = Stem;
},
{
place = (220,150);
type = Stem;
},
{
place = (408,20);
type = Stem;
}
);
layerId = "41C87B6E-BB58-4237-A2FA-B195285FD109";
shapes = (
{
closed = 1;
nodes = (
(345,20,l),
(220,55,l),
(220,0,l),
(345,0,l)
);
},
{
closed = 1;
nodes = (
(40,0,l),
(130,0,l),
(130,55,l),
(40,20,l)
);
},
{
closed = 1;
nodes = (
(220,557,ls),
(220,648,o),
(251,717,o),
(339,717,c),
(339,717,o),
(408,600,o),
(408,600,c),
(428,600,l),
(428,749,l),
(409,757,o),
(367,762,o),
(349,762,cs),
(238,762,o),
(130,691,o),
(130,547,cs),
(130,0,l),
(220,0,l)
);
},
{
closed = 1;
nodes = (
(220,432,l),
(375,462,l),
(375,491,l),
(358,497,l),
(220,497,l)
);
},
{
closed = 1;
nodes = (
(35,457,l),
(134,429,l),
(134,498,l),
(35,477,l)
);
}
);
width = 393;
}
);
unicode = 102;
},
{
glyphname = g;
lastChange = "2024-12-28 19:31:45 +0000";
layers = (
{
hints = (
{
horizontal = 1;
place = (-262,50);
type = Stem;
},
{
horizontal = 1;
place = (-38,86);
type = Stem;
},
{
horizontal = 1;
place = (136,50);
type = Stem;
},
{
horizontal = 1;
place = (462,50);
type = Stem;
},
{
horizontal = 1;
place = (480,32);
type = Stem;
},
{
place = (40,99);
type = Stem;
},
{
place = (73,102);
type = Stem;
},
{
place = (85,77);
type = Stem;
},
{
place = (395,102);
type = Stem;
},
{
place = (419,102);
type = Stem;
}
);
layerId = "41C87B6E-BB58-4237-A2FA-B195285FD109";
shapes = (
{
closed = 1;
nodes = (
(210,189,l),
(137,166,o),
(85,124,o),
(85,65,cs),
(85,-85,o),
(436,30,o),
(436,-132,cs),
(436,-184,o),
(360,-212,o),
(290,-212,cs),
(225,-212,o),
(139,-190,o),
(139,-112,cs),
(139,-48,o),
(173,-25,o),
(203,-11,c),
(192,7,l),
(94,-14,o),
(50,-67,o),
(50,-131,cs),
(50,-207,o),
(130,-262,o),
(273,-262,cs),
(394,-262,o),
(538,-219,o),
(538,-102,cs),
(538,104,o),
(162,9,o),
(162,100,cs),
(162,131,o),
(187,152,o),
(219,168,c)
);
},
{
closed = 1;
nodes = (
(175,414,o),
(217,462,o),
(285,462,cs),
(352,462,o),
(395,414,o),
(395,324,cs),
(395,234,o),
(352,186,o),
(285,186,cs),
(217,186,o),
(175,234,o),
(175,324,cs)
);
},
{
closed = 1;
nodes = (
(421,136,o),
(497,230,o),
(497,324,cs),
(497,418,o),
(421,512,o),
(285,512,cs),
(149,512,o),
(73,418,o),
(73,324,cs),
(73,230,o),
(149,136,o),
(285,136,cs)
);
},
{
closed = 1;
nodes = (
(560,500,l),
(354,500,l),
(354,468,l),
(403,424,l),
(560,480,l)
);
}
);
width = 575;
}
);
unicode = 103;
},
{
glyphname = h;
lastChange = "2024-12-28 19:31:45 +0000";
layers = (
{
layerId = "41C87B6E-BB58-4237-A2FA-B195285FD109";
shapes = (
{
closed = 1;
nodes = (
(120,0,l),
(210,0,l),
(210,672,l),
(120,672,l)
);
},
{
closed = 1;
nodes = (
(30,0,l,{
name = .hr01;
}),
(120,0,l),
(120,55,l),
(30,20,l)
);
},
{
closed = 1;
nodes = (
(359,0,l),
(444,0,l),
(444,55,l),
(359,20,l)
);
},
{
closed = 1;
nodes = (
(295,20,l),
(210,55,l),
(210,0,l),
(295,0,l)
);
},
{
closed = 1;
nodes = (
(624,20,l),
(534,55,l),
(534,0,l),
(624,0,l)
);
},
{
closed = 1;
nodes = (
(30,707,l),
(120,672,l),
(210,672,l),
(210,752,l),
(200,762,l),
(30,727,l)
);
},
{
closed = 1;
nodes = (
(534,353,ls),
(534,465,o),
(463,512,o),
(382,512,cs),
(299,512,o),
(205,463,o),
(166,385,c),
(183,376,l),
(220,427,o),
(280,448,o),
(333,448,cs),
(413,448,o),
(444,418,o),
(444,323,cs),
(444,0,l),
(534,0,l)
);
}
);
width = 639;
}
);
unicode = 104;
},
{
glyphname = i;
lastChange = "2024-12-28 19:31:45 +0000";
layers = (
{
hints = (
{
horizontal = 1;
place = (0,20);
type = Stem;
},
{
horizontal = 1;
place = (422,80);
type = Stem;
},
{
horizontal = 1;
place = (512,-20);
target = down;
type = TopGhost;
},
{
horizontal = 1;
place = (597,123);
type = Stem;
},
{
place = (40,90);
type = Stem;
},
{
place = (97,123);
type = Stem;
},
{
place = (130,90);
type = Stem;
},
{
place = (220,90);
type = Stem;
}
);
layerId = "41C87B6E-BB58-4237-A2FA-B195285FD109";
shapes = (
{
closed = 1;
nodes = (
(130,0,l,{
name = .hr01;
}),
(220,0,l,{
name = .hr02;
}),
(220,422,l,{
name = .hr03;
}),
(130,422,l)
);
},
{
closed = 1;
nodes = (
(40,0,l),
(130,0,l),
(130,55,l),
(40,20,l)
);
},
{
closed = 1;
nodes = (
(40,457,l,{
name = .hr04;
}),
(130,422,l,{
name = .hr05;
}),
(220,422,l,{
name = .hr06;
}),
(220,502,l),
(210,512,l),
(40,477,l,{
name = .hr07;
})
);
},
{
closed = 1;
nodes = (
(310,20,l),
(220,55,l),
(220,0,l),
(310,0,l)
);
},
{
closed = 1;
nodes = (
(97,624,o),
(124,597,o),
(159,597,cs),
(193,597,o),
(220,624,o),
(220,659,cs),
(220,693,o),
(193,720,o),
(159,720,cs),
(124,720,o),
(97,693,o),
(97,659,cs,{
name = .hr08;
})
);
}
);
width = 340;
}
);
unicode = 105;
},
{
glyphname = idotless;
lastChange = "2024-12-28 19:31:45 +0000";
layers = (
{
associatedMasterId = "41C87B6E-BB58-4237-A2FA-B195285FD109";
layerId = "58169014-C2AF-4848-951C-D1AF2D5F80B0";
name = img;
width = 340;
},
{
layerId = "41C87B6E-BB58-4237-A2FA-B195285FD109";
shapes = (
{
closed = 1;
nodes = (
(130,0,l),
(220,0,l),
(220,422,l),
(130,422,l)
);
},
{
closed = 1;
nodes = (
(40,0,l),
(130,0,l),
(130,55,l),
(40,20,l)
);
},
{
closed = 1;
nodes = (
(40,457,l),
(130,422,l),
(220,422,l),
(220,502,l),
(210,512,l),
(40,477,l)
);
},
{
closed = 1;
nodes = (
(310,20,l),
(220,55,l),
(220,0,l),
(310,0,l)
);
}
);
width = 340;
}
);
unicode = 305;
},
{
glyphname = iacute;
lastChange = "2024-12-28 19:31:45 +0000";
layers = (
{
associatedMasterId = "41C87B6E-BB58-4237-A2FA-B195285FD109";
layerId = "58169014-C2AF-4848-951C-D1AF2D5F80B0";
name = img;
width = 340;
},
{
layerId = "41C87B6E-BB58-4237-A2FA-B195285FD109";
shapes = (
{
closed = 1;
nodes = (
(130,0,l),
(220,0,l),
(220,422,l),
(130,422,l)
);
},
{
closed = 1;
nodes = (
(40,0,l),
(130,0,l),
(130,55,l),
(40,20,l)
);
},
{
closed = 1;
nodes = (
(40,457,l),
(130,422,l),
(220,422,l),
(220,502,l),
(210,512,l),
(40,477,l)
);
},
{
closed = 1;
nodes = (
(310,20,l),
(220,55,l),
(220,0,l),
(310,0,l)
);
},
{
closed = 1;
nodes = (
(123,589,l),
(150,570,l),
(297,718,l),
(291,740,l),
(219,760,l)
);
}
);
width = 340;
}
);
unicode = 237;
},
{
glyphname = icircumflex;
lastChange = "2024-12-28 19:31:45 +0000";
layers = (
{
associatedMasterId = "41C87B6E-BB58-4237-A2FA-B195285FD109";
layerId = "58169014-C2AF-4848-951C-D1AF2D5F80B0";
name = img;
width = 357;
},
{
layerId = "41C87B6E-BB58-4237-A2FA-B195285FD109";
shapes = (
{
closed = 1;
nodes = (
(147,0,l),
(237,0,l),
(237,422,l),
(147,422,l)
);
},
{
closed = 1;
nodes = (
(57,0,l),
(147,0,l),
(147,55,l),
(57,20,l)
);
},
{
closed = 1;
nodes = (
(57,457,l),
(147,422,l),
(237,422,l),
(237,502,l),
(227,512,l),
(57,477,l)
);
},
{
closed = 1;
nodes = (
(327,20,l),
(237,55,l),
(237,0,l),
(327,0,l)
);
},
{
closed = 1;
nodes = (
(205,759,l),
(159,759,l),
(40,591,l),
(46,579,l),
(83,569,l),
(180,679,l),
(184,679,l),
(280,569,l),
(320,579,l),
(326,590,l)
);
}
);
width = 357;
}
);
unicode = 238;
},
{
glyphname = idieresis;
lastChange = "2024-12-28 19:31:45 +0000";
layers = (
{
associatedMasterId = "41C87B6E-BB58-4237-A2FA-B195285FD109";
layerId = "58169014-C2AF-4848-951C-D1AF2D5F80B0";
name = img;
width = 364;
},
{
layerId = "41C87B6E-BB58-4237-A2FA-B195285FD109";
shapes = (
{
closed = 1;
nodes = (
(154,0,l),
(244,0,l),
(244,422,l),
(154,422,l)
);
},
{
closed = 1;
nodes = (
(64,0,l),
(154,0,l),
(154,55,l),
(64,20,l)
);
},
{
closed = 1;
nodes = (
(64,457,l),
(154,422,l),
(244,422,l),
(244,502,l),
(234,512,l),
(64,477,l)
);
},
{
closed = 1;
nodes = (
(334,20,l),
(244,55,l),
(244,0,l),
(334,0,l)
);
},
{
closed = 1;
nodes = (
(40,623,o),
(65,598,o),
(97,598,cs),
(129,598,o),
(152,623,o),
(152,655,cs),
(152,685,o),
(129,710,o),
(97,710,cs),
(65,710,o),
(40,685,o),
(40,655,cs)
);
},
{
closed = 1;
nodes = (
(207,623,o),
(231,598,o),
(263,598,cs),
(295,598,o),
(319,623,o),
(319,655,cs),
(319,685,o),
(295,710,o),
(263,710,cs),
(231,710,o),
(207,685,o),
(207,655,cs)
);
}
);
width = 364;
}
);
unicode = 239;
},
{
glyphname = igrave;
lastChange = "2024-12-28 19:31:45 +0000";
layers = (
{
associatedMasterId = "41C87B6E-BB58-4237-A2FA-B195285FD109";
layerId = "58169014-C2AF-4848-951C-D1AF2D5F80B0";
name = img;
width = 362;
},
{
layerId = "41C87B6E-BB58-4237-A2FA-B195285FD109";
shapes = (
{
closed = 1;
nodes = (
(152,0,l),
(242,0,l),
(242,422,l),
(152,422,l)
);
},
{
closed = 1;
nodes = (
(62,0,l),
(152,0,l),
(152,55,l),
(62,20,l)
);
},
{
closed = 1;
nodes = (
(62,457,l),
(152,422,l),
(242,422,l),
(242,502,l),
(232,512,l),
(62,477,l)
);
},
{
closed = 1;
nodes = (
(332,20,l),
(242,55,l),
(242,0,l),
(332,0,l)
);
},
{
closed = 1;
nodes = (
(118,760,l),
(46,738,l),
(40,718,l),
(187,570,l),
(214,589,l)
);
}
);
width = 362;
}
);
unicode = 236;
},
{
glyphname = j;
lastChange = "2024-12-28 19:31:45 +0000";
layers = (
{
hints = (
{
horizontal = 1;
place = (-239,21);
target = up;
type = BottomGhost;
},
{
horizontal = 1;
place = (422,80);
type = Stem;
},
{
horizontal = 1;
place = (512,-20);
target = down;
type = TopGhost;
},
{
horizontal = 1;
place = (597,123);
type = Stem;
},
{
place = (94,123);
type = Stem;
},
{
place = (117,90);
type = Stem;
}
);
layerId = "41C87B6E-BB58-4237-A2FA-B195285FD109";
shapes = (
{
closed = 1;
nodes = (
(207,422,l),
(117,422,l),
(117,60,ls),
(117,-97,o),
(111,-179,o),
(18,-230,c),
(21,-262,l),
(175,-219,o),
(207,-136,o),
(207,32,cs)
);
},
{
closed = 1;
nodes = (
(27,457,l),
(117,422,l),
(207,422,l),
(207,502,l),
(197,512,l),
(27,477,l)
);
},
{
closed = 1;
nodes = (
(94,624,o),
(121,597,o),
(156,597,cs),
(190,597,o),
(217,624,o),
(217,659,cs),
(217,693,o),
(190,720,o),
(156,720,cs),
(121,720,o),
(94,693,o),
(94,659,cs)
);
}
);
width = 258;
}
);
unicode = 106;
},
{
glyphname = k;
lastChange = "2024-12-28 19:31:45 +0000";
layers = (
{
hints = (
{
horizontal = 1;
place = (0,20);
type = Stem;
},
{
horizontal = 1;
place = (255,40);
type = Stem;
},
{
horizontal = 1;
place = (480,20);
type = Stem;
},
{
place = (30,90);
type = Stem;
},
{
place = (120,90);
type = Stem;
},
{
place = (210,80);
type = Stem;
},
{
place = (436,90);
type = Stem;
},
{
place = (482,85);
type = Stem;
}
);
layerId = "41C87B6E-BB58-4237-A2FA-B195285FD109";
shapes = (
{
closed = 1;
nodes = (
(120,0,l),
(210,0,l),
(210,672,l),
(120,672,l)
);
},
{
closed = 1;
nodes = (
(30,0,l,{
name = .hr01;
}),
(120,0,l),
(120,55,l),
(30,20,l)
);
},
{
closed = 1;
nodes = (
(30,707,l),
(120,672,l),
(210,672,l,{
name = .hr02;
}),
(210,752,l),
(200,762,l),
(30,727,l,{
name = .hr03;
})
);
},
{
closed = 1;
nodes = (
(290,20,l),
(210,55,l),
(210,0,l),
(290,0,l)
);
},
{
closed = 1;
nodes = (
(577,20,l),
(492,55,l),
(492,0,l),
(577,0,l)
);
},
{
closed = 1;
nodes = (
(428,0,l),
(533,0,l),
(310,295,l),
(230,255,l)
);
},
{
closed = 1;
nodes = (
(230,255,l),
(302,255,l),
(510,500,l),
(438,500,l)
);
},
{
closed = 1;
nodes = (
(549,500,l),
(459,500,l),
(459,445,l),
(549,480,l)
);
},
{
closed = 1;
nodes = (
(336,480,l),
(426,445,l),
(446,500,l),
(336,500,l)
);
},
{
closed = 1;
nodes = (
(178,236,l),
(262,236,l),
(262,285,l),
(178,266,l)
);
}
);
width = 582;
}
);
unicode = 107;
},
{
glyphname = l;
lastChange = "2024-12-28 19:31:45 +0000";
layers = (
{
hints = (
{
horizontal = 1;
place = (0,20);
type = Stem;
},
{
place = (30,90);
type = Stem;
},
{
place = (120,90);
type = Stem;
},
{
place = (210,90);
type = Stem;
}
);
layerId = "41C87B6E-BB58-4237-A2FA-B195285FD109";
shapes = (
{
closed = 1;
nodes = (
(120,0,l,{
name = .hr01;
}),
(210,0,l),
(210,672,l),
(120,672,l)
);
},
{
closed = 1;
nodes = (
(30,0,l),
(120,0,l,{
name = .hr02;
}),
(120,55,l,{
name = .hr03;
}),
(30,20,l)
);
},
{
closed = 1;
nodes = (
(30,707,l),
(120,672,l),
(210,672,l,{
name = .hr04;
}),
(210,752,l,{
name = .hr05;
}),
(200,762,l),
(30,727,l)
);
},
{
closed = 1;
nodes = (
(300,20,l),
(210,55,l),
(210,0,l),
(300,0,l)
);
}
);
width = 340;
}
);
unicode = 108;
},
{
glyphname = m;
lastChange = "2024-12-28 19:31:45 +0000";
layers = (
{
hints = (
{
horizontal = 1;
place = (0,20);
type = Stem;
},
{
horizontal = 1;
place = (385,37);
type = Stem;
},
{
horizontal = 1;
place = (448,64);
type = Stem;
},
{
horizontal = 1;
place = (502,-20);
target = down;
type = TopGhost;
},
{
place = (35,90);
type = Stem;
},
{
place = (125,90);
type = Stem;
},
{
place = (215,85);
type = Stem;
},
{
place = (354,85);
type = Stem;
},
{
place = (439,90);
type = Stem;
},
{
place = (529,85);
type = Stem;
},
{
place = (668,85);
type = Stem;
},
{
place = (753,90);
type = Stem;
},
{
place = (843,90);
type = Stem;
}
);
layerId = "41C87B6E-BB58-4237-A2FA-B195285FD109";
shapes = (
{
closed = 1;
nodes = (
(125,0,l,{
name = .hr01;
}),
(215,0,l),
(215,422,l),
(125,422,l,{
name = .hr02;
})
);
},
{
closed = 1;
nodes = (
(35,0,l,{
name = .hr03;
}),
(125,0,l),
(125,55,l),
(35,20,l)
);
},
{
closed = 1;
nodes = (
(354,0,l),
(439,0,l),
(439,55,l,{
name = .hr04;
}),
(354,20,l)
);
},
{
closed = 1;
nodes = (
(300,20,l),
(215,55,l,{
name = .hr05;
}),
(215,0,l,{
name = .hr06;
}),
(300,0,l)
);
},
{
closed = 1;
nodes = (
(35,457,l),
(125,422,l),
(215,422,l,{
name = .hr07;
}),
(215,502,l,{
name = .hr08;
}),
(205,512,l),
(35,477,l,{
name = .hr09;
})
);
},
{
closed = 1;
nodes = (
(668,0,l,{
name = .hr10;
}),
(753,0,l),
(753,55,l),
(668,20,l,{
name = .hr11;
})
);
},
{
closed = 1;
nodes = (
(933,20,l),
(843,55,l),
(843,0,l),
(933,0,l)
);
},
{
closed = 1;
nodes = (
(614,20,l),
(529,55,l,{
name = .hr12;
}),
(529,0,l,{
name = .hr13;
}),
(614,0,l)
);
},
{
closed = 1;
nodes = (
(529,353,ls),
(529,465,o),
(458,512,o),
(382,512,cs),
(299,512,o),
(210,463,o),
(171,385,c),
(188,376,l),
(225,427,o),
(280,448,o),
(333,448,cs),
(408,448,o),
(439,418,o),
(439,323,cs),
(439,0,l),
(529,0,l)
);
},
{
closed = 1;
nodes = (
(843,353,ls,{
name = .hr14;
}),
(843,465,o),
(772,512,o),
(696,512,cs),
(613,512,o),
(524,463,o),
(485,385,c,{
name = .hr15;
}),
(502,376,l,{
name = .hr16;
}),
(539,427,o),
(594,448,o),
(647,448,cs),
(722,448,o),
(753,418,o),
(753,323,cs,{
name = .hr17;
}),
(753,0,l,{
name = .hr18;
}),
(843,0,l)
);
}
);
width = 948;
}
);
unicode = 109;
},
{
glyphname = n;
lastChange = "2024-12-28 19:31:45 +0000";
layers = (
{
layerId = "41C87B6E-BB58-4237-A2FA-B195285FD109";
shapes = (
{
closed = 1;
nodes = (
(125,0,l,{
name = .hr01;
}),
(215,0,l),
(215,422,l),
(125,422,l,{
name = .hr02;
})
);
},
{
closed = 1;
nodes = (
(35,0,l,{
name = .hr03;
}),
(125,0,l),
(125,55,l),
(35,20,l)
);
},
{
closed = 1;
nodes = (
(364,0,l),
(449,0,l),
(449,55,l,{
name = .hr04;
}),
(364,20,l)
);
},
{
closed = 1;
nodes = (
(300,20,l),
(215,55,l,{
name = .hr05;
}),
(215,0,l,{
name = .hr06;
}),
(300,0,l)
);
},
{
closed = 1;
nodes = (
(629,20,l),
(539,55,l),
(539,0,l,{
name = .hr07;
}),
(629,0,l,{
name = .hr08;
})
);
},
{
closed = 1;
nodes = (
(35,457,l),
(125,422,l,{
name = .hr09;
}),
(215,422,l,{
name = .hr10;
}),
(215,502,l),
(205,512,l),
(35,477,l,{
name = .hr11;
})
);
},
{
closed = 1;
nodes = (
(539,353,ls,{
name = .hr12;
}),
(539,465,o),
(468,512,o),
(387,512,cs),
(304,512,o),
(210,463,o),
(171,385,c),
(188,376,l),
(225,427,o),
(285,448,o),
(338,448,cs),
(418,448,o),
(449,418,o),
(449,323,cs),
(449,0,l),
(539,0,l)
);
}
);
width = 644;
}
);
unicode = 110;
},
{
glyphname = ntilde;
lastChange = "2024-12-28 19:31:45 +0000";
layers = (
{
associatedMasterId = "41C87B6E-BB58-4237-A2FA-B195285FD109";
layerId = "58169014-C2AF-4848-951C-D1AF2D5F80B0";
name = img;
width = 644;
},
{
layerId = "41C87B6E-BB58-4237-A2FA-B195285FD109";
shapes = (
{
closed = 1;
nodes = (
(125,0,l,{
name = .hr01;
}),
(215,0,l),
(215,422,l),
(125,422,l,{
name = .hr02;
})
);
},
{
closed = 1;
nodes = (
(35,0,l,{
name = .hr03;
}),
(125,0,l),
(125,55,l),
(35,20,l)
);
},
{
closed = 1;
nodes = (
(364,0,l),
(449,0,l),
(449,55,l,{
name = .hr04;
}),
(364,20,l)
);
},
{
closed = 1;
nodes = (
(300,20,l),
(215,55,l,{
name = .hr05;
}),
(215,0,l,{
name = .hr06;
}),
(300,0,l)
);
},
{
closed = 1;
nodes = (
(629,20,l),
(539,55,l),
(539,0,l,{
name = .hr07;
}),
(629,0,l,{
name = .hr08;
})
);
},
{
closed = 1;
nodes = (
(35,457,l),
(125,422,l,{
name = .hr09;
}),
(215,422,l,{
name = .hr10;
}),
(215,502,l),
(205,512,l),
(35,477,l,{
name = .hr11;
})
);
},
{
closed = 1;
nodes = (
(539,353,ls,{
name = .hr12;
}),
(539,465,o),
(468,512,o),
(387,512,cs),
(304,512,o),
(210,463,o),
(171,385,c),
(188,376,l),
(225,427,o),
(285,448,o),
(338,448,cs),
(418,448,o),
(449,418,o),
(449,323,cs),
(449,0,l),
(539,0,l)
);
},
{
closed = 1;
nodes = (
(384,653,o),
(345,703,o),
(293,693,c),
(241,684,o),
(191,599,o),
(191,599,c),
(212,578,l),
(242,607,o),
(260,620,o),
(287,625,cs),
(328,632,o),
(380,584,o),
(431,594,cs),
(491,605,o),
(535,690,o),
(535,690,c),
(514,708,l),
(489,680,o),
(461,667,o),
(438,663,c)
);
}
);
width = 644;
}
);
unicode = 241;
},
{
glyphname = o;
lastChange = "2024-12-28 19:31:45 +0000";
layers = (
{
anchors = (
{
name = top;
pos = (285,527);
}
);
hints = (
{
horizontal = 1;
place = (-12,42);
type = Stem;
},
{
horizontal = 1;
place = (470,42);
type = Stem;
},
{
place = (45,102);
type = Stem;
},
{
place = (421,102);
type = Stem;
}
);
layerId = "41C87B6E-BB58-4237-A2FA-B195285FD109";
shapes = (
{
closed = 1;
nodes = (
(45,95,o),
(132,-12,o),
(284,-12,cs),
(436,-12,o),
(523,95,o),
(523,250,cs),
(523,405,o),
(436,512,o),
(284,512,cs),
(132,512,o),
(45,405,o),
(45,250,cs)
);
},
{
closed = 1;
nodes = (
(140,377,o),
(190,469,o),
(284,469,cs),
(378,469,o),
(431,377,o),
(431,250,cs),
(431,123,o),
(378,31,o),
(284,31,cs),
(190,31,o),
(140,123,o),
(140,250,cs)
);
}
);
width = 568;
}
);
unicode = 111;
},
{
glyphname = oacute;
lastChange = "2024-12-28 19:31:45 +0000";
layers = (
{
associatedMasterId = "41C87B6E-BB58-4237-A2FA-B195285FD109";
layerId = "58169014-C2AF-4848-951C-D1AF2D5F80B0";
name = img;
width = 568;
},
{
layerId = "41C87B6E-BB58-4237-A2FA-B195285FD109";
shapes = (
{
closed = 1;
nodes = (
(45,95,o),
(132,-12,o),
(284,-12,cs),
(436,-12,o),
(523,95,o),
(523,250,cs),
(523,405,o),
(436,512,o),
(284,512,cs),
(132,512,o),
(45,405,o),
(45,250,cs)
);
},
{
closed = 1;
nodes = (
(140,377,o),
(190,469,o),
(284,469,cs),
(378,469,o),
(431,377,o),
(431,250,cs),
(431,123,o),
(378,31,o),
(284,31,cs),
(190,31,o),
(140,123,o),
(140,250,cs)
);
},
{
closed = 1;
nodes = (
(247,589,l),
(274,570,l),
(421,718,l),
(415,740,l),
(343,760,l)
);
}
);
width = 568;
}
);
unicode = 243;
},
{
glyphname = ocircumflex;
lastChange = "2024-12-28 19:31:45 +0000";
layers = (
{
associatedMasterId = "41C87B6E-BB58-4237-A2FA-B195285FD109";
layerId = "58169014-C2AF-4848-951C-D1AF2D5F80B0";
name = img;
width = 568;
},
{
layerId = "41C87B6E-BB58-4237-A2FA-B195285FD109";
shapes = (
{
closed = 1;
nodes = (
(45,95,o),
(132,-12,o),
(284,-12,cs),
(436,-12,o),
(523,95,o),
(523,250,cs),
(523,405,o),
(436,512,o),
(284,512,cs),
(132,512,o),
(45,405,o),
(45,250,cs)
);
},
{
closed = 1;
nodes = (
(140,377,o),
(190,469,o),
(284,469,cs),
(378,469,o),
(431,377,o),
(431,250,cs),
(431,123,o),
(378,31,o),
(284,31,cs),
(190,31,o),
(140,123,o),
(140,250,cs)
);
},
{
closed = 1;
nodes = (
(312,759,l),
(266,759,l),
(147,591,l),
(153,579,l),
(190,569,l),
(287,679,l),
(291,679,l),
(387,569,l),
(427,579,l),
(433,590,l)
);
}
);
width = 568;
}
);
unicode = 244;
},
{
glyphname = odieresis;
lastChange = "2024-12-28 19:31:45 +0000";
layers = (
{
associatedMasterId = "41C87B6E-BB58-4237-A2FA-B195285FD109";
layerId = "58169014-C2AF-4848-951C-D1AF2D5F80B0";
name = img;
width = 568;
},
{
layerId = "41C87B6E-BB58-4237-A2FA-B195285FD109";
shapes = (
{
closed = 1;
nodes = (
(45,95,o),
(132,-12,o),
(284,-12,cs),
(436,-12,o),
(523,95,o),
(523,250,cs),
(523,405,o),
(436,512,o),
(284,512,cs),
(132,512,o),
(45,405,o),
(45,250,cs)
);
},
{
closed = 1;
nodes = (
(140,377,o),
(190,469,o),
(284,469,cs),
(378,469,o),
(431,377,o),
(431,250,cs),
(431,123,o),
(378,31,o),
(284,31,cs),
(190,31,o),
(140,123,o),
(140,250,cs)
);
},
{
closed = 1;
nodes = (
(140,623,o),
(165,598,o),
(197,598,cs),
(229,598,o),
(252,623,o),
(252,655,cs),
(252,685,o),
(229,710,o),
(197,710,cs),
(165,710,o),
(140,685,o),
(140,655,cs)
);
},
{
closed = 1;
nodes = (
(307,623,o),
(331,598,o),
(363,598,cs),
(395,598,o),
(419,623,o),
(419,655,cs),
(419,685,o),
(395,710,o),
(363,710,cs),
(331,710,o),
(307,685,o),
(307,655,cs)
);
}
);
width = 568;
}
);
unicode = 246;
},
{
glyphname = ograve;
lastChange = "2024-12-28 19:31:45 +0000";
layers = (
{
associatedMasterId = "41C87B6E-BB58-4237-A2FA-B195285FD109";
layerId = "58169014-C2AF-4848-951C-D1AF2D5F80B0";
name = img;
width = 568;
},
{
layerId = "41C87B6E-BB58-4237-A2FA-B195285FD109";
shapes = (
{
closed = 1;
nodes = (
(45,95,o),
(132,-12,o),
(284,-12,cs),
(436,-12,o),
(523,95,o),
(523,250,cs),
(523,405,o),
(436,512,o),
(284,512,cs),
(132,512,o),
(45,405,o),
(45,250,cs)
);
},
{
closed = 1;
nodes = (
(140,377,o),
(190,469,o),
(284,469,cs),
(378,469,o),
(431,377,o),
(431,250,cs),
(431,123,o),
(378,31,o),
(284,31,cs),
(190,31,o),
(140,123,o),
(140,250,cs)
);
},
{
closed = 1;
nodes = (
(220,760,l),
(148,738,l),
(142,718,l),
(289,570,l),
(316,589,l)
);
}
);
width = 568;
}
);
unicode = 242;
},
{
glyphname = oslash;
lastChange = "2024-12-28 19:31:45 +0000";
layers = (
{
associatedMasterId = "41C87B6E-BB58-4237-A2FA-B195285FD109";
layerId = "58169014-C2AF-4848-951C-D1AF2D5F80B0";
name = img;
width = 568;
},
{
layerId = "41C87B6E-BB58-4237-A2FA-B195285FD109";
shapes = (
{
closed = 1;
nodes = (
(165,-45,l),
(198,12,l),
(225,36,l),
(419,389,l),
(461,431,l),
(523,541,l),
(451,541,l),
(410,469,l),
(382,445,l),
(178,81,l),
(146,49,l),
(93,-45,l)
);
},
{
closed = 1;
nodes = (
(45,95,o),
(132,-12,o),
(284,-12,cs),
(436,-12,o),
(523,95,o),
(523,250,cs),
(523,405,o),
(436,512,o),
(284,512,cs),
(132,512,o),
(45,405,o),
(45,250,cs)
);
},
{
closed = 1;
nodes = (
(140,377,o),
(190,469,o),
(284,469,cs),
(378,469,o),
(431,377,o),
(431,250,cs),
(431,123,o),
(378,31,o),
(284,31,cs),
(190,31,o),
(140,123,o),
(140,250,cs)
);
}
);
width = 568;
}
);
unicode = 248;
},
{
glyphname = otilde;
lastChange = "2024-12-28 19:31:45 +0000";
layers = (
{
associatedMasterId = "41C87B6E-BB58-4237-A2FA-B195285FD109";
layerId = "58169014-C2AF-4848-951C-D1AF2D5F80B0";
name = img;
width = 568;
},
{
layerId = "41C87B6E-BB58-4237-A2FA-B195285FD109";
shapes = (
{
closed = 1;
nodes = (
(45,95,o),
(132,-12,o),
(284,-12,cs),
(436,-12,o),
(523,95,o),
(523,250,cs),
(523,405,o),
(436,512,o),
(284,512,cs),
(132,512,o),
(45,405,o),
(45,250,cs)
);
},
{
closed = 1;
nodes = (
(140,377,o),
(190,469,o),
(284,469,cs),
(378,469,o),
(431,377,o),
(431,250,cs),
(431,123,o),
(378,31,o),
(284,31,cs),
(190,31,o),
(140,123,o),
(140,250,cs)
);
},
{
closed = 1;
nodes = (
(313,653,o),
(274,703,o),
(222,693,c),
(170,684,o),
(120,599,o),
(120,599,c),
(141,578,l),
(171,607,o),
(189,620,o),
(216,625,cs),
(257,632,o),
(309,584,o),
(360,594,cs),
(420,605,o),
(464,690,o),
(464,690,c),
(443,708,l),
(418,680,o),
(390,667,o),
(367,663,c)
);
}
);
width = 568;
}
);
unicode = 245;
},
{
glyphname = oe;
lastChange = "2024-12-28 19:31:45 +0000";
layers = (
{
associatedMasterId = "41C87B6E-BB58-4237-A2FA-B195285FD109";
layerId = "58169014-C2AF-4848-951C-D1AF2D5F80B0";
name = img;
width = 888;
},
{
hints = (
{
horizontal = 1;
place = (-12,42);
type = Stem;
},
{
horizontal = 1;
place = (470,42);
type = Stem;
},
{
horizontal = 1;
place = (-12,66);
type = Stem;
},
{
horizontal = 1;
place = (247,52);
type = Stem;
},
{
place = (45,102);
type = Stem;
},
{
place = (421,102);
type = Stem;
},
{
place = (626,38);
type = Stem;
},
{
place = (899,95);
type = Stem;
}
);
layerId = "41C87B6E-BB58-4237-A2FA-B195285FD109";
shapes = (
{
closed = 1;
nodes = (
(45,95,o),
(132,-12,o),
(284,-12,cs),
(436,-12,o),
(523,95,o),
(523,250,cs),
(523,405,o),
(436,512,o),
(284,512,cs),
(132,512,o),
(45,405,o),
(45,250,cs)
);
},
{
closed = 1;
nodes = (
(140,377,o),
(190,469,o),
(284,469,cs),
(378,469,o),
(431,377,o),
(431,250,cs),
(431,123,o),
(378,31,o),
(284,31,cs),
(190,31,o),
(140,123,o),
(140,250,cs)
);
},
{
closed = 1;
nodes = (
(523,380,o),
(568,465,o),
(656,465,cs),
(722,465,o),
(758,402,o),
(758,299,c,{
name = .hr01;
}),
(485,299,l),
(485,247,l),
(839,247,l),
(853,261,l),
(853,433,o),
(762,512,o),
(654,512,cs),
(547,512,o),
(449,437,o),
(449,250,cs),
(449,94,o),
(531,-12,o),
(653,-12,cs),
(715,-12,o),
(769,-3,o),
(828,49,c),
(813,78,l),
(774,55,o),
(741,44,o),
(704,44,cs),
(610,44,o),
(523,98,o),
(523,254,cs)
);
}
);
width = 888;
}
);
unicode = 339;
},
{
glyphname = p;
lastChange = "2024-12-28 19:31:45 +0000";
layers = (
{
hints = (
{
horizontal = 1;
place = (-250,20);
type = Stem;
},
{
horizontal = 1;
place = (-12,50);
type = Stem;
},
{
horizontal = 1;
place = (393,28);
type = Stem;
},
{
horizontal = 1;
place = (462,50);
type = Stem;
},
{
horizontal = 1;
place = (502,-20);
target = down;
type = TopGhost;
},
{
place = (5,90);
type = Stem;
},
{
place = (95,90);
type = Stem;
},
{
place = (185,110);
type = Stem;
},
{
place = (429,102);
type = Stem;
}
);
layerId = "41C87B6E-BB58-4237-A2FA-B195285FD109";
shapes = (
{
closed = 1;
nodes = (
(95,-250,l,{
name = .hr01;
}),
(185,-250,l),
(185,422,l),
(95,422,l)
);
},
{
closed = 1;
nodes = (
(5,-250,l),
(95,-250,l,{
name = .hr02;
}),
(95,-195,l,{
name = .hr03;
}),
(5,-230,l)
);
},
{
closed = 1;
nodes = (
(5,457,l),
(95,422,l),
(185,422,l),
(185,502,l),
(175,512,l),
(5,477,l)
);
},
{
closed = 1;
nodes = (
(295,-230,l),
(185,-195,l),
(185,-250,l),
(295,-250,l)
);
},
{
closed = 1;
nodes = (
(111,65,l,{
name = .hr04;
}),
(152,15,o),
(221,-12,o),
(292,-12,cs),
(410,-12,o),
(531,65,o),
(531,250,cs),
(531,413,o),
(425,512,o),
(317,512,cs),
(258,512,o),
(214,496,o),
(172,435,c),
(176,395,l),
(203,439,o),
(252,462,o),
(296,462,cs,{
name = .hr05;
}),
(382,462,o),
(429,373,o),
(429,250,cs,{
name = .hr06;
}),
(429,94,o),
(359,38,o),
(292,38,cs,{
name = .hr07;
}),
(246,38,o),
(204,61,o),
(185,98,c)
);
}
);
width = 576;
}
);
unicode = 112;
},
{
glyphname = thorn;
lastChange = "2024-12-28 19:31:45 +0000";
layers = (
{
hints = (
{
horizontal = 1;
place = (-250,20);
type = Stem;
},
{
horizontal = 1;
place = (-12,50);
type = Stem;
},
{
horizontal = 1;
place = (393,28);
type = Stem;
},
{
horizontal = 1;
place = (462,50);
type = Stem;
},
{
horizontal = 1;
place = (502,-20);
target = down;
type = TopGhost;
},
{
place = (40,90);
type = Stem;
},
{
place = (130,90);
type = Stem;
},
{
place = (220,110);
type = Stem;
},
{
place = (464,102);
type = Stem;
}
);
layerId = "41C87B6E-BB58-4237-A2FA-B195285FD109";
shapes = (
{
closed = 1;
nodes = (
(95,-250,l),
(185,-250,l),
(185,422,l),
(95,422,l)
);
},
{
closed = 1;
nodes = (
(5,-250,l),
(95,-250,l),
(95,-195,l),
(5,-230,l)
);
},
{
closed = 1;
nodes = (
(295,-230,l),
(185,-195,l),
(185,-250,l),
(295,-250,l)
);
},
{
closed = 1;
nodes = (
(111,65,l),
(152,15,o),
(221,-12,o),
(292,-12,cs),
(410,-12,o),
(531,65,o),
(531,250,cs),
(531,413,o),
(425,512,o),
(317,512,cs),
(258,512,o),
(214,496,o),
(172,435,c),
(176,395,l),
(203,439,o),
(252,462,o),
(296,462,cs),
(382,462,o),
(429,373,o),
(429,250,cs),
(429,94,o),
(359,38,o),
(292,38,cs),
(246,38,o),
(204,61,o),
(185,98,c)
);
},
{
closed = 1;
nodes = (
(95,0,l),
(185,0,l),
(185,672,l),
(95,672,l)
);
},
{
closed = 1;
nodes = (
(5,707,l),
(95,672,l),
(185,672,l),
(185,752,l),
(175,762,l),
(5,727,l)
);
}
);
width = 576;
}
);
unicode = 254;
},
{
glyphname = q;
lastChange = "2024-12-28 19:31:45 +0000";
layers = (
{
hints = (
{
horizontal = 1;
place = (-250,20);
type = Stem;
},
{
horizontal = 1;
place = (-12,50);
type = Stem;
},
{
horizontal = 1;
place = (462,50);
type = Stem;
},
{
place = (45,102);
type = Stem;
},
{
place = (281,110);
type = Stem;
},
{
place = (391,90);
type = Stem;
},
{
place = (481,90);
type = Stem;
}
);
layerId = "41C87B6E-BB58-4237-A2FA-B195285FD109";
shapes = (
{
closed = 1;
nodes = (
(481,445,l),
(427,490,o),
(360,512,o),
(296,512,cs),
(166,512,o),
(45,422,o),
(45,250,cs),
(45,87,o),
(145,-12,o),
(253,-12,cs),
(322,-12,o),
(403,27,o),
(439,116,c),
(415,140,l),
(391,82,o),
(342,40,o),
(287,40,cs),
(197,40,o),
(147,127,o),
(147,250,cs),
(147,359,o),
(196,462,o),
(291,462,cs),
(320,462,o),
(355,457,o),
(391,416,c),
(391,-250,l),
(481,-250,l)
);
},
{
closed = 1;
nodes = (
(271,-250,l),
(391,-250,l),
(391,-195,l),
(271,-230,l)
);
},
{
closed = 1;
nodes = (
(571,-230,l),
(481,-195,l),
(481,-250,l),
(571,-250,l)
);
},
{
closed = 1;
nodes = (
(451,527,l),
(386,437,l),
(481,437,l),
(481,527,l)
);
}
);
width = 576;
}
);
unicode = 113;
},
{
glyphname = r;
lastChange = "2024-12-28 19:31:45 +0000";
layers = (
{
hints = (
{
horizontal = 1;
place = (0,20);
type = Stem;
},
{
horizontal = 1;
place = (385,37);
type = Stem;
},
{
horizontal = 1;
place = (397,115);
type = Stem;
},
{
horizontal = 1;
place = (422,80);
type = Stem;
},
{
horizontal = 1;
place = (436,76);
type = Stem;
},
{
horizontal = 1;
place = (502,-20);
target = down;
type = TopGhost;
},
{
place = (35,90);
type = Stem;
},
{
place = (125,90);
type = Stem;
},
{
place = (215,115);
type = Stem;
},
{
place = (387,20);
type = Stem;
}
);
layerId = "41C87B6E-BB58-4237-A2FA-B195285FD109";
shapes = (
{
closed = 1;
nodes = (
(125,0,l),
(215,0,l),
(215,422,l),
(125,422,l)
);
},
{
closed = 1;
nodes = (
(35,0,l,{
name = .hr01;
}),
(125,0,l),
(125,55,l),
(35,20,l)
);
},
{
closed = 1;
nodes = (
(330,20,l),
(215,55,l),
(215,0,l),
(330,0,l)
);
},
{
closed = 1;
nodes = (
(35,457,l),
(125,422,l),
(215,422,l),
(215,502,l,{
name = .hr02;
}),
(205,512,l,{
name = .hr03;
}),
(35,477,l)
);
},
{
closed = 1;
nodes = (
(390,397,l),
(410,404,l),
(410,512,l),
(302,512,o),
(217,468,o),
(171,385,c,{
name = .hr04;
}),
(188,376,l,{
name = .hr05;
}),
(226,417,o),
(284,436,o),
(319,436,c)
);
}
);
width = 425;
}
);
unicode = 114;
},
{
glyphname = s;
lastChange = "2024-12-28 19:31:45 +0000";
layers = (
{
hints = (
{
horizontal = 1;
place = (-12,43);
type = Stem;
},
{
horizontal = 1;
place = (470,42);
type = Stem;
},
{
horizontal = 1;
place = (512,-20);
target = down;
type = TopGhost;
},
{
place = (41,25);
type = Stem;
},
{
place = (56,92);
type = Stem;
},
{
place = (316,92);
type = Stem;
},
{
place = (370,21);
type = Stem;
}
);
layerId = "41C87B6E-BB58-4237-A2FA-B195285FD109";
shapes = (
{
closed = 1;
nodes = (
(85,165,l),
(85,165,o),
(60,165,o),
(60,165,c),
(60,165,o),
(60,19,o),
(60,19,c),
(102,0,o),
(167,-14,o),
(219,-14,cs),
(316,-14,o),
(416,35,o),
(416,131,cs),
(416,219,o),
(326,259,o),
(251,298,cs),
(198,326,o),
(155,353,o),
(155,399,cs),
(155,429,o),
(179,470,o),
(257,470,cs),
(274,470,o),
(291,468,o),
(311,465,c),
(363,350,l),
(363,350,o),
(383,350,o),
(383,350,c),
(383,350,o),
(385,491,o),
(385,491,c),
(345,504,o),
(301,512,o),
(256,512,cs),
(149,512,o),
(70,473,o),
(70,380,cs),
(70,302,o),
(135,260,o),
(203,224,cs),
(266,190,o),
(327,159,o),
(327,111,cs),
(327,63,o),
(282,36,o),
(217,36,cs),
(187,36,o),
(154,45,o),
(137,54,c)
);
}
);
width = 466;
}
);
unicode = 115;
},
{
glyphname = germandbls;
lastChange = "2024-12-28 19:31:45 +0000";
layers = (
{
associatedMasterId = "41C87B6E-BB58-4237-A2FA-B195285FD109";
layerId = "58169014-C2AF-4848-951C-D1AF2D5F80B0";
name = img;
width = 580;
},
{
guides = (
{
pos = (0,1561);
}
);
hints = (
{
horizontal = 1;
place = (0,20);
type = Stem;
},
{
horizontal = 1;
place = (422,50);
type = Stem;
},
{
horizontal = 1;
place = (717,45);
type = Stem;
},
{
place = (-360,90);
type = Stem;
},
{
place = (-270,90);
type = Stem;
},
{
place = (-180,115);
type = Stem;
},
{
place = (-180,150);
type = Stem;
},
{
place = (8,20);
type = Stem;
}
);
layerId = "41C87B6E-BB58-4237-A2FA-B195285FD109";
shapes = (
{
closed = 1;
nodes = (
(494,713,o),
(430,762,o),
(319,762,cs),
(222,762,o),
(117,694,o),
(117,565,cs),
(117,56,l),
(27,21,l),
(27,0,l),
(204,0,l),
(204,574,ls),
(204,661,o),
(250,717,o),
(322,717,cs),
(374,717,o),
(422,699,o),
(422,612,c),
(324,568,o),
(272,487,o),
(272,404,cs),
(272,256,o),
(462,215,o),
(462,117,cs),
(462,45,o),
(432,24,o),
(368,24,cs),
(345,24,o),
(332,26,o),
(314,33,c),
(286,100,l),
(247,100,l),
(247,4,l),
(301,-14,o),
(340,-20,o),
(390,-20,cs),
(466,-20,o),
(545,26,o),
(545,120,cs),
(545,275,o),
(348,318,o),
(348,424,cs),
(348,495,o),
(378,538,o),
(494,593,c)
);
},
{
closed = 1;
nodes = (
(20,432,l),
(119,432,l),
(119,498,l),
(20,470,l)
);
}
);
width = 580;
}
);
unicode = 223;
},
{
glyphname = t;
lastChange = "2024-12-28 19:31:45 +0000";
layers = (
{
guides = (
{
pos = (0,967);
}
);
hints = (
{
horizontal = 1;
place = (-12,64);
type = Stem;
},
{
horizontal = 1;
place = (422,50);
type = Stem;
},
{
horizontal = 1;
place = (500,-20);
target = down;
type = TopGhost;
},
{
place = (14,93);
type = Stem;
},
{
place = (104,90);
type = Stem;
},
{
place = (194,160);
type = Stem;
}
);
layerId = "41C87B6E-BB58-4237-A2FA-B195285FD109";
shapes = (
{
closed = 1;
nodes = (
(104,132,ls),
(104,36,o),
(158,-12,o),
(218,-12,cs),
(269,-12,o),
(323,7,o),
(369,45,c),
(354,76,l),
(323,57,o),
(301,52,o),
(262,52,cs),
(224,52,o),
(194,68,o),
(194,160,cs),
(194,632,l),
(144,632,l),
(104,482,l)
);
},
{
closed = 1;
nodes = (
(194,432,l),
(354,462,l),
(354,491,l),
(337,497,l),
(194,497,l)
);
},
{
closed = 1;
nodes = (
(14,457,l),
(113,429,l),
(113,498,l),
(14,477,l)
);
}
);
width = 407;
}
);
unicode = 116;
},
{
glyphname = u;
lastChange = "2024-12-28 19:31:45 +0000";
layers = (
{
layerId = "41C87B6E-BB58-4237-A2FA-B195285FD109";
shapes = (
{
closed = 1;
nodes = (
(509,422,l),
(419,422,l),
(419,48,l),
(509,58,l)
);
},
{
closed = 1;
nodes = (
(105,147,ls),
(105,35,o),
(176,-12,o),
(252,-12,cs),
(335,-12,o),
(424,37,o),
(463,115,c),
(446,124,l),
(409,73,o),
(354,52,o),
(301,52,cs),
(226,52,o),
(195,82,o),
(195,177,cs),
(195,422,l),
(105,422,l)
);
},
{
closed = 1;
nodes = (
(15,457,l),
(105,422,l),
(195,422,l),
(195,502,l),
(185,512,l),
(15,477,l)
);
},
{
closed = 1;
nodes = (
(329,457,l),
(419,422,l),
(509,422,l),
(509,502,l),
(499,512,l),
(329,477,l)
);
},
{
closed = 1;
nodes = (
(599,43,l),
(509,68,l),
(419,78,l),
(419,-2,l),
(429,-12,l),
(599,25,l)
);
}
);
width = 629;
}
);
unicode = 117;
},
{
glyphname = uacute;
lastChange = "2024-12-28 19:31:45 +0000";
layers = (
{
associatedMasterId = "41C87B6E-BB58-4237-A2FA-B195285FD109";
layerId = "58169014-C2AF-4848-951C-D1AF2D5F80B0";
name = img;
width = 629;
},
{
layerId = "41C87B6E-BB58-4237-A2FA-B195285FD109";
shapes = (
{
closed = 1;
nodes = (
(509,422,l),
(419,422,l),
(419,48,l),
(509,58,l)
);
},
{
closed = 1;
nodes = (
(105,147,ls),
(105,35,o),
(176,-12,o),
(252,-12,cs),
(335,-12,o),
(424,37,o),
(463,115,c),
(446,124,l),
(409,73,o),
(354,52,o),
(301,52,cs),
(226,52,o),
(195,82,o),
(195,177,cs),
(195,422,l),
(105,422,l)
);
},
{
closed = 1;
nodes = (
(15,457,l),
(105,422,l),
(195,422,l),
(195,502,l),
(185,512,l),
(15,477,l)
);
},
{
closed = 1;
nodes = (
(329,457,l),
(419,422,l),
(509,422,l),
(509,502,l),
(499,512,l),
(329,477,l)
);
},
{
closed = 1;
nodes = (
(599,43,l),
(509,68,l),
(419,78,l),
(419,-2,l),
(429,-12,l),
(599,25,l)
);
},
{
closed = 1;
nodes = (
(262,589,l),
(289,570,l),
(436,718,l),
(430,740,l),
(358,760,l)
);
}
);
width = 629;
}
);
unicode = 250;
},
{
glyphname = ucircumflex;
lastChange = "2024-12-28 19:31:45 +0000";
layers = (
{
associatedMasterId = "41C87B6E-BB58-4237-A2FA-B195285FD109";
layerId = "58169014-C2AF-4848-951C-D1AF2D5F80B0";
name = img;
width = 629;
},
{
layerId = "41C87B6E-BB58-4237-A2FA-B195285FD109";
shapes = (
{
closed = 1;
nodes = (
(509,422,l),
(419,422,l),
(419,48,l),
(509,58,l)
);
},
{
closed = 1;
nodes = (
(105,147,ls),
(105,35,o),
(176,-12,o),
(252,-12,cs),
(335,-12,o),
(424,37,o),
(463,115,c),
(446,124,l),
(409,73,o),
(354,52,o),
(301,52,cs),
(226,52,o),
(195,82,o),
(195,177,cs),
(195,422,l),
(105,422,l)
);
},
{
closed = 1;
nodes = (
(15,457,l),
(105,422,l),
(195,422,l),
(195,502,l),
(185,512,l),
(15,477,l)
);
},
{
closed = 1;
nodes = (
(329,457,l),
(419,422,l),
(509,422,l),
(509,502,l),
(499,512,l),
(329,477,l)
);
},
{
closed = 1;
nodes = (
(599,43,l),
(509,68,l),
(419,78,l),
(419,-2,l),
(429,-12,l),
(599,25,l)
);
},
{
closed = 1;
nodes = (
(327,759,l),
(281,759,l),
(162,591,l),
(168,579,l),
(205,569,l),
(302,679,l),
(306,679,l),
(402,569,l),
(442,579,l),
(448,590,l)
);
}
);
width = 629;
}
);
unicode = 251;
},
{
glyphname = udieresis;
lastChange = "2024-12-28 19:31:45 +0000";
layers = (
{
associatedMasterId = "41C87B6E-BB58-4237-A2FA-B195285FD109";
layerId = "58169014-C2AF-4848-951C-D1AF2D5F80B0";
name = img;
width = 629;
},
{
layerId = "41C87B6E-BB58-4237-A2FA-B195285FD109";
shapes = (
{
closed = 1;
nodes = (
(509,422,l),
(419,422,l),
(419,48,l),
(509,58,l)
);
},
{
closed = 1;
nodes = (
(105,147,ls),
(105,35,o),
(176,-12,o),
(252,-12,cs),
(335,-12,o),
(424,37,o),
(463,115,c),
(446,124,l),
(409,73,o),
(354,52,o),
(301,52,cs),
(226,52,o),
(195,82,o),
(195,177,cs),
(195,422,l),
(105,422,l)
);
},
{
closed = 1;
nodes = (
(15,457,l),
(105,422,l),
(195,422,l),
(195,502,l),
(185,512,l),
(15,477,l)
);
},
{
closed = 1;
nodes = (
(329,457,l),
(419,422,l),
(509,422,l),
(509,502,l),
(499,512,l),
(329,477,l)
);
},
{
closed = 1;
nodes = (
(599,43,l),
(509,68,l),
(419,78,l),
(419,-2,l),
(429,-12,l),
(599,25,l)
);
},
{
closed = 1;
nodes = (
(155,623,o),
(180,598,o),
(212,598,cs),
(244,598,o),
(267,623,o),
(267,655,cs),
(267,685,o),
(244,710,o),
(212,710,cs),
(180,710,o),
(155,685,o),
(155,655,cs)
);
},
{
closed = 1;
nodes = (
(322,623,o),
(346,598,o),
(378,598,cs),
(410,598,o),
(434,623,o),
(434,655,cs),
(434,685,o),
(410,710,o),
(378,710,cs),
(346,710,o),
(322,685,o),
(322,655,cs)
);
}
);
width = 629;
}
);
unicode = 252;
},
{
glyphname = ugrave;
lastChange = "2024-12-28 19:31:45 +0000";
layers = (
{
associatedMasterId = "41C87B6E-BB58-4237-A2FA-B195285FD109";
layerId = "58169014-C2AF-4848-951C-D1AF2D5F80B0";
name = img;
width = 629;
},
{
layerId = "41C87B6E-BB58-4237-A2FA-B195285FD109";
shapes = (
{
closed = 1;
nodes = (
(509,422,l),
(419,422,l),
(419,48,l),
(509,58,l)
);
},
{
closed = 1;
nodes = (
(105,147,ls),
(105,35,o),
(176,-12,o),
(252,-12,cs),
(335,-12,o),
(424,37,o),
(463,115,c),
(446,124,l),
(409,73,o),
(354,52,o),
(301,52,cs),
(226,52,o),
(195,82,o),
(195,177,cs),
(195,422,l),
(105,422,l)
);
},
{
closed = 1;
nodes = (
(15,457,l),
(105,422,l),
(195,422,l),
(195,502,l),
(185,512,l),
(15,477,l)
);
},
{
closed = 1;
nodes = (
(329,457,l),
(419,422,l),
(509,422,l),
(509,502,l),
(499,512,l),
(329,477,l)
);
},
{
closed = 1;
nodes = (
(599,43,l),
(509,68,l),
(419,78,l),
(419,-2,l),
(429,-12,l),
(599,25,l)
);
},
{
closed = 1;
nodes = (
(235,760,l),
(163,738,l),
(157,718,l),
(304,570,l),
(331,589,l)
);
}
);
width = 629;
}
);
unicode = 249;
},
{
glyphname = v;
lastChange = "2024-12-28 19:31:45 +0000";
layers = (
{
hints = (
{
horizontal = 1;
place = (10,21);
target = up;
type = BottomGhost;
},
{
horizontal = 1;
place = (480,20);
type = Stem;
},
{
place = (-15,70);
type = Stem;
},
{
place = (130,93);
type = Stem;
},
{
place = (338,90);
type = Stem;
},
{
place = (461,20);
type = Stem;
}
);
layerId = "41C87B6E-BB58-4237-A2FA-B195285FD109";
shapes = (
{
closed = 1;
nodes = (
(247,-12,l),
(301,-1,l),
(294,102,l),
(127,500,l),
(31,500,l)
);
},
{
closed = 1;
nodes = (
(224,500,l),
(127,500,l),
(134,445,l),
(224,480,l)
);
},
{
closed = 1;
nodes = (
(495,500,l),
(428,500,l),
(248,-1,l),
(301,-1,l)
);
},
{
closed = 1;
nodes = (
(-15,480,l),
(55,445,l),
(55,500,l),
(-15,500,l)
);
},
{
closed = 1;
nodes = (
(545,500,l),
(475,500,l),
(475,445,l),
(545,480,l)
);
},
{
closed = 1;
nodes = (
(338,480,l),
(428,445,l),
(428,500,l),
(338,500,l)
);
}
);
width = 530;
}
);
unicode = 118;
},
{
glyphname = w;
lastChange = "2024-12-28 19:31:45 +0000";
layers = (
{
hints = (
{
horizontal = 1;
place = (10,21);
target = up;
type = BottomGhost;
},
{
horizontal = 1;
place = (480,20);
type = Stem;
},
{
place = (-35,70);
type = Stem;
},
{
place = (110,93);
type = Stem;
},
{
place = (585,93);
type = Stem;
},
{
place = (716,19);
type = Stem;
}
);
layerId = "41C87B6E-BB58-4237-A2FA-B195285FD109";
shapes = (
{
closed = 1;
nodes = (
(209,-12,l),
(263,-1,l),
(256,102,l),
(127,500,l),
(31,500,l)
);
},
{
closed = 1;
nodes = (
(224,500,l),
(127,500,l),
(134,445,l),
(224,480,l)
);
},
{
closed = 1;
nodes = (
(431,500,l),
(378,500,l),
(210,-1,l),
(263,-1,l)
);
},
{
closed = 1;
nodes = (
(-15,480,l),
(55,445,l),
(55,500,l),
(-15,500,l)
);
},
{
closed = 1;
nodes = (
(531,-12,l),
(585,-1,l),
(578,102,l),
(431,500,l),
(388,500,l),
(365,422,l)
);
},
{
closed = 1;
nodes = (
(724,500,l),
(671,500,l),
(532,-1,l),
(585,-1,l)
);
},
{
closed = 1;
nodes = (
(775,500,l),
(705,500,l),
(705,445,l),
(775,480,l)
);
},
{
closed = 1;
nodes = (
(574,480,l),
(664,445,l),
(671,500,l),
(574,500,l)
);
}
);
width = 760;
}
);
unicode = 119;
},
{
glyphname = x;
lastChange = "2024-12-28 19:31:45 +0000";
layers = (
{
hints = (
{
horizontal = 1;
place = (0,20);
type = Stem;
},
{
horizontal = 1;
place = (480,20);
type = Stem;
},
{
place = (11,90);
type = Stem;
},
{
place = (80,15);
type = Stem;
},
{
place = (119,20);
type = Stem;
},
{
place = (381,20);
type = Stem;
},
{
place = (406,15);
type = Stem;
},
{
place = (419,90);
type = Stem;
}
);
layerId = "41C87B6E-BB58-4237-A2FA-B195285FD109";
shapes = (
{
closed = 1;
nodes = (
(506,500,l,{
name = .hr01;
}),
(416,500,l),
(416,445,l),
(506,480,l)
);
},
{
closed = 1;
nodes = (
(301,480,l),
(408,445,l),
(408,500,l),
(301,500,l)
);
},
{
closed = 1;
nodes = (
(391,0,l,{
name = .hr03;
}),
(498,0,l),
(148,500,l),
(41,500,l)
);
},
{
closed = 1;
nodes = (
(225,249,l),
(225,249,o),
(287,249,o),
(287,249,c),
(467,500,l),
(406,500,l)
);
},
{
closed = 1;
nodes = (
(33,0,l,{
name = .hr04;
}),
(33,0,o),
(95,0,o),
(95,0,c),
(275,251,l),
(214,251,l)
);
},
{
closed = 1;
nodes = (
(240,500,l,{
name = .hr05;
}),
(146,500,l),
(146,445,l),
(240,480,l)
);
},
{
closed = 1;
nodes = (
(-9,480,l),
(86,445,l),
(86,500,l),
(-9,500,l)
);
},
{
closed = 1;
nodes = (
(291,0,l),
(400,0,l),
(400,55,l),
(291,20,l)
);
},
{
closed = 1;
nodes = (
(548,20,l),
(458,55,l),
(458,0,l),
(548,0,l)
);
},
{
closed = 1;
nodes = (
(-16,0,l),
(74,0,l),
(74,55,l),
(-16,20,l)
);
},
{
closed = 1;
nodes = (
(200,20,l),
(90,55,l),
(90,0,l),
(200,0,l)
);
}
);
width = 514;
}
);
unicode = 120;
},
{
glyphname = y;
lastChange = "2024-12-28 19:31:45 +0000";
layers = (
{
anchors = (
{
name = top;
pos = (291,527);
}
);
hints = (
{
horizontal = 1;
place = (11,21);
target = up;
type = BottomGhost;
},
{
horizontal = 1;
place = (480,20);
type = Stem;
},
{
place = (46,24);
type = Stem;
},
{
place = (145,93);
type = Stem;
},
{
place = (277,39);
type = Stem;
},
{
place = (353,90);
type = Stem;
},
{
place = (476,20);
type = Stem;
}
);
layerId = "41C87B6E-BB58-4237-A2FA-B195285FD109";
shapes = (
{
closed = 1;
nodes = (
(277,0,l),
(316,0,l),
(316,103,l),
(142,500,l),
(46,500,l)
);
},
{
closed = 1;
nodes = (
(239,500,l),
(142,500,l),
(149,445,l),
(239,480,l)
);
},
{
closed = 1;
nodes = (
(-20,480,l),
(70,445,l),
(70,500,l),
(-20,500,l)
);
},
{
closed = 1;
nodes = (
(566,500,l),
(476,500,l),
(476,445,l),
(566,480,l)
);
},
{
closed = 1;
nodes = (
(353,480,l),
(443,445,l),
(443,500,l),
(353,500,l)
);
},
{
closed = 1;
nodes = (
(206,-262,l),
(316,0,l),
(496,500,l),
(443,500,l),
(269,17,l),
(114,-227,l),
(123,-247,l)
);
}
);
width = 551;
}
);
unicode = 121;
},
{
glyphname = yacute;
lastChange = "2024-12-28 19:31:45 +0000";
layers = (
{
associatedMasterId = "41C87B6E-BB58-4237-A2FA-B195285FD109";
layerId = "58169014-C2AF-4848-951C-D1AF2D5F80B0";
name = img;
width = 551;
},
{
layerId = "41C87B6E-BB58-4237-A2FA-B195285FD109";
shapes = (
{
closed = 1;
nodes = (
(277,0,l),
(316,0,l),
(316,103,l),
(142,500,l),
(46,500,l)
);
},
{
closed = 1;
nodes = (
(239,500,l),
(142,500,l),
(149,445,l),
(239,480,l)
);
},
{
closed = 1;
nodes = (
(-20,480,l),
(70,445,l),
(70,500,l),
(-20,500,l)
);
},
{
closed = 1;
nodes = (
(566,500,l),
(476,500,l),
(476,445,l),
(566,480,l)
);
},
{
closed = 1;
nodes = (
(353,480,l),
(443,445,l),
(443,500,l),
(353,500,l)
);
},
{
closed = 1;
nodes = (
(206,-262,l),
(316,0,l),
(496,500,l),
(443,500,l),
(269,17,l),
(114,-227,l),
(123,-247,l)
);
},
{
closed = 1;
nodes = (
(253,589,l),
(280,570,l),
(427,718,l),
(421,740,l),
(349,760,l)
);
}
);
width = 551;
}
);
unicode = 253;
},
{
glyphname = ydieresis;
lastChange = "2024-12-28 19:31:45 +0000";
layers = (
{
associatedMasterId = "41C87B6E-BB58-4237-A2FA-B195285FD109";
layerId = "58169014-C2AF-4848-951C-D1AF2D5F80B0";
name = img;
width = 551;
},
{
layerId = "41C87B6E-BB58-4237-A2FA-B195285FD109";
shapes = (
{
closed = 1;
nodes = (
(277,0,l),
(316,0,l),
(316,103,l),
(142,500,l),
(46,500,l)
);
},
{
closed = 1;
nodes = (
(239,500,l),
(142,500,l),
(149,445,l),
(239,480,l)
);
},
{
closed = 1;
nodes = (
(-20,480,l),
(70,445,l),
(70,500,l),
(-20,500,l)
);
},
{
closed = 1;
nodes = (
(566,500,l),
(476,500,l),
(476,445,l),
(566,480,l)
);
},
{
closed = 1;
nodes = (
(353,480,l),
(443,445,l),
(443,500,l),
(353,500,l)
);
},
{
closed = 1;
nodes = (
(206,-262,l),
(316,0,l),
(496,500,l),
(443,500,l),
(269,17,l),
(114,-227,l),
(123,-247,l)
);
},
{
closed = 1;
nodes = (
(146,623,o),
(171,598,o),
(203,598,cs),
(235,598,o),
(258,623,o),
(258,655,cs),
(258,685,o),
(235,710,o),
(203,710,cs),
(171,710,o),
(146,685,o),
(146,655,cs)
);
},
{
closed = 1;
nodes = (
(313,623,o),
(337,598,o),
(369,598,cs),
(401,598,o),
(425,623,o),
(425,655,cs),
(425,685,o),
(401,710,o),
(369,710,cs),
(337,710,o),
(313,685,o),
(313,655,cs)
);
}
);
width = 551;
}
);
unicode = 255;
},
{
glyphname = z;
lastChange = "2024-12-28 19:31:45 +0000";
layers = (
{
layerId = "41C87B6E-BB58-4237-A2FA-B195285FD109";
shapes = (
{
closed = 1;
nodes = (
(50,450,l),
(435,450,l),
(435,500,l),
(50,500,l)
);
},
{
closed = 1;
nodes = (
(45,0,l),
(430,0,l),
(430,50,l),
(45,50,l)
);
},
{
closed = 1;
nodes = (
(50,330,l),
(70,330,l),
(127,450,l),
(127,450,o),
(129,500,o),
(129,500,c),
(129,500,o),
(50,500,o),
(50,500,c)
);
},
{
closed = 1;
nodes = (
(435,450,l),
(337,450,l),
(45,50,l),
(143,50,l)
);
},
{
closed = 1;
nodes = (
(430,170,l),
(410,170,l),
(353,50,l),
(353,50,o),
(351,0,o),
(351,0,c),
(351,0,o),
(430,0,o),
(430,0,c)
);
}
);
width = 455;
}
);
unicode = 122;
},
{
glyphname = ordfeminine;
lastChange = "2024-12-28 19:31:45 +0000";
layers = (
{
associatedMasterId = "41C87B6E-BB58-4237-A2FA-B195285FD109";
layerId = "58169014-C2AF-4848-951C-D1AF2D5F80B0";
name = img;
width = 497;
},
{
hints = (
{
horizontal = 1;
place = (-12,54);
type = Stem;
},
{
horizontal = 1;
place = (56,68);
type = Stem;
},
{
horizontal = 1;
place = (256,40);
type = Stem;
},
{
horizontal = 1;
place = (471,41);
type = Stem;
},
{
place = (37,98);
type = Stem;
},
{
place = (83,20);
type = Stem;
},
{
place = (315,28);
type = Stem;
}
);
layerId = "41C87B6E-BB58-4237-A2FA-B195285FD109";
shapes = (
{
closed = 1;
nodes = (
(329,379,l),
(307,334,o),
(255,305,o),
(209,305,cs),
(167,305,o),
(135,321,o),
(135,373,cs),
(135,441,o),
(194,488,o),
(330,490,c),
(330,490,o),
(330,533,o),
(330,533,c),
(213,533,o),
(45,504,o),
(45,364,cs),
(45,301,o),
(83,245,o),
(176,245,cs),
(248,245,o),
(297,289,o),
(333,334,c)
);
},
{
closed = 1;
nodes = (
(398,313,l),
(398,603,ls),
(398,699,o),
(336,732,o),
(242,732,cs),
(198,732,o),
(132,722,o),
(76,701,c),
(76,572,l),
(106,572,l),
(106,572,o),
(146,667,o),
(146,667,c),
(170,673,o),
(200,678,o),
(228,678,cs),
(289,678,o),
(305,661,o),
(305,575,cs),
(305,319,l)
);
},
{
closed = 1;
nodes = (
(482,296,l),
(398,319,l),
(305,328,l),
(305,301,ls),
(305,256,o),
(347,241,o),
(383,248,c),
(482,279,l)
);
}
);
width = 497;
}
);
unicode = 170;
},
{
glyphname = ordmasculine;
lastChange = "2024-12-28 19:31:45 +0000";
layers = (
{
associatedMasterId = "41C87B6E-BB58-4237-A2FA-B195285FD109";
layerId = "58169014-C2AF-4848-951C-D1AF2D5F80B0";
name = img;
width = 514;
},
{
guides = (
{
pos = (0,502);
},
{
angle = 90;
pos = (369,0);
}
);
layerId = "41C87B6E-BB58-4237-A2FA-B195285FD109";
shapes = (
{
closed = 1;
nodes = (
(45,344,o),
(122,245,o),
(257,245,cs),
(392,245,o),
(469,344,o),
(469,488,cs),
(469,633,o),
(392,732,o),
(257,732,cs),
(122,732,o),
(45,633,o),
(45,488,cs)
);
},
{
closed = 1;
nodes = (
(133,607,o),
(176,688,o),
(257,688,cs),
(338,688,o),
(384,607,o),
(384,488,cs),
(384,370,o),
(338,289,o),
(257,289,cs),
(176,289,o),
(133,370,o),
(133,488,cs)
);
}
);
width = 514;
}
);
unicode = 186;
},
{
glyphname = zero;
lastChange = "2024-12-28 19:31:45 +0000";
layers = (
{
hints = (
{
horizontal = 1;
place = (0,20);
type = Stem;
},
{
horizontal = 1;
place = (335,57);
type = Stem;
},
{
horizontal = 1;
place = (680,20);
type = Stem;
},
{
place = (63,90);
type = Stem;
},
{
place = (467,90);
type = Stem;
}
);
layerId = "41C87B6E-BB58-4237-A2FA-B195285FD109";
shapes = (
{
closed = 1;
nodes = (
(486,-20,o),
(565,143,o),
(565,359,cs),
(565,575,o),
(499,740,o),
(318,740,c),
(135,740,o),
(55,574,o),
(55,358,cs),
(55,142,o),
(122,-20,o),
(305,-20,cs)
);
},
{
closed = 1;
nodes = (
(441,685,o),
(466,536,o),
(466,359,cs),
(466,182,o),
(441,33,o),
(311,33,cs),
(179,33,o),
(154,181,o),
(154,358,cs),
(154,534,o),
(178,685,o),
(311,685,cs)
);
}
);
width = 629;
}
);
unicode = 48;
},
{
glyphname = one;
lastChange = "2024-12-28 19:31:45 +0000";
layers = (
{
layerId = "41C87B6E-BB58-4237-A2FA-B195285FD109";
shapes = (
{
closed = 1;
nodes = (
(46,596,l),
(182,628,l),
(182,58,l),
(52,38,l),
(52,0,l),
(374,0,l),
(374,38,l),
(274,58,l),
(274,732,l),
(236,732,l),
(35,639,l)
);
}
);
width = 429;
}
);
unicode = 49;
},
{
glyphname = two;
lastChange = "2024-12-28 19:31:45 +0000";
layers = (
{
layerId = "41C87B6E-BB58-4237-A2FA-B195285FD109";
shapes = (
{
closed = 1;
nodes = (
(509,192,l),
(474,192,l),
(441,79,l),
(151,79,l),
(315,243,ls),
(473,401,o),
(483,462,o),
(483,555,cs),
(483,695,o),
(365,740,o),
(239,740,cs),
(178,740,o),
(112,729,o),
(63,710,c),
(63,530,l),
(93,530,l),
(145,675,l),
(174,681,o),
(205,685,o),
(228,685,cs),
(326,685,o),
(378,632,o),
(378,540,cs),
(378,456,o),
(342,365,o),
(245,267,cs),
(45,64,l),
(45,0,l),
(509,0,l)
);
}
);
width = 565;
}
);
unicode = 50;
},
{
glyphname = three;
lastChange = "2024-12-28 19:31:45 +0000";
layers = (
{
layerId = "41C87B6E-BB58-4237-A2FA-B195285FD109";
shapes = (
{
closed = 1;
nodes = (
(133,54,l),
(80,199,l),
(80,199,o),
(55,199,o),
(55,199,c),
(55,199,o),
(55,13,o),
(55,13,c)
);
},
{
closed = 1;
nodes = (
(441,698,o),
(333,740,o),
(221,740,cs),
(157,740,o),
(104,728,o),
(58,711,c),
(58,531,l),
(88,531,l),
(140,676,l),
(166,681,o),
(190,684,o),
(212,684,cs),
(291,684,o),
(345,650,o),
(345,551,cs),
(345,485,o),
(306,406,o),
(230,406,cs),
(180,406,l),
(180,339,l),
(231,339,ls),
(314,339,o),
(376,276,o),
(376,182,cs),
(376,73,o),
(312,33,o),
(224,33,cs),
(190,33,o),
(165,40,o),
(133,54,c),
(55,13,l),
(107,-9,o),
(164,-20,o),
(217,-20,cs),
(364,-20,o),
(473,47,o),
(473,182,cs),
(473,301,o),
(413,345,o),
(318,377,c),
(318,381,l),
(396,414,o),
(441,490,o),
(441,558,cs)
);
}
);
width = 528;
}
);
unicode = 51;
},
{
glyphname = four;
lastChange = "2024-12-28 19:31:45 +0000";
layers = (
{
layerId = "41C87B6E-BB58-4237-A2FA-B195285FD109";
shapes = (
{
closed = 1;
nodes = (
(352,740,l),
(5,232,l),
(5,153,l),
(330,153,l),
(330,0,l),
(420,0,l),
(420,153,l),
(516,153,l),
(516,230,l),
(420,230,l),
(420,740,l)
);
},
{
closed = 1;
nodes = (
(80,230,l),
(330,602,l),
(330,230,l)
);
}
);
width = 561;
}
);
unicode = 52;
},
{
glyphname = five;
lastChange = "2024-12-28 19:31:45 +0000";
layers = (
{
layerId = "41C87B6E-BB58-4237-A2FA-B195285FD109";
shapes = (
{
closed = 1;
nodes = (
(45,13,o),
(45,199,o),
(45,199,c),
(45,199,o),
(70,199,o),
(70,199,c),
(123,54,l),
(155,40,o),
(180,33,o),
(214,33,cs),
(300,33,o),
(381,80,o),
(381,189,cs),
(381,281,o),
(349,387,o),
(191,387,cs),
(156,387,o),
(114,382,o),
(65,371,c),
(65,720,l),
(450,720,l),
(450,643,l),
(133,643,l),
(133,441,l),
(175,449,o),
(211,453,o),
(244,453,cs),
(428,453,o),
(479,324,o),
(479,225,cs),
(479,70,o),
(347,-20,o),
(199,-20,cs),
(148,-20,o),
(95,-9,o),
(45,13,c)
);
}
);
width = 514;
}
);
unicode = 53;
},
{
glyphname = six;
lastChange = "2024-12-28 19:31:45 +0000";
layers = (
{
layerId = "41C87B6E-BB58-4237-A2FA-B195285FD109";
shapes = (
{
closed = 1;
nodes = (
(383,33,o),
(458,92,o),
(458,225,cs),
(458,358,o),
(383,408,o),
(297,408,cs),
(250,408,o),
(192,391,o),
(144,366,c),
(144,366,o),
(144,395,o),
(144,395,c),
(196,435,o),
(267,471,o),
(330,471,cs),
(456,471,o),
(557,380,o),
(557,231,cs),
(557,76,o),
(445,-20,o),
(307,-20,cs),
(139,-20,o),
(55,103,o),
(55,326,cs),
(55,538,o),
(180,740,o),
(393,740,cs),
(429,740,o),
(467,736,o),
(504,727,c),
(499,689,l),
(481,692,o),
(462,693,o),
(443,693,cs),
(275,693,o),
(156,559,o),
(156,322,cs),
(156,150,o),
(193,33,o),
(307,33,cs)
);
}
);
width = 592;
}
);
unicode = 54;
},
{
glyphname = seven;
lastChange = "2024-12-28 19:31:45 +0000";
layers = (
{
layerId = "41C87B6E-BB58-4237-A2FA-B195285FD109";
shapes = (
{
closed = 1;
nodes = (
(474,684,l),
(474,720,l),
(15,720,l),
(15,539,l),
(67,539,l),
(88,642,l),
(390,642,l),
(133,0,l),
(236,0,l)
);
}
);
width = 529;
}
);
unicode = 55;
},
{
glyphname = eight;
lastChange = "2024-12-28 19:31:45 +0000";
layers = (
{
guides = (
{
angle = 90;
pos = (569,0);
}
);
hints = (
{
horizontal = 1;
place = (0,20);
type = Stem;
},
{
horizontal = 1;
place = (335,57);
type = Stem;
},
{
horizontal = 1;
place = (680,20);
type = Stem;
},
{
place = (39,90);
type = Stem;
},
{
place = (443,90);
type = Stem;
}
);
layerId = "41C87B6E-BB58-4237-A2FA-B195285FD109";
shapes = (
{
closed = 1;
nodes = (
(417,414,o),
(485,482,o),
(485,555,cs),
(485,665,o),
(411,740,o),
(278,740,cs),
(176,740,o),
(72,675,o),
(72,552,cs),
(72,484,o),
(100,424,o),
(198,377,c),
(270,339,l),
(394,281,o),
(416,227,o),
(416,177,cs),
(416,107,o),
(365,33,o),
(278,33,cs),
(194,33,o),
(138,100,o),
(138,193,cs),
(138,287,o),
(171,334,o),
(249,370,c),
(249,370,o),
(215,392,o),
(215,392,c),
(97,354,o),
(45,272,o),
(45,190,cs),
(45,84,o),
(131,-20,o),
(278,-20,cs),
(426,-20,o),
(516,89,o),
(516,192,cs),
(516,315,o),
(428,350,o),
(305,412,cs),
(198,466,o),
(169,504,o),
(169,564,cs),
(169,639,o),
(213,686,o),
(278,686,cs),
(357,686,o),
(394,625,o),
(394,544,cs),
(394,494,o),
(360,431,o),
(300,391,c),
(300,391,o),
(322,368,o),
(322,368,c)
);
}
);
width = 561;
}
);
unicode = 56;
},
{
glyphname = nine;
lastChange = "2024-12-28 19:31:45 +0000";
layers = (
{
associatedMasterId = "41C87B6E-BB58-4237-A2FA-B195285FD109";
layerId = "58169014-C2AF-4848-951C-D1AF2D5F80B0";
name = img;
width = 592;
},
{
layerId = "41C87B6E-BB58-4237-A2FA-B195285FD109";
shapes = (
{
closed = 1;
nodes = (
(209,687,o),
(134,628,o),
(134,495,cs),
(134,362,o),
(209,312,o),
(295,312,cs),
(342,312,o),
(400,329,o),
(448,354,c),
(448,354,o),
(448,325,o),
(448,325,c),
(396,285,o),
(325,249,o),
(262,249,cs),
(136,249,o),
(35,340,o),
(35,489,cs),
(35,644,o),
(147,740,o),
(285,740,cs),
(453,740,o),
(537,617,o),
(537,394,cs),
(537,182,o),
(412,-20,o),
(199,-20,cs),
(163,-20,o),
(125,-16,o),
(88,-7,c),
(93,31,l),
(111,28,o),
(130,27,o),
(149,27,cs),
(317,27,o),
(436,161,o),
(436,398,cs),
(436,570,o),
(399,687,o),
(285,687,cs)
);
}
);
width = 592;
}
);
unicode = 57;
},
{
glyphname = fraction;
lastChange = "2024-12-28 19:31:45 +0000";
layers = (
{
associatedMasterId = "41C87B6E-BB58-4237-A2FA-B195285FD109";
layerId = "58169014-C2AF-4848-951C-D1AF2D5F80B0";
name = img;
width = 357;
},
{
layerId = "41C87B6E-BB58-4237-A2FA-B195285FD109";
shapes = (
{
closed = 1;
nodes = (
(348,720,l),
(283,720,l),
(-58,-23,l),
(7,-23,l)
);
}
);
width = 357;
}
);
unicode = 8260;
},
{
glyphname = onehalf;
lastChange = "2024-12-28 19:31:45 +0000";
layers = (
{
associatedMasterId = "41C87B6E-BB58-4237-A2FA-B195285FD109";
layerId = "58169014-C2AF-4848-951C-D1AF2D5F80B0";
name = img;
width = 960;
},
{
layerId = "41C87B6E-BB58-4237-A2FA-B195285FD109";
shapes = (
{
closed = 1;
nodes = (
(895,124,l),
(873,124,l),
(851,66,l),
(693,66,l),
(790,161,ls),
(861,230,o),
(883,268,o),
(883,314,cs),
(883,437,o),
(731,438,o),
(618,404,c),
(618,289,l),
(644,289,l),
(676,374,l),
(755,390,o),
(806,370,o),
(806,313,cs),
(806,275,o),
(796,251,o),
(746,198,cs),
(613,54,l),
(613,0,l),
(894,0,l)
);
},
{
closed = 1;
nodes = (
(253,317,l),
(253,732,l),
(208,732,l),
(65,665,l),
(79,624,l),
(177,652,l),
(177,317,l)
);
},
{
closed = 1;
nodes = (
(253,375,l),
(253,375,o),
(177,375,o),
(177,375,c),
(76,355,l),
(76,317,l),
(342,317,l),
(342,355,l)
);
},
{
closed = 1;
nodes = (
(682,720,l),
(617,720,l),
(276,-23,l),
(341,-23,l)
);
}
);
width = 960;
}
);
unicode = 189;
},
{
glyphname = onequarter;
lastChange = "2024-12-28 19:31:45 +0000";
layers = (
{
associatedMasterId = "41C87B6E-BB58-4237-A2FA-B195285FD109";
layerId = "58169014-C2AF-4848-951C-D1AF2D5F80B0";
name = img;
width = 936;
},
{
layerId = "41C87B6E-BB58-4237-A2FA-B195285FD109";
shapes = (
{
closed = 1;
nodes = (
(253,317,l),
(253,732,l),
(208,732,l),
(65,665,l),
(79,624,l),
(177,652,l),
(177,317,l)
);
},
{
closed = 1;
nodes = (
(253,375,l),
(253,375,o),
(177,375,o),
(177,375,c),
(76,355,l),
(76,317,l),
(342,317,l),
(342,355,l)
);
},
{
closed = 1;
nodes = (
(682,720,l),
(617,720,l),
(276,-23,l),
(341,-23,l)
);
},
{
closed = 1;
nodes = (
(756,433,l),
(530,148,l),
(530,91,l),
(738,91,l),
(738,0,l),
(814,0,l),
(814,91,l),
(871,91,l),
(871,137,l),
(814,147,l),
(814,433,l)
);
},
{
closed = 1;
nodes = (
(590,147,l),
(738,332,l),
(738,147,l)
);
}
);
width = 936;
}
);
unicode = 188;
},
{
glyphname = threequarters;
lastChange = "2024-12-28 19:31:45 +0000";
layers = (
{
associatedMasterId = "41C87B6E-BB58-4237-A2FA-B195285FD109";
layerId = "58169014-C2AF-4848-951C-D1AF2D5F80B0";
name = img;
width = 896;
},
{
layerId = "41C87B6E-BB58-4237-A2FA-B195285FD109";
shapes = (
{
closed = 1;
nodes = (
(716,433,l),
(490,148,l),
(490,91,l),
(698,91,l),
(698,0,l),
(774,0,l),
(774,91,l),
(831,91,l),
(831,137,l),
(774,147,l),
(774,433,l)
);
},
{
closed = 1;
nodes = (
(550,147,l),
(698,332,l),
(698,147,l)
);
},
{
closed = 1;
nodes = (
(642,720,l),
(577,720,l),
(236,-23,l),
(301,-23,l)
);
},
{
closed = 1;
nodes = (
(191,531,l),
(214,531,ls),
(275,531,o),
(314,588,o),
(314,634,cs),
(314,705,o),
(263,742,o),
(188,742,cs),
(146,742,o),
(107,733,o),
(66,721,c),
(66,606,l),
(92,606,l),
(120,691,l),
(134,694,o),
(158,696,o),
(173,696,cs),
(218,696,o),
(246,679,o),
(246,630,cs),
(246,586,o),
(209,547,o),
(154,547,c)
);
},
{
closed = 1;
nodes = (
(113,367,l),
(84,444,l),
(84,444,o),
(65,444,o),
(65,444,c),
(65,444,o),
(65,329,o),
(65,329,c)
);
},
{
closed = 1;
nodes = (
(154,547,l),
(154,503,l),
(234,499,o),
(260,481,o),
(260,424,cs),
(260,374,o),
(226,354,o),
(182,354,cs),
(160,354,o),
(132,359,o),
(113,367,c),
(65,329,l),
(103,314,o),
(145,306,o),
(184,306,cs),
(256,306,o),
(331,345,o),
(331,420,cs),
(331,475,o),
(309,520,o),
(236,530,c),
(236,547,l)
);
}
);
width = 896;
}
);
unicode = 190;
},
{
glyphname = onesuperior;
lastChange = "2024-12-28 19:31:45 +0000";
layers = (
{
associatedMasterId = "41C87B6E-BB58-4237-A2FA-B195285FD109";
layerId = "58169014-C2AF-4848-951C-D1AF2D5F80B0";
name = img;
width = 347;
},
{
layerId = "41C87B6E-BB58-4237-A2FA-B195285FD109";
shapes = (
{
closed = 1;
nodes = (
(223,317,l),
(223,732,l),
(178,732,l),
(35,665,l),
(49,624,l),
(147,652,l),
(147,317,l)
);
},
{
closed = 1;
nodes = (
(223,375,l),
(223,375,o),
(147,375,o),
(147,375,c),
(46,355,l),
(46,317,l),
(312,317,l),
(312,355,l)
);
}
);
width = 347;
}
);
unicode = 185;
},
{
glyphname = twosuperior;
lastChange = "2024-12-28 19:31:45 +0000";
layers = (
{
associatedMasterId = "41C87B6E-BB58-4237-A2FA-B195285FD109";
layerId = "58169014-C2AF-4848-951C-D1AF2D5F80B0";
name = img;
width = 355;
},
{
guides = (
{
pos = (0,571);
},
{
pos = (0,791);
}
);
layerId = "41C87B6E-BB58-4237-A2FA-B195285FD109";
shapes = (
{
closed = 1;
nodes = (
(320,441,l),
(298,441,l),
(276,383,l),
(118,383,l),
(215,478,ls),
(286,547,o),
(308,585,o),
(308,631,cs),
(308,754,o),
(156,755,o),
(43,721,c),
(43,606,l),
(69,606,l),
(101,691,l),
(180,707,o),
(231,687,o),
(231,630,cs),
(231,592,o),
(221,568,o),
(171,515,cs),
(38,371,l),
(38,317,l),
(319,317,l)
);
}
);
width = 355;
}
);
unicode = 178;
},
{
glyphname = threesuperior;
lastChange = "2024-12-28 19:31:45 +0000";
layers = (
{
associatedMasterId = "41C87B6E-BB58-4237-A2FA-B195285FD109";
layerId = "58169014-C2AF-4848-951C-D1AF2D5F80B0";
name = img;
width = 388;
},
{
layerId = "41C87B6E-BB58-4237-A2FA-B195285FD109";
shapes = (
{
closed = 1;
nodes = (
(181,531,l),
(204,531,ls),
(265,531,o),
(304,588,o),
(304,634,cs),
(304,705,o),
(253,742,o),
(178,742,cs),
(136,742,o),
(97,733,o),
(56,721,c),
(56,606,l),
(82,606,l),
(110,691,l),
(124,694,o),
(148,696,o),
(163,696,cs),
(208,696,o),
(236,679,o),
(236,630,cs),
(236,586,o),
(199,547,o),
(144,547,c)
);
},
{
closed = 1;
nodes = (
(103,367,l),
(74,444,l),
(74,444,o),
(55,444,o),
(55,444,c),
(55,444,o),
(55,329,o),
(55,329,c)
);
},
{
closed = 1;
nodes = (
(144,547,l),
(144,503,l),
(224,499,o),
(250,481,o),
(250,424,cs),
(250,374,o),
(216,354,o),
(172,354,cs),
(150,354,o),
(122,359,o),
(103,367,c),
(55,329,l),
(93,314,o),
(135,306,o),
(174,306,cs),
(246,306,o),
(321,345,o),
(321,420,cs),
(321,475,o),
(299,520,o),
(226,530,c),
(226,547,l)
);
}
);
width = 388;
}
);
unicode = 179;
},
{
glyphname = foursuperior;
lastChange = "2024-12-28 19:31:45 +0000";
layers = (
{
associatedMasterId = "41C87B6E-BB58-4237-A2FA-B195285FD109";
layerId = "58169014-C2AF-4848-951C-D1AF2D5F80B0";
name = img;
width = 402;
},
{
layerId = "41C87B6E-BB58-4237-A2FA-B195285FD109";
shapes = (
{
closed = 1;
nodes = (
(231,750,l),
(5,465,l),
(5,408,l),
(213,408,l),
(213,317,l),
(289,317,l),
(289,408,l),
(346,408,l),
(346,454,l),
(289,464,l),
(289,750,l)
);
},
{
closed = 1;
nodes = (
(65,464,l),
(213,649,l),
(213,464,l)
);
}
);
width = 402;
}
);
unicode = 8308;
},
{
glyphname = .notdef;
lastChange = "2024-12-28 19:31:45 +0000";
layers = (
{
layerId = "41C87B6E-BB58-4237-A2FA-B195285FD109";
shapes = (
{
closed = 1;
nodes = (
(662,188,l),
(667,189,o),
(690,217,o),
(689,222,c),
(673,237,o),
(638,265,o),
(599,300,c),
(631,343,o),
(659,378,o),
(672,397,c),
(664,404,o),
(648,417,o),
(635,423,c),
(561,330,l),
(521,362,o),
(483,390,o),
(464,403,c),
(457,395,o),
(444,380,o),
(438,364,c),
(529,292,l),
(457,199,l),
(458,193,o),
(486,171,o),
(491,172,c),
(569,260,l)
);
},
{
closed = 1;
nodes = (
(881,501,l),
(880,502,l),
(879,403,o),
(849,246,o),
(639,103,c),
(639,96,o),
(636,79,o),
(621,79,c),
(609,67,l),
(640,56,o),
(673,44,o),
(704,29,c),
(725,29,o),
(756,34,o),
(787,11,c),
(787,6,o),
(786,7,o),
(783,4,c),
(764,13,o),
(750,20,o),
(725,17,c),
(738,10,o),
(751,3,o),
(762,-13,c),
(761,-16,o),
(758,-18,o),
(753,-19,c),
(734,0,o),
(714,14,o),
(689,13,c),
(667,13,o),
(661,9,o),
(638,-1,c),
(635,2,o),
(633,-2,o),
(632,5,c),
(645,20,o),
(655,19,o),
(675,26,c),
(632,50,o),
(588,56,o),
(588,64,cs),
(588,68,o),
(592,73,o),
(599,79,c),
(588,79,o),
(581,94,o),
(580,98,c),
(553,98,ls),
(534,98,o),
(517,99,o),
(498,102,c),
(495,94,o),
(487,76,o),
(471,79,c),
(464,75,o),
(459,72,o),
(456,69,c),
(483,52,o),
(512,35,o),
(540,12,c),
(562,7,o),
(589,10,o),
(612,-21,c),
(612,-26,o),
(610,-25,o),
(607,-28,c),
(591,-13,o),
(585,-9,o),
(558,-5,c),
(571,-13,o),
(580,-26,o),
(585,-44,c),
(584,-47,o),
(582,-49,o),
(577,-48,c),
(564,-27,o),
(548,-6,o),
(524,-1,c),
(503,2,o),
(479,0,o),
(454,-6,c),
(452,-3,o),
(451,-1,o),
(451,2,c),
(467,13,o),
(487,13,o),
(508,14,c),
(474,42,o),
(433,60,o),
(433,71,cs),
(433,78,o),
(438,78,o),
(446,85,c),
(437,94,o),
(438,109,o),
(439,117,c),
(322,181,o),
(262,284,o),
(225,345,c),
(154,369,o),
(82,391,o),
(39,426,c),
(30,434,o),
(32,448,o),
(45,448,c),
(301,426,l),
(529,472,o),
(609,478,o),
(638,521,c),
(678,592,o),
(717,619,o),
(774,619,cs),
(792,619,o),
(808,616,o),
(821,612,c),
(821,613,l),
(895,639,l),
(896,639,o),
(898,639,o),
(898,637,c),
(898,636,l),
(873,567,l),
(943,570,l),
(945,570,o),
(946,569,o),
(945,567,c)
);
}
);
width = 965;
}
);
},
{
glyphname = period;
lastChange = "2024-12-28 19:31:45 +0000";
layers = (
{
associatedMasterId = "41C87B6E-BB58-4237-A2FA-B195285FD109";
layerId = "58169014-C2AF-4848-951C-D1AF2D5F80B0";
name = img;
width = 233;
},
{
layerId = "41C87B6E-BB58-4237-A2FA-B195285FD109";
shapes = (
{
closed = 1;
nodes = (
(55,14,o),
(82,-13,o),
(117,-13,cs),
(151,-13,o),
(178,14,o),
(178,49,cs),
(178,83,o),
(151,110,o),
(117,110,cs),
(82,110,o),
(55,83,o),
(55,49,cs)
);
}
);
width = 233;
}
);
unicode = 46;
},
{
glyphname = comma;
lastChange = "2024-12-28 19:31:45 +0000";
layers = (
{
layerId = "41C87B6E-BB58-4237-A2FA-B195285FD109";
shapes = (
{
closed = 1;
nodes = (
(91,14,o),
(118,-13,o),
(153,-13,c),
(154,-22,l),
(154,-68,o),
(104,-107,o),
(55,-130,c),
(71,-160,l),
(152,-137,o),
(216,-61,o),
(216,28,cs),
(216,71,o),
(199,110,o),
(153,110,cs),
(118,110,o),
(91,83,o),
(91,49,cs)
);
}
);
width = 271;
}
);
unicode = 44;
},
{
glyphname = colon;
lastChange = "2024-12-28 19:31:45 +0000";
layers = (
{
layerId = "41C87B6E-BB58-4237-A2FA-B195285FD109";
shapes = (
{
closed = 1;
nodes = (
(75,15,o),
(102,-12,o),
(137,-12,cs),
(171,-12,o),
(198,15,o),
(198,50,cs),
(198,84,o),
(171,111,o),
(137,111,cs),
(102,111,o),
(75,84,o),
(75,50,cs)
);
},
{
closed = 1;
nodes = (
(75,410,o),
(102,383,o),
(137,383,cs),
(171,383,o),
(198,410,o),
(198,445,cs),
(198,479,o),
(171,506,o),
(137,506,cs),
(102,506,o),
(75,479,o),
(75,445,cs)
);
}
);
width = 273;
}
);
unicode = 58;
},
{
glyphname = semicolon;
lastChange = "2024-12-28 19:31:45 +0000";
layers = (
{
layerId = "41C87B6E-BB58-4237-A2FA-B195285FD109";
shapes = (
{
closed = 1;
nodes = (
(115,410,o),
(142,383,o),
(177,383,cs),
(211,383,o),
(238,410,o),
(238,445,cs),
(238,479,o),
(211,506,o),
(177,506,cs),
(142,506,o),
(115,479,o),
(115,445,cs)
);
},
{
closed = 1;
nodes = (
(111,14,o),
(138,-13,o),
(173,-13,c),
(174,-22,l),
(174,-68,o),
(124,-107,o),
(75,-130,c),
(91,-160,l),
(172,-137,o),
(236,-61,o),
(236,28,cs),
(236,71,o),
(219,110,o),
(173,110,cs),
(138,110,o),
(111,83,o),
(111,49,cs)
);
}
);
width = 311;
}
);
unicode = 59;
},
{
glyphname = exclam;
lastChange = "2024-12-28 19:31:45 +0000";
layers = (
{
associatedMasterId = "41C87B6E-BB58-4237-A2FA-B195285FD109";
layerId = "58169014-C2AF-4848-951C-D1AF2D5F80B0";
name = img;
width = 273;
},
{
layerId = "41C87B6E-BB58-4237-A2FA-B195285FD109";
shapes = (
{
closed = 1;
nodes = (
(75,14,o),
(102,-13,o),
(137,-13,cs),
(171,-13,o),
(198,14,o),
(198,49,cs),
(198,83,o),
(171,110,o),
(137,110,cs),
(102,110,o),
(75,83,o),
(75,49,cs)
);
},
{
closed = 1;
nodes = (
(112,165,l),
(95,750,l),
(185,750,l),
(168,165,l)
);
}
);
width = 273;
}
);
unicode = 33;
},
{
glyphname = exclamdown;
lastChange = "2024-12-28 19:31:45 +0000";
layers = (
{
associatedMasterId = "41C87B6E-BB58-4237-A2FA-B195285FD109";
layerId = "58169014-C2AF-4848-951C-D1AF2D5F80B0";
name = img;
width = 273;
},
{
layerId = "41C87B6E-BB58-4237-A2FA-B195285FD109";
shapes = (
{
closed = 1;
nodes = (
(198,663,o),
(171,690,o),
(136,690,cs),
(102,690,o),
(75,663,o),
(75,628,cs),
(75,594,o),
(102,567,o),
(136,567,cs),
(171,567,o),
(198,594,o),
(198,628,cs)
);
},
{
closed = 1;
nodes = (
(161,512,l),
(178,-73,l),
(88,-73,l),
(105,512,l)
);
}
);
width = 273;
}
);
unicode = 161;
},
{
glyphname = question;
lastChange = "2024-12-28 19:31:45 +0000";
layers = (
{
layerId = "41C87B6E-BB58-4237-A2FA-B195285FD109";
shapes = (
{
closed = 1;
nodes = (
(465,692,o),
(349,740,o),
(226,740,cs),
(167,740,o),
(105,729,o),
(55,710,c),
(55,530,l),
(85,530,l),
(137,675,l),
(164,682,o),
(189,685,o),
(214,685,cs),
(295,685,o),
(359,646,o),
(359,550,cs),
(359,497,o),
(341,437,o),
(303,396,cs),
(207,293,l),
(207,174,l),
(257,174,l),
(257,266,l),
(367,364,ls),
(436,425,o),
(465,491,o),
(465,563,cs)
);
},
{
closed = 1;
nodes = (
(170,14,o),
(197,-13,o),
(232,-13,cs),
(266,-13,o),
(293,14,o),
(293,49,cs),
(293,83,o),
(266,110,o),
(232,110,cs),
(197,110,o),
(170,83,o),
(170,49,cs)
);
}
);
width = 495;
}
);
unicode = 63;
},
{
glyphname = questiondown;
lastChange = "2024-12-28 19:31:45 +0000";
layers = (
{
associatedMasterId = "41C87B6E-BB58-4237-A2FA-B195285FD109";
layerId = "58169014-C2AF-4848-951C-D1AF2D5F80B0";
name = img;
width = 495;
},
{
layerId = "41C87B6E-BB58-4237-A2FA-B195285FD109";
shapes = (
{
closed = 1;
nodes = (
(30,-71,o),
(146,-119,o),
(269,-119,cs),
(329,-119,o),
(390,-108,o),
(440,-89,c),
(440,91,l),
(410,91,l),
(358,-54,l),
(332,-61,o),
(306,-64,o),
(281,-64,cs),
(200,-64,o),
(136,-25,o),
(136,71,cs),
(136,124,o),
(154,185,o),
(192,225,cs),
(288,328,l),
(288,447,l),
(238,447,l),
(238,355,l),
(128,257,ls),
(59,196,o),
(30,130,o),
(30,58,cs)
);
},
{
closed = 1;
nodes = (
(325,607,o),
(298,634,o),
(263,634,cs),
(229,634,o),
(202,607,o),
(202,572,cs),
(202,538,o),
(229,511,o),
(263,511,cs),
(298,511,o),
(325,538,o),
(325,572,cs)
);
}
);
width = 495;
}
);
unicode = 191;
},
{
glyphname = periodcentered;
lastChange = "2024-12-28 19:31:45 +0000";
layers = (
{
layerId = "41C87B6E-BB58-4237-A2FA-B195285FD109";
shapes = (
{
closed = 1;
nodes = (
(57,212,o),
(84,185,o),
(119,185,cs),
(153,185,o),
(180,212,o),
(180,247,cs),
(180,281,o),
(153,308,o),
(119,308,cs),
(84,308,o),
(57,281,o),
(57,247,cs)
);
}
);
width = 238;
}
);
unicode = 183;
},
{
glyphname = bullet;
lastChange = "2024-12-28 19:31:45 +0000";
layers = (
{
layerId = "41C87B6E-BB58-4237-A2FA-B195285FD109";
shapes = (
{
closed = 1;
nodes = (
(100,308,o),
(158,250,o),
(227,250,cs),
(296,250,o),
(353,308,o),
(353,376,cs),
(353,446,o),
(296,503,o),
(227,503,cs),
(158,503,o),
(100,446,o),
(100,376,cs)
);
}
);
width = 438;
}
);
unicode = 8226;
},
{
glyphname = asterisk;
lastChange = "2024-12-28 19:31:45 +0000";
layers = (
{
guides = (
{
angle = 90;
pos = (94,0);
}
);
layerId = "41C87B6E-BB58-4237-A2FA-B195285FD109";
shapes = (
{
closed = 1;
nodes = (
(194,667,l),
(224,667,l),
(252,821,l),
(232,836,l),
(186,836,l),
(166,821,l)
);
},
{
closed = 1;
nodes = (
(240,616,l),
(216,599,l),
(284,458,l),
(309,457,l),
(346,484,l),
(354,508,l)
);
},
{
closed = 1;
nodes = (
(201,599,l),
(178,617,l),
(65,508,l),
(72,484,l),
(109,457,l),
(134,457,l)
);
},
{
closed = 1;
nodes = (
(236,658,l),
(245,630,l),
(400,651,l),
(408,675,l),
(394,718,l),
(374,733,l)
);
},
{
closed = 1;
nodes = (
(173,631,l),
(183,658,l),
(45,732,l),
(24,718,l),
(10,674,l),
(17,651,l)
);
}
);
width = 416;
}
);
unicode = 42;
},
{
glyphname = numbersign;
lastChange = "2024-12-28 19:31:45 +0000";
layers = (
{
layerId = "41C87B6E-BB58-4237-A2FA-B195285FD109";
shapes = (
{
closed = 1;
nodes = (
(50,280,l),
(50,226,l),
(610,226,l),
(610,280,l)
);
},
{
closed = 1;
nodes = (
(100,500,l),
(100,446,l),
(660,446,l),
(660,500,l)
);
},
{
closed = 1;
nodes = (
(151,-21,l),
(387,750,l),
(321,761,l),
(85,-10,l)
);
},
{
closed = 1;
nodes = (
(370,-21,l),
(606,750,l),
(540,761,l),
(304,-10,l)
);
}
);
width = 686;
}
);
unicode = 35;
},
{
glyphname = slash;
lastChange = "2024-12-28 19:31:45 +0000";
layers = (
{
layerId = "41C87B6E-BB58-4237-A2FA-B195285FD109";
shapes = (
{
closed = 1;
nodes = (
(27,-184,l),
(468,750,l),
(391,750,l),
(-50,-184,l)
);
}
);
width = 418;
}
);
unicode = 47;
},
{
glyphname = backslash;
lastChange = "2024-12-28 19:31:45 +0000";
layers = (
{
layerId = "41C87B6E-BB58-4237-A2FA-B195285FD109";
shapes = (
{
closed = 1;
nodes = (
(468,-184,l),
(27,750,l),
(-50,750,l),
(391,-184,l)
);
}
);
width = 418;
}
);
unicode = 92;
},
{
glyphname = hyphen;
lastChange = "2024-12-28 19:31:45 +0000";
layers = (
{
layerId = "41C87B6E-BB58-4237-A2FA-B195285FD109";
shapes = (
{
closed = 1;
nodes = (
(50,330,l),
(50,270,l),
(360,270,l),
(360,330,l)
);
}
);
width = 410;
}
);
unicode = 45;
},
{
glyphname = softhyphen;
lastChange = "2024-12-28 19:31:45 +0000";
layers = (
{
layerId = "41C87B6E-BB58-4237-A2FA-B195285FD109";
shapes = (
{
closed = 1;
nodes = (
(50,330,l),
(50,270,l),
(400,270,l),
(400,330,l)
);
}
);
width = 450;
}
);
unicode = 173;
},
{
glyphname = endash;
lastChange = "2024-12-28 19:31:45 +0000";
layers = (
{
layerId = "41C87B6E-BB58-4237-A2FA-B195285FD109";
shapes = (
{
closed = 1;
nodes = (
(50,331,l),
(50,271,l),
(566,271,l),
(566,331,l)
);
}
);
width = 616;
}
);
unicode = 8211;
},
{
glyphname = emdash;
lastChange = "2024-12-28 19:31:45 +0000";
layers = (
{
layerId = "41C87B6E-BB58-4237-A2FA-B195285FD109";
shapes = (
{
closed = 1;
nodes = (
(50,330,l),
(50,270,l),
(906,270,l),
(906,330,l)
);
}
);
width = 956;
}
);
unicode = 8212;
},
{
glyphname = underscore;
lastChange = "2024-12-28 19:31:45 +0000";
layers = (
{
layerId = "41C87B6E-BB58-4237-A2FA-B195285FD109";
shapes = (
{
closed = 1;
nodes = (
(-3,-61,l),
(-3,-121,l),
(512,-121,l),
(512,-61,l)
);
}
);
width = 509;
}
);
unicode = 95;
},
{
glyphname = parenleft;
lastChange = "2024-12-28 19:31:45 +0000";
layers = (
{
layerId = "41C87B6E-BB58-4237-A2FA-B195285FD109";
shapes = (
{
closed = 1;
nodes = (
(307,-185,l),
(222,-68,o),
(174,110,o),
(174,300,cs),
(174,488,o),
(221,667,o),
(306,785,c),
(280,809,l),
(167,711,o),
(82,532,o),
(82,300,cs),
(82,66,o),
(167,-112,o),
(280,-209,c)
);
}
);
width = 322;
}
);
unicode = 40;
},
{
glyphname = parenright;
lastChange = "2024-12-28 19:31:45 +0000";
layers = (
{
layerId = "41C87B6E-BB58-4237-A2FA-B195285FD109";
shapes = (
{
closed = 1;
nodes = (
(15,-185,l),
(100,-68,o),
(148,110,o),
(148,300,cs),
(148,488,o),
(101,667,o),
(16,785,c),
(42,809,l),
(155,711,o),
(240,532,o),
(240,300,cs),
(240,66,o),
(155,-112,o),
(42,-209,c)
);
}
);
width = 322;
}
);
unicode = 41;
},
{
glyphname = braceleft;
lastChange = "2024-12-28 19:31:45 +0000";
layers = (
{
layerId = "41C87B6E-BB58-4237-A2FA-B195285FD109";
shapes = (
{
closed = 1;
nodes = (
(75,281,l),
(139,281,o),
(171,216,o),
(171,110,cs),
(171,-22,ls),
(171,-135,o),
(225,-183,o),
(360,-183,cs),
(375,-183,l),
(375,-145,l),
(274,-140,o),
(256,-116,o),
(256,-26,cs),
(256,85,ls),
(256,195,o),
(232,279,o),
(170,300,c),
(232,321,o),
(256,425,o),
(256,535,cs),
(256,631,ls),
(256,721,o),
(274,745,o),
(375,750,c),
(375,788,l),
(360,788,ls),
(225,788,o),
(171,740,o),
(171,627,cs),
(171,510,ls),
(171,404,o),
(139,319,o),
(75,319,c)
);
}
);
width = 410;
}
);
unicode = 123;
},
{
glyphname = braceright;
lastChange = "2024-12-28 19:31:45 +0000";
layers = (
{
layerId = "41C87B6E-BB58-4237-A2FA-B195285FD109";
shapes = (
{
closed = 1;
nodes = (
(335,281,l),
(271,281,o),
(239,216,o),
(239,110,cs),
(239,-22,ls),
(239,-135,o),
(185,-183,o),
(50,-183,cs),
(35,-183,l),
(35,-145,l),
(136,-140,o),
(154,-116,o),
(154,-26,cs),
(154,85,ls),
(154,195,o),
(178,279,o),
(240,300,c),
(178,321,o),
(154,425,o),
(154,535,cs),
(154,631,ls),
(154,721,o),
(136,745,o),
(35,750,c),
(35,788,l),
(50,788,ls),
(185,788,o),
(239,740,o),
(239,627,cs),
(239,510,ls),
(239,404,o),
(271,319,o),
(335,319,c)
);
}
);
width = 410;
}
);
unicode = 125;
},
{
glyphname = bracketleft;
lastChange = "2024-12-28 19:31:45 +0000";
layers = (
{
layerId = "41C87B6E-BB58-4237-A2FA-B195285FD109";
shapes = (
{
closed = 1;
nodes = (
(100,-183,l),
(100,805,l),
(299,805,l),
(299,750,l),
(185,750,l),
(185,-128,l),
(299,-128,l),
(299,-183,l)
);
}
);
width = 324;
}
);
unicode = 91;
},
{
glyphname = bracketright;
lastChange = "2024-12-28 19:31:45 +0000";
layers = (
{
layerId = "41C87B6E-BB58-4237-A2FA-B195285FD109";
shapes = (
{
closed = 1;
nodes = (
(214,805,l),
(214,-183,l),
(15,-183,l),
(15,-128,l),
(129,-128,l),
(129,750,l),
(15,750,l),
(15,805,l)
);
}
);
width = 314;
}
);
unicode = 93;
},
{
glyphname = quotesinglbase;
lastChange = "2024-12-28 19:31:45 +0000";
layers = (
{
layerId = "41C87B6E-BB58-4237-A2FA-B195285FD109";
shapes = (
{
closed = 1;
nodes = (
(91,14,o),
(118,-13,o),
(153,-13,c),
(154,-22,l),
(154,-68,o),
(104,-107,o),
(55,-130,c),
(71,-160,l),
(152,-137,o),
(216,-61,o),
(216,28,cs),
(216,71,o),
(199,110,o),
(153,110,cs),
(118,110,o),
(91,83,o),
(91,49,cs)
);
}
);
width = 271;
}
);
unicode = 8218;
},
{
glyphname = quotedblbase;
lastChange = "2024-12-28 19:31:45 +0000";
layers = (
{
layerId = "41C87B6E-BB58-4237-A2FA-B195285FD109";
shapes = (
{
closed = 1;
nodes = (
(291,13,o),
(318,-14,o),
(353,-14,c),
(354,-23,l),
(354,-69,o),
(304,-108,o),
(255,-131,c),
(271,-161,l),
(352,-138,o),
(416,-62,o),
(416,27,cs),
(416,70,o),
(399,109,o),
(353,109,cs),
(318,109,o),
(291,82,o),
(291,48,cs)
);
},
{
closed = 1;
nodes = (
(91,13,o),
(118,-14,o),
(153,-14,c),
(154,-23,l),
(154,-69,o),
(104,-108,o),
(55,-131,c),
(71,-161,l),
(152,-138,o),
(216,-62,o),
(216,27,cs),
(216,70,o),
(199,109,o),
(153,109,cs),
(118,109,o),
(91,82,o),
(91,48,cs)
);
}
);
width = 471;
}
);
unicode = 8222;
},
{
glyphname = quotedblleft;
lastChange = "2024-12-28 19:31:45 +0000";
layers = (
{
layerId = "41C87B6E-BB58-4237-A2FA-B195285FD109";
shapes = (
{
closed = 1;
nodes = (
(200,566,o),
(173,593,o),
(138,593,c),
(137,602,l),
(137,648,o),
(187,687,o),
(236,710,c),
(220,740,l),
(139,717,o),
(75,641,o),
(75,552,cs),
(75,509,o),
(92,470,o),
(138,470,cs),
(173,470,o),
(200,497,o),
(200,531,cs)
);
},
{
closed = 1;
nodes = (
(400,566,o),
(373,593,o),
(338,593,c),
(337,602,l),
(337,648,o),
(387,687,o),
(436,710,c),
(420,740,l),
(339,717,o),
(275,641,o),
(275,552,cs),
(275,509,o),
(292,470,o),
(338,470,cs),
(373,470,o),
(400,497,o),
(400,531,cs)
);
}
);
width = 471;
}
);
unicode = 8220;
},
{
glyphname = quotedblright;
lastChange = "2024-12-28 19:31:45 +0000";
layers = (
{
layerId = "41C87B6E-BB58-4237-A2FA-B195285FD109";
shapes = (
{
closed = 1;
nodes = (
(271,644,o),
(298,617,o),
(333,617,c),
(334,608,l),
(334,562,o),
(284,523,o),
(235,500,c),
(251,470,l),
(332,493,o),
(396,569,o),
(396,658,cs),
(396,701,o),
(379,740,o),
(333,740,cs),
(298,740,o),
(271,713,o),
(271,679,cs)
);
},
{
closed = 1;
nodes = (
(71,644,o),
(98,617,o),
(133,617,c),
(134,608,l),
(134,562,o),
(84,523,o),
(35,500,c),
(51,470,l),
(132,493,o),
(196,569,o),
(196,658,cs),
(196,701,o),
(179,740,o),
(133,740,cs),
(98,740,o),
(71,713,o),
(71,679,cs)
);
}
);
width = 471;
}
);
unicode = 8221;
},
{
glyphname = quoteleft;
lastChange = "2024-12-28 19:31:45 +0000";
layers = (
{
layerId = "41C87B6E-BB58-4237-A2FA-B195285FD109";
shapes = (
{
closed = 1;
nodes = (
(200,566,o),
(173,593,o),
(138,593,c),
(137,602,l),
(137,648,o),
(187,687,o),
(236,710,c),
(220,740,l),
(139,717,o),
(75,641,o),
(75,552,cs),
(75,509,o),
(92,470,o),
(138,470,cs),
(173,470,o),
(200,497,o),
(200,531,cs)
);
}
);
width = 271;
}
);
unicode = 8216;
},
{
glyphname = quoteright;
lastChange = "2024-12-28 19:31:45 +0000";
layers = (
{
layerId = "41C87B6E-BB58-4237-A2FA-B195285FD109";
shapes = (
{
closed = 1;
nodes = (
(71,644,o),
(98,617,o),
(133,617,c),
(134,608,l),
(134,562,o),
(84,523,o),
(35,500,c),
(51,470,l),
(132,493,o),
(196,569,o),
(196,658,cs),
(196,701,o),
(179,740,o),
(133,740,cs),
(98,740,o),
(71,713,o),
(71,679,cs)
);
}
);
width = 271;
}
);
unicode = 8217;
},
{
glyphname = guillemetleft;
lastChange = "2024-12-28 19:31:45 +0000";
layers = (
{
layerId = "41C87B6E-BB58-4237-A2FA-B195285FD109";
shapes = (
{
closed = 1;
nodes = (
(162,290,l),
(308,510,l),
(292,523,l),
(55,301,l),
(55,279,l),
(292,57,l),
(308,70,l)
);
},
{
closed = 1;
nodes = (
(335,290,l),
(438,478,l),
(422,491,l),
(240,300,l),
(240,280,l),
(422,89,l),
(438,102,l)
);
}
);
width = 473;
}
);
unicode = 171;
},
{
glyphname = guillemetright;
lastChange = "2024-12-28 19:31:45 +0000";
layers = (
{
layerId = "41C87B6E-BB58-4237-A2FA-B195285FD109";
shapes = (
{
closed = 1;
nodes = (
(165,70,l),
(181,57,l),
(418,279,l),
(418,301,l),
(181,523,l),
(165,510,l),
(311,290,l)
);
},
{
closed = 1;
nodes = (
(35,102,l),
(51,89,l),
(233,280,l),
(233,300,l),
(51,491,l),
(35,478,l),
(138,290,l)
);
}
);
width = 473;
}
);
unicode = 187;
},
{
glyphname = guilsinglleft;
lastChange = "2024-12-28 19:31:45 +0000";
layers = (
{
layerId = "41C87B6E-BB58-4237-A2FA-B195285FD109";
shapes = (
{
closed = 1;
nodes = (
(162,290,l),
(308,510,l),
(292,523,l),
(55,301,l),
(55,279,l),
(292,57,l),
(308,70,l)
);
}
);
width = 343;
}
);
unicode = 8249;
},
{
glyphname = guilsinglright;
lastChange = "2024-12-28 19:31:45 +0000";
layers = (
{
layerId = "41C87B6E-BB58-4237-A2FA-B195285FD109";
shapes = (
{
closed = 1;
nodes = (
(35,70,l),
(51,57,l),
(288,279,l),
(288,301,l),
(51,523,l),
(35,510,l),
(181,290,l)
);
}
);
width = 343;
}
);
unicode = 8250;
},
{
glyphname = quotedbl;
lastChange = "2024-12-28 19:31:45 +0000";
layers = (
{
layerId = "41C87B6E-BB58-4237-A2FA-B195285FD109";
shapes = (
{
closed = 1;
nodes = (
(69,473,l),
(112,473,l),
(132,732,l),
(51,732,l)
);
},
{
closed = 1;
nodes = (
(209,473,l),
(252,473,l),
(272,732,l),
(191,732,l)
);
}
);
width = 336;
}
);
unicode = 34;
},
{
glyphname = quotesingle;
lastChange = "2024-12-28 19:31:45 +0000";
layers = (
{
layerId = "41C87B6E-BB58-4237-A2FA-B195285FD109";
shapes = (
{
closed = 1;
nodes = (
(69,473,l),
(112,473,l),
(132,732,l),
(51,732,l)
);
}
);
width = 196;
}
);
unicode = 39;
},
{
glyphname = at;
lastChange = "2024-12-28 19:31:45 +0000";
layers = (
{
guides = (
{
angle = 90;
pos = (1305,0);
},
{
angle = 90;
pos = (1128,0);
}
);
layerId = "41C87B6E-BB58-4237-A2FA-B195285FD109";
shapes = (
{
closed = 1;
nodes = (
(557,130,ls),
(557,110,o),
(572,87,o),
(598,87,cs),
(767,87,o),
(875,219,o),
(875,402,cs),
(875,584,o),
(726,715,o),
(504,715,cs),
(250,715,o),
(60,533,o),
(60,287,cs),
(60,15,o),
(267,-110,o),
(473,-110,cs),
(545,-110,o),
(629,-85,o),
(704,-39,c),
(688,-8,l),
(628,-33,o),
(563,-50,o),
(501,-50,cs),
(316,-50,o),
(151,57,o),
(151,286,cs),
(151,507,o),
(315,652,o),
(506,652,cs),
(682,652,o),
(804,553,o),
(804,410,cs),
(804,276,o),
(758,154,o),
(637,154,c),
(637,541,l),
(367,552,o),
(281,377,o),
(281,247,cs),
(281,165,o),
(309,89,o),
(397,89,cs),
(466,89,o),
(492,114,o),
(554,194,c),
(557,193,l)
);
},
{
closed = 1;
nodes = (
(393,161,o),
(366,196,o),
(366,254,cs),
(366,355,o),
(440,488,o),
(551,488,c),
(551,244,l),
(502,181,o),
(468,161,o),
(426,161,cs)
);
}
);
width = 925;
}
);
unicode = 64;
},
{
glyphname = ampersand;
lastChange = "2024-12-28 19:31:45 +0000";
layers = (
{
hints = (
{
horizontal = 1;
place = (0,20);
type = Stem;
},
{
horizontal = 1;
place = (335,57);
type = Stem;
},
{
horizontal = 1;
place = (680,20);
type = Stem;
},
{
place = (94,90);
type = Stem;
},
{
place = (498,90);
type = Stem;
}
);
layerId = "41C87B6E-BB58-4237-A2FA-B195285FD109";
shapes = (
{
closed = 1;
nodes = (
(714,352,l),
(714,372,l),
(613,372,l),
(502,56,o),
(366,38,o),
(294,38,cs),
(215,38,o),
(160,70,o),
(160,166,cs),
(160,260,o),
(237,317,o),
(318,363,cs),
(442,434,o),
(490,484,o),
(490,571,cs),
(490,654,o),
(426,731,o),
(308,731,cs),
(192,731,o),
(118,641,o),
(118,548,cs),
(118,502,o),
(135,452,o),
(169,414,cs),
(550,0,l),
(684,0,l),
(236,490,ls),
(213,515,o),
(206,545,o),
(206,574,cs),
(206,628,o),
(247,683,o),
(313,683,cs),
(367,683,o),
(408,642,o),
(408,569,cs),
(408,514,o),
(386,465,o),
(272,396,cs),
(116,302,o),
(52,272,o),
(52,153,cs),
(52,35,o),
(151,-20,o),
(261,-20,cs),
(357,-20,o),
(531,11,o),
(646,320,c)
);
},
{
closed = 1;
nodes = (
(737,20,l),
(633,55,l),
(633,0,l),
(737,0,l)
);
},
{
closed = 1;
nodes = (
(513,352,l),
(608,310,l),
(618,372,l),
(513,372,l)
);
}
);
width = 752;
}
);
unicode = 38;
},
{
glyphname = paragraph;
lastChange = "2024-12-28 19:31:45 +0000";
layers = (
{
layerId = "41C87B6E-BB58-4237-A2FA-B195285FD109";
shapes = (
{
closed = 1;
nodes = (
(461,671,l),
(227,671,ls),
(129,671,o),
(55,601,o),
(55,501,cs),
(55,404,o),
(124,336,o),
(218,331,c),
(218,-81,l),
(278,-81,l),
(278,611,l),
(349,611,l),
(349,-81,l),
(409,-81,l),
(409,611,l),
(461,611,l)
);
}
);
width = 561;
}
);
unicode = 182;
},
{
glyphname = section;
lastChange = "2024-12-28 19:31:45 +0000";
layers = (
{
hints = (
{
horizontal = 1;
place = (0,20);
type = Stem;
},
{
horizontal = 1;
place = (334,57);
type = Stem;
},
{
horizontal = 1;
place = (680,20);
type = Stem;
},
{
place = (71,90);
type = Stem;
},
{
place = (475,90);
type = Stem;
}
);
layerId = "41C87B6E-BB58-4237-A2FA-B195285FD109";
shapes = (
{
closed = 1;
nodes = (
(378,113,l),
(453,182,o),
(501,232,o),
(501,312,cs),
(501,389,o),
(456,430,o),
(329,506,cs),
(226,568,o),
(202,592,o),
(202,628,cs),
(202,683,o),
(245,709,o),
(301,709,cs),
(335,709,o),
(375,699,o),
(404,688,c),
(451,731,l),
(408,742,o),
(356,751,o),
(310,751,cs),
(193,751,o),
(124,694,o),
(124,611,cs),
(124,524,o),
(201,482,o),
(283,438,cs),
(359,397,o),
(415,354,o),
(415,293,cs),
(415,249,o),
(390,201,o),
(338,147,c)
);
},
{
closed = 1;
nodes = (
(403,690,l),
(427,594,l),
(427,594,o),
(451,594,o),
(451,594,c),
(451,594,o),
(451,731,o),
(451,731,c)
);
},
{
closed = 1;
nodes = (
(247,495,l),
(158,454,o),
(107,392,o),
(107,307,cs),
(107,212,o),
(185,167,o),
(250,130,cs),
(373,60,o),
(394,43,o),
(394,-6,cs),
(394,-62,o),
(358,-92,o),
(292,-90,cs),
(255,-89,o),
(216,-81,o),
(187,-74,c),
(120,-115,l),
(165,-129,o),
(225,-144,o),
(282,-144,cs),
(409,-144,o),
(470,-71,o),
(470,13,cs),
(470,94,o),
(414,130,o),
(300,197,cs),
(218,245,o),
(180,275,o),
(180,329,cs),
(180,385,o),
(214,427,o),
(280,460,c)
);
},
{
closed = 1;
nodes = (
(187,-74,l),
(143,47,l),
(143,47,o),
(120,47,o),
(120,47,c),
(120,47,o),
(120,-115,o),
(120,-115,c)
);
}
);
width = 550;
}
);
unicode = 167;
},
{
glyphname = copyright;
lastChange = "2024-12-28 19:31:45 +0000";
layers = (
{
hints = (
{
horizontal = 1;
place = (131,13);
type = Stem;
},
{
horizontal = 1;
place = (347,37);
type = Stem;
},
{
horizontal = 1;
place = (570,13);
type = Stem;
},
{
place = (277,58);
type = Stem;
},
{
place = (537,58);
type = Stem;
}
);
layerId = "41C87B6E-BB58-4237-A2FA-B195285FD109";
shapes = (
{
closed = 1;
nodes = (
(771,558,o),
(623,718,o),
(418,718,cs),
(215,718,o),
(55,556,o),
(55,353,cs),
(55,151,o),
(212,-12,o),
(412,-12,cs),
(614,-12,o),
(771,160,o),
(771,357,cs)
);
},
{
closed = 1;
nodes = (
(711,183,o),
(587,41,o),
(414,41,cs),
(242,41,o),
(116,180,o),
(116,353,cs),
(116,527,o),
(244,665,o),
(418,665,cs),
(592,665,o),
(711,528,o),
(711,357,cs)
);
},
{
closed = 1;
nodes = (
(472,522,l),
(512,444,l),
(512,444,o),
(533,444,o),
(533,444,c),
(533,444,o),
(533,546,o),
(533,546,c)
);
},
{
closed = 1;
nodes = (
(530,216,l),
(501,202,o),
(472,194,o),
(444,194,cs),
(362,194,o),
(308,231,o),
(308,352,cs),
(308,500,o),
(393,532,o),
(493,508,c),
(533,546,l),
(502,556,o),
(470,561,o),
(440,561,cs),
(326,561,o),
(232,488,o),
(232,349,cs),
(232,210,o),
(331,148,o),
(440,148,cs),
(472,148,o),
(505,154,o),
(537,165,c)
);
},
{
closed = 1;
nodes = (
(478,176,l),
(537,165,l),
(536,274,l),
(536,274,o),
(515,274,o),
(515,274,c)
);
}
);
width = 826;
}
);
unicode = 169;
},
{
glyphname = registered;
lastChange = "2024-12-28 19:31:45 +0000";
layers = (
{
guides = (
{
pos = (0,358);
}
);
hints = (
{
horizontal = 1;
place = (0,20);
type = Stem;
},
{
horizontal = 1;
place = (334,57);
type = Stem;
},
{
horizontal = 1;
place = (680,20);
type = Stem;
},
{
place = (113,90);
type = Stem;
},
{
place = (517,90);
type = Stem;
}
);
layerId = "41C87B6E-BB58-4237-A2FA-B195285FD109";
shapes = (
{
closed = 1;
nodes = (
(771,558,o),
(623,718,o),
(418,718,cs),
(215,718,o),
(55,556,o),
(55,353,cs),
(55,151,o),
(212,-12,o),
(412,-12,cs),
(614,-12,o),
(771,160,o),
(771,357,cs)
);
},
{
closed = 1;
nodes = (
(711,183,o),
(587,41,o),
(414,41,cs),
(242,41,o),
(116,180,o),
(116,353,cs),
(116,527,o),
(244,665,o),
(418,665,cs),
(592,665,o),
(711,528,o),
(711,357,cs)
);
},
{
closed = 1;
nodes = (
(358,325,l),
(492,309,o),
(553,368,o),
(553,443,cs),
(553,506,o),
(504,551,o),
(409,551,cs),
(249,551,l),
(358,510,l),
(412,510,ls),
(464,510,o),
(490,494,o),
(490,437,cs),
(490,380,o),
(461,353,o),
(358,366,c),
(358,551,l),
(249,551,l),
(249,536,l),
(298,516,l),
(298,195,l),
(249,175,l),
(249,160,l),
(417,160,l),
(417,175,l),
(358,195,l)
);
},
{
closed = 1;
nodes = (
(514,160,l),
(607,160,l),
(607,175,l),
(561,192,l),
(477,343,l),
(418,332,l)
);
}
);
width = 826;
}
);
unicode = 174;
},
{
glyphname = degree;
lastChange = "2024-12-28 19:31:45 +0000";
layers = (
{
layerId = "41C87B6E-BB58-4237-A2FA-B195285FD109";
shapes = (
{
closed = 1;
nodes = (
(38,518,o),
(106,450,o),
(187,450,cs),
(268,450,o),
(336,518,o),
(336,599,cs),
(336,680,o),
(268,748,o),
(187,748,cs),
(106,748,o),
(38,680,o),
(38,599,cs)
);
},
{
closed = 1;
nodes = (
(133,506,o),
(94,545,o),
(94,599,cs),
(94,651,o),
(133,692,o),
(187,692,cs),
(239,692,o),
(280,651,o),
(280,599,cs),
(280,545,o),
(239,506,o),
(187,506,cs)
);
}
);
width = 374;
}
);
unicode = 176;
},
{
glyphname = bar;
lastChange = "2024-12-28 19:31:45 +0000";
layers = (
{
layerId = "41C87B6E-BB58-4237-A2FA-B195285FD109";
shapes = (
{
closed = 1;
nodes = (
(154,-246,l),
(154,765,l),
(90,765,l),
(90,-247,l)
);
}
);
width = 244;
}
);
unicode = 124;
},
{
glyphname = brokenbar;
lastChange = "2024-12-28 19:31:45 +0000";
layers = (
{
layerId = "41C87B6E-BB58-4237-A2FA-B195285FD109";
shapes = (
{
closed = 1;
nodes = (
(154,330,l),
(154,695,l),
(90,695,l),
(90,330,l)
);
},
{
closed = 1;
nodes = (
(90,198,l),
(90,-172,l),
(154,-171,l),
(154,198,l)
);
}
);
width = 244;
}
);
unicode = 166;
},
{
glyphname = cent;
lastChange = "2024-12-28 19:31:45 +0000";
layers = (
{
associatedMasterId = "41C87B6E-BB58-4237-A2FA-B195285FD109";
layerId = "58169014-C2AF-4848-951C-D1AF2D5F80B0";
name = img;
width = 516;
},
{
layerId = "41C87B6E-BB58-4237-A2FA-B195285FD109";
shapes = (
{
closed = 1;
nodes = (
(270,-25,l),
(315,-25,l),
(315,635,l),
(270,635,l)
);
},
{
closed = 1;
nodes = (
(348,48,o),
(399,58,o),
(461,107,c),
(446,138,l),
(402,113,o),
(376,104,o),
(337,104,cs),
(227,104,o),
(156,175,o),
(156,310,cs),
(156,445,o),
(201,528,o),
(306,528,cs),
(323,528,o),
(343,526,o),
(364,521,c),
(418,390,l),
(438,390,l),
(438,541,l),
(391,563,o),
(343,573,o),
(297,573,cs),
(165,573,o),
(55,483,o),
(55,310,cs),
(55,151,o),
(164,48,o),
(286,48,cs)
);
}
);
width = 516;
}
);
unicode = 162;
},
{
glyphname = currency;
lastChange = "2024-12-28 19:31:45 +0000";
layers = (
{
guides = (
{
pos = (0,909);
},
{
angle = 90;
pos = (569,0);
}
);
layerId = "41C87B6E-BB58-4237-A2FA-B195285FD109";
shapes = (
{
closed = 1;
nodes = (
(176,620,o),
(106,547,o),
(106,445,cs),
(106,342,o),
(176,269,o),
(279,269,cs),
(381,269,o),
(450,342,o),
(450,445,cs),
(450,547,o),
(381,620,o),
(277,620,cs)
);
},
{
closed = 1;
nodes = (
(400,530,l),
(500,628,l),
(463,665,l),
(365,567,l)
);
},
{
closed = 1;
nodes = (
(345,558,o),
(389,511,o),
(389,445,cs),
(389,378,o),
(345,330,o),
(279,330,cs),
(212,330,o),
(168,378,o),
(168,445,cs),
(168,511,o),
(212,558,o),
(277,558,cs)
);
},
{
closed = 1;
nodes = (
(90,222,l),
(190,320,l),
(153,357,l),
(55,259,l)
);
},
{
closed = 1;
nodes = (
(190,567,l),
(92,665,l),
(55,628,l),
(155,530,l)
);
},
{
closed = 1;
nodes = (
(500,259,l),
(402,357,l),
(365,320,l),
(465,222,l)
);
}
);
width = 555;
}
);
unicode = 164;
},
{
glyphname = dollar;
lastChange = "2024-12-28 19:31:45 +0000";
layers = (
{
hints = (
{
horizontal = 1;
place = (0,20);
type = Stem;
},
{
horizontal = 1;
place = (334,57);
type = Stem;
},
{
horizontal = 1;
place = (680,20);
type = Stem;
},
{
place = (653,90);
type = Stem;
},
{
place = (1057,90);
type = Stem;
}
);
layerId = "41C87B6E-BB58-4237-A2FA-B195285FD109";
shapes = (
{
closed = 1;
nodes = (
(68,29,l),
(134,10,o),
(187,-1,o),
(263,-1,cs),
(383,-1,o),
(499,50,o),
(499,195,cs),
(499,294,o),
(453,338,o),
(310,407,cs),
(181,469,o),
(160,513,o),
(160,565,cs),
(160,634,o),
(217,668,o),
(303,668,cs),
(333,668,o),
(363,664,o),
(396,657,c),
(464,700,l),
(415,713,o),
(357,723,o),
(297,723,cs),
(175,723,o),
(65,667,o),
(65,541,cs),
(65,449,o),
(122,389,o),
(256,329,cs),
(377,275,o),
(403,235,o),
(403,169,cs),
(403,81,o),
(330,54,o),
(263,54,cs),
(219,54,o),
(169,65,o),
(138,73,c)
);
},
{
closed = 1;
nodes = (
(392,658,l),
(443,537,l),
(443,537,o),
(462,537,o),
(462,537,c),
(462,537,o),
(462,700,o),
(462,700,c)
);
},
{
closed = 1;
nodes = (
(138,73,l),
(92,200,l),
(92,200,o),
(68,200,o),
(68,200,c),
(68,200,o),
(68,29,o),
(68,29,c)
);
},
{
closed = 1;
nodes = (
(260,-63,l),
(305,-63,l),
(305,784,l),
(260,784,l)
);
}
);
width = 564;
}
);
unicode = 36;
},
{
glyphname = euro;
lastChange = "2024-12-28 19:31:45 +0000";
layers = (
{
hints = (
{
horizontal = 1;
place = (0,20);
type = Stem;
},
{
horizontal = 1;
place = (335,57);
type = Stem;
},
{
horizontal = 1;
place = (680,20);
type = Stem;
},
{
place = (140,90);
type = Stem;
},
{
place = (544,90);
type = Stem;
}
);
layerId = "41C87B6E-BB58-4237-A2FA-B195285FD109";
shapes = (
{
closed = 1;
nodes = (
(-8,444,l),
(-8,384,l),
(413,384,l),
(423,444,l)
);
},
{
closed = 1;
nodes = (
(-8,331,l),
(-8,271,l),
(383,271,l),
(393,331,l)
);
},
{
closed = 1;
nodes = (
(499,660,l),
(499,527,l),
(499,527,o),
(529,527,o),
(529,527,c),
(529,527,o),
(583,709,o),
(583,709,c)
);
},
{
closed = 1;
nodes = (
(463,-12,o),
(543,21,o),
(596,71,c),
(584,97,l),
(522,65,o),
(462,49,o),
(407,49,cs),
(269,49,o),
(177,148,o),
(177,358,cs),
(177,540,o),
(255,680,o),
(388,680,cs),
(451,680,o),
(482,668,o),
(503,658,c),
(583,709,l),
(529,723,o),
(462,734,o),
(395,734,cs),
(212,734,o),
(60,580,o),
(60,358,cs),
(60,136,o),
(189,-12,o),
(382,-12,cs)
);
}
);
width = 626;
}
);
unicode = 8364;
},
{
glyphname = sterling;
lastChange = "2024-12-28 19:31:45 +0000";
layers = (
{
hints = (
{
horizontal = 1;
place = (0,20);
type = Stem;
},
{
horizontal = 1;
place = (334,57);
type = Stem;
},
{
horizontal = 1;
place = (680,20);
type = Stem;
},
{
place = (115,90);
type = Stem;
},
{
place = (519,90);
type = Stem;
}
);
layerId = "41C87B6E-BB58-4237-A2FA-B195285FD109";
shapes = (
{
closed = 1;
nodes = (
(402,663,l),
(469,549,l),
(469,549,o),
(489,549,o),
(489,549,c),
(489,549,o),
(489,703,o),
(489,703,c)
);
},
{
closed = 1;
nodes = (
(549,113,l),
(518,76,o),
(503,61,o),
(477,61,cs),
(427,61,o),
(332,137,o),
(260,137,cs),
(245,137,o),
(229,134,o),
(214,128,c),
(214,130,l),
(228,163,o),
(233,200,o),
(233,238,cs),
(233,349,o),
(201,471,o),
(201,569,cs),
(201,648,o),
(272,669,o),
(338,669,cs),
(363,669,o),
(387,666,o),
(407,662,c),
(489,703,l),
(435,718,o),
(392,723,o),
(325,723,cs),
(207,723,o),
(110,670,o),
(110,539,cs),
(110,425,o),
(147,320,o),
(147,206,cs),
(147,144,o),
(125,72,o),
(40,30,c),
(40,30,o),
(60,-4,o),
(60,-4,c),
(83,3,o),
(158,61,o),
(208,61,cs),
(282,61,o),
(370,-15,o),
(438,-15,cs),
(490,-15,o),
(538,3,o),
(580,106,c)
);
},
{
closed = 1;
nodes = (
(399,326,l),
(409,391,l),
(390,398,l),
(73,384,l),
(73,384,o),
(73,334,o),
(73,334,c)
);
}
);
width = 555;
}
);
unicode = 163;
},
{
glyphname = yen;
lastChange = "2024-12-28 19:31:45 +0000";
layers = (
{
associatedMasterId = "41C87B6E-BB58-4237-A2FA-B195285FD109";
layerId = "58169014-C2AF-4848-951C-D1AF2D5F80B0";
name = img;
width = 599;
},
{
guides = (
{
angle = 90;
pos = (641,0);
}
);
hints = (
{
horizontal = 1;
place = (0,20);
type = Stem;
},
{
horizontal = 1;
place = (334,57);
type = Stem;
},
{
horizontal = 1;
place = (680,20);
type = Stem;
},
{
place = (-55,90);
type = Stem;
},
{
place = (349,90);
type = Stem;
},
{
place = (-40,90);
type = Stem;
},
{
place = (364,90);
type = Stem;
}
);
layerId = "41C87B6E-BB58-4237-A2FA-B195285FD109";
shapes = (
{
closed = 1;
nodes = (
(128,241,l),
(128,181,l),
(499,181,l),
(499,241,l)
);
},
{
closed = 1;
nodes = (
(356,311,l),
(266,311,l),
(266,55,l),
(181,20,l),
(181,0,l),
(446,0,l),
(446,20,l),
(356,55,l)
);
},
{
closed = 1;
nodes = (
(219,720,l),
(-25,720,l),
(-25,700,l),
(55,665,l),
(296,220,l),
(325,220,l),
(569,665,l),
(644,700,l),
(644,720,l),
(433,720,l),
(433,700,l),
(499,674,l),
(325,340,l),
(155,675,l),
(219,700,l)
);
},
{
closed = 1;
nodes = (
(128,341,l),
(128,281,l),
(499,281,l),
(499,341,l)
);
}
);
width = 599;
}
);
unicode = 165;
},
{
glyphname = plus;
lastChange = "2024-12-28 19:31:45 +0000";
layers = (
{
guides = (
{
pos = (0,682);
},
{
pos = (0,551);
},
{
angle = 90;
pos = (567,0);
},
{
angle = 90;
pos = (707,0);
}
);
layerId = "41C87B6E-BB58-4237-A2FA-B195285FD109";
shapes = (
{
closed = 1;
nodes = (
(345,361,l),
(345,589,l),
(277,589,l),
(277,361,l),
(50,361,l),
(50,297,l),
(277,297,l),
(277,69,l),
(345,69,l),
(345,297,l),
(570,297,l),
(570,361,l)
);
}
);
width = 620;
}
);
unicode = 43;
},
{
glyphname = minus;
lastChange = "2024-12-28 19:31:45 +0000";
layers = (
{
layerId = "41C87B6E-BB58-4237-A2FA-B195285FD109";
shapes = (
{
closed = 1;
nodes = (
(50,361,l),
(50,297,l),
(570,297,l),
(570,361,l)
);
}
);
width = 620;
}
);
unicode = 8722;
},
{
glyphname = multiply;
lastChange = "2024-12-28 19:31:45 +0000";
layers = (
{
layerId = "41C87B6E-BB58-4237-A2FA-B195285FD109";
shapes = (
{
closed = 1;
nodes = (
(312,376,l),
(151,538,l),
(103,490,l),
(264,328,l),
(104,168,l),
(149,123,l),
(309,283,l),
(471,122,l),
(519,170,l),
(357,331,l),
(516,490,l),
(471,535,l)
);
}
);
width = 620;
}
);
unicode = 215;
},
{
glyphname = divide;
lastChange = "2024-12-28 19:31:45 +0000";
layers = (
{
guides = (
{
angle = 90;
pos = (635,0);
}
);
layerId = "41C87B6E-BB58-4237-A2FA-B195285FD109";
shapes = (
{
closed = 1;
nodes = (
(50,361,l),
(50,297,l),
(570,297,l),
(570,361,l)
);
},
{
closed = 1;
nodes = (
(249,92,o),
(276,65,o),
(311,65,cs),
(345,65,o),
(372,92,o),
(372,127,cs),
(372,161,o),
(345,188,o),
(311,188,cs),
(276,188,o),
(249,161,o),
(249,127,cs)
);
},
{
closed = 1;
nodes = (
(249,474,o),
(276,447,o),
(311,447,cs),
(345,447,o),
(372,474,o),
(372,509,cs),
(372,543,o),
(345,570,o),
(311,570,cs),
(276,570,o),
(249,543,o),
(249,509,cs)
);
}
);
width = 621;
}
);
unicode = 247;
},
{
glyphname = equal;
lastChange = "2024-12-28 19:31:45 +0000";
layers = (
{
layerId = "41C87B6E-BB58-4237-A2FA-B195285FD109";
shapes = (
{
closed = 1;
nodes = (
(50,434,l),
(50,374,l),
(571,374,l),
(571,434,l)
);
},
{
closed = 1;
nodes = (
(50,261,l),
(50,201,l),
(571,201,l),
(571,261,l)
);
}
);
width = 621;
}
);
unicode = 61;
},
{
glyphname = greater;
lastChange = "2024-12-28 19:31:45 +0000";
layers = (
{
layerId = "41C87B6E-BB58-4237-A2FA-B195285FD109";
shapes = (
{
closed = 1;
nodes = (
(555,354,l),
(75,594,l),
(75,513,l),
(465,328,l),
(75,139,l),
(75,59,l),
(555,302,l)
);
}
);
width = 600;
}
);
unicode = 62;
},
{
glyphname = less;
lastChange = "2024-12-28 19:31:45 +0000";
layers = (
{
layerId = "41C87B6E-BB58-4237-A2FA-B195285FD109";
shapes = (
{
closed = 1;
nodes = (
(45,302,l),
(525,59,l),
(525,139,l),
(135,328,l),
(525,513,l),
(525,594,l),
(45,354,l)
);
}
);
width = 600;
}
);
unicode = 60;
},
{
glyphname = plusminus;
lastChange = "2024-12-28 19:31:45 +0000";
layers = (
{
layerId = "41C87B6E-BB58-4237-A2FA-B195285FD109";
shapes = (
{
closed = 1;
nodes = (
(345,411,l),
(345,599,l),
(277,599,l),
(277,411,l),
(50,411,l),
(50,347,l),
(277,347,l),
(277,179,l),
(345,179,l),
(345,347,l),
(570,347,l),
(570,411,l)
);
},
{
closed = 1;
nodes = (
(50,94,l),
(50,30,l),
(570,30,l),
(570,94,l)
);
}
);
width = 620;
}
);
unicode = 177;
},
{
glyphname = asciitilde;
lastChange = "2024-12-28 19:31:45 +0000";
layers = (
{
layerId = "41C87B6E-BB58-4237-A2FA-B195285FD109";
shapes = (
{
closed = 1;
nodes = (
(444,289,o),
(388,393,o),
(290,393,cs),
(192,393,o),
(75,261,o),
(75,261,c),
(91,242,l),
(158,283,o),
(212,312,o),
(264,312,cs),
(340,312,o),
(420,208,o),
(516,208,cs),
(629,208,o),
(737,347,o),
(737,347,c),
(720,365,l),
(664,322,o),
(586,289,o),
(544,289,cs)
);
}
);
width = 812;
}
);
unicode = 126;
},
{
glyphname = logicalnot;
lastChange = "2024-12-28 19:31:45 +0000";
layers = (
{
layerId = "41C87B6E-BB58-4237-A2FA-B195285FD109";
shapes = (
{
closed = 1;
nodes = (
(570,153,l),
(570,339,l),
(50,339,l),
(50,272,l),
(514,272,l),
(514,153,l)
);
}
);
width = 645;
}
);
unicode = 172;
},
{
glyphname = asciicircum;
lastChange = "2024-12-28 19:31:45 +0000";
layers = (
{
layerId = "41C87B6E-BB58-4237-A2FA-B195285FD109";
shapes = (
{
closed = 1;
nodes = (
(255,724,l),
(74,530,l),
(104,500,l),
(281,659,l),
(459,500,l),
(489,530,l),
(308,724,l)
);
}
);
width = 541;
}
);
unicode = 94;
},
{
glyphname = micro;
lastChange = "2024-12-28 19:31:45 +0000";
layers = (
{
guides = (
{
pos = (0,-471);
}
);
hints = (
{
horizontal = 1;
place = (500,-20);
target = down;
type = TopGhost;
},
{
horizontal = 1;
place = (78,37);
type = Stem;
},
{
horizontal = 1;
place = (-12,64);
type = Stem;
},
{
horizontal = 1;
place = (-2,20);
type = Stem;
},
{
place = (1244,90);
type = Stem;
},
{
place = (1154,90);
type = Stem;
},
{
place = (1069,85);
type = Stem;
},
{
place = (920,85);
type = Stem;
},
{
place = (830,90);
type = Stem;
},
{
place = (740,90);
type = Stem;
}
);
layerId = "41C87B6E-BB58-4237-A2FA-B195285FD109";
shapes = (
{
closed = 1;
nodes = (
(102,147,l),
(121,-230,l),
(136,-250,l),
(230,-230,l),
(240,-210,l),
(198,-139,o),
(168,-63,o),
(155,34,c),
(155,97,l)
);
},
{
closed = 1;
nodes = (
(516,500,l),
(426,500,l),
(426,78,l),
(516,78,l)
);
},
{
closed = 1;
nodes = (
(12,480,l),
(102,445,l),
(102,500,l),
(12,500,l)
);
},
{
closed = 1;
nodes = (
(606,43,l),
(516,78,l),
(426,78,l),
(426,-2,l),
(436,-12,l),
(606,23,l)
);
},
{
closed = 1;
nodes = (
(102,147,ls),
(102,34,o),
(173,-12,o),
(254,-12,cs),
(337,-12,o),
(431,37,o),
(470,115,c),
(453,124,l),
(416,73,o),
(356,52,o),
(303,52,cs),
(223,52,o),
(192,82,o),
(192,177,cs),
(192,500,l),
(102,500,l)
);
}
);
width = 631;
}
);
unicode = 181;
},
{
glyphname = percent;
lastChange = "2024-12-28 19:31:45 +0000";
layers = (
{
associatedMasterId = "41C87B6E-BB58-4237-A2FA-B195285FD109";
layerId = "58169014-C2AF-4848-951C-D1AF2D5F80B0";
name = img;
shapes = (
{
closed = 1;
nodes = (
(645,720,l),
(580,720,l),
(239,-23,l),
(304,-23,l)
);
}
);
width = 862;
},
{
layerId = "41C87B6E-BB58-4237-A2FA-B195285FD109";
shapes = (
{
closed = 1;
nodes = (
(334,494,o),
(291,444,o),
(235,444,cs),
(180,444,o),
(140,493,o),
(140,549,cs),
(140,610,o),
(182,659,o),
(237,659,cs),
(293,659,o),
(334,610,o),
(334,552,cs)
);
},
{
closed = 1;
nodes = (
(403,645,o),
(333,707,o),
(238,707,cs),
(145,707,o),
(75,640,o),
(75,545,cs),
(75,454,o),
(143,391,o),
(237,391,cs),
(328,391,o),
(403,461,o),
(403,552,cs)
);
},
{
closed = 1;
nodes = (
(738,94,o),
(695,44,o),
(639,44,cs),
(584,44,o),
(544,93,o),
(544,149,cs),
(544,210,o),
(586,259,o),
(641,259,cs),
(697,259,o),
(738,210,o),
(738,152,cs)
);
},
{
closed = 1;
nodes = (
(807,245,o),
(737,307,o),
(642,307,cs),
(549,307,o),
(479,240,o),
(479,145,cs),
(479,54,o),
(547,-9,o),
(641,-9,cs),
(732,-9,o),
(807,61,o),
(807,152,cs)
);
},
{
closed = 1;
nodes = (
(645,720,l),
(580,720,l),
(239,-23,l),
(304,-23,l)
);
}
);
width = 862;
}
);
unicode = 37;
},
{
glyphname = dieresis;
lastChange = "2024-12-28 19:31:45 +0000";
layers = (
{
layerId = "41C87B6E-BB58-4237-A2FA-B195285FD109";
shapes = (
{
closed = 1;
nodes = (
(53,623,o),
(78,598,o),
(110,598,cs),
(142,598,o),
(165,623,o),
(165,655,cs),
(165,685,o),
(142,710,o),
(110,710,cs),
(78,710,o),
(53,685,o),
(53,655,cs)
);
},
{
closed = 1;
nodes = (
(220,623,o),
(244,598,o),
(276,598,cs),
(308,598,o),
(332,623,o),
(332,655,cs),
(332,685,o),
(308,710,o),
(276,710,cs),
(244,710,o),
(220,685,o),
(220,655,cs)
);
}
);
width = 400;
}
);
unicode = 168;
},
{
glyphname = grave;
lastChange = "2024-12-28 19:31:45 +0000";
layers = (
{
layerId = "41C87B6E-BB58-4237-A2FA-B195285FD109";
shapes = (
{
closed = 1;
nodes = (
(112,589,l),
(85,570,l),
(-62,718,l),
(-56,738,l),
(16,760,l)
);
}
);
width = 221;
}
);
unicode = 96;
},
{
glyphname = acute;
lastChange = "2024-12-28 19:31:45 +0000";
layers = (
{
layerId = "41C87B6E-BB58-4237-A2FA-B195285FD109";
shapes = (
{
closed = 1;
nodes = (
(155,760,l),
(227,740,l),
(233,718,l),
(86,570,l),
(59,589,l)
);
}
);
width = 234;
}
);
unicode = 180;
},
{
glyphname = circumflex;
lastChange = "2024-12-28 19:31:45 +0000";
layers = (
{
layerId = "41C87B6E-BB58-4237-A2FA-B195285FD109";
shapes = (
{
closed = 1;
nodes = (
(190,759,l),
(144,759,l),
(25,591,l),
(31,579,l),
(68,569,l),
(165,679,l),
(169,679,l),
(265,569,l),
(305,579,l),
(311,590,l)
);
}
);
width = 336;
}
);
unicode = 710;
},
{
glyphname = caron;
lastChange = "2024-12-28 19:31:45 +0000";
layers = (
{
layerId = "41C87B6E-BB58-4237-A2FA-B195285FD109";
shapes = (
{
closed = 1;
nodes = (
(156,599,l),
(202,599,l),
(321,767,l),
(315,779,l),
(278,789,l),
(179,679,l),
(81,789,l),
(41,779,l),
(35,768,l)
);
}
);
width = 352;
}
);
unicode = 711;
},
{
glyphname = ring;
lastChange = "2024-12-28 19:31:45 +0000";
layers = (
{
layerId = "41C87B6E-BB58-4237-A2FA-B195285FD109";
shapes = (
{
closed = 1;
nodes = (
(28,622,o),
(75,575,o),
(131,575,cs),
(187,575,o),
(234,622,o),
(234,679,cs),
(234,735,o),
(187,782,o),
(131,782,cs),
(75,782,o),
(28,735,o),
(28,679,cs)
);
},
{
closed = 1;
nodes = (
(100,624,o),
(76,648,o),
(76,678,cs),
(76,708,o),
(100,732,o),
(130,732,cs),
(161,732,o),
(185,708,o),
(185,678,cs),
(185,648,o),
(161,624,o),
(130,624,cs)
);
}
);
width = 258;
}
);
unicode = 730;
},
{
glyphname = tilde;
lastChange = "2024-12-28 19:31:45 +0000";
layers = (
{
layerId = "41C87B6E-BB58-4237-A2FA-B195285FD109";
shapes = (
{
closed = 1;
nodes = (
(228,653,o),
(189,703,o),
(137,693,c),
(85,684,o),
(35,599,o),
(35,599,c),
(56,578,l),
(86,607,o),
(104,620,o),
(131,625,cs),
(172,632,o),
(224,584,o),
(275,594,cs),
(335,605,o),
(379,690,o),
(379,690,c),
(358,708,l),
(333,680,o),
(305,667,o),
(282,663,c)
);
}
);
width = 416;
}
);
unicode = 732;
},
{
glyphname = macron;
lastChange = "2024-12-28 19:31:45 +0000";
layers = (
{
layerId = "41C87B6E-BB58-4237-A2FA-B195285FD109";
shapes = (
{
closed = 1;
nodes = (
(-3,699,l),
(-3,639,l),
(512,639,l),
(512,699,l)
);
}
);
width = 509;
}
);
unicode = 175;
},
{
glyphname = cedilla;
lastChange = "2024-12-28 19:31:45 +0000";
layers = (
{
layerId = "41C87B6E-BB58-4237-A2FA-B195285FD109";
shapes = (
{
closed = 1;
nodes = (
(142,0,l),
(127,-62,l),
(170,-69,o),
(198,-89,o),
(198,-133,cs),
(198,-186,o),
(155,-198,o),
(114,-198,cs),
(98,-198,o),
(83,-196,o),
(70,-194,c),
(70,-231,l),
(93,-237,o),
(118,-240,o),
(143,-240,cs),
(212,-240,o),
(277,-213,o),
(277,-132,cs),
(277,-83,o),
(238,-43,o),
(167,-40,c),
(177,0,l)
);
}
);
width = 343;
}
);
unicode = 184;
},
{
glyphname = dieresis.case;
lastChange = "2024-12-28 19:31:45 +0000";
layers = (
{
layerId = "41C87B6E-BB58-4237-A2FA-B195285FD109";
shapes = (
{
closed = 1;
nodes = (
(48,822,o),
(72,797,o),
(105,797,cs),
(136,797,o),
(162,822,o),
(162,855,cs),
(162,887,o),
(136,912,o),
(105,912,cs),
(72,912,o),
(48,887,o),
(48,855,cs)
);
},
{
closed = 1;
nodes = (
(230,822,o),
(256,797,o),
(288,797,cs),
(321,797,o),
(345,822,o),
(345,855,cs),
(345,887,o),
(321,912,o),
(288,912,cs),
(256,912,o),
(230,887,o),
(230,855,cs)
);
}
);
width = 376;
}
);
},
{
glyphname = grave.case;
lastChange = "2024-12-28 19:31:45 +0000";
layers = (
{
layerId = "41C87B6E-BB58-4237-A2FA-B195285FD109";
shapes = (
{
closed = 1;
nodes = (
(202,803,l),
(185,774,l),
(-11,847,l),
(-14,867,l),
(43,917,l)
);
}
);
width = 252;
}
);
},
{
glyphname = acute.case;
lastChange = "2024-12-28 19:31:45 +0000";
layers = (
{
layerId = "41C87B6E-BB58-4237-A2FA-B195285FD109";
shapes = (
{
closed = 1;
nodes = (
(175,917,l),
(232,867,l),
(229,847,l),
(33,774,l),
(16,803,l)
);
}
);
width = 252;
}
);
},
{
glyphname = circumflex.case;
lastChange = "2024-12-28 19:31:45 +0000";
layers = (
{
layerId = "41C87B6E-BB58-4237-A2FA-B195285FD109";
shapes = (
{
closed = 1;
nodes = (
(16,802,l),
(16,788,l),
(49,768,l),
(176,868,l),
(180,868,l),
(307,768,l),
(340,788,l),
(340,802,l),
(206,929,l),
(150,929,l)
);
}
);
width = 355;
}
);
},
{
glyphname = caron.case;
lastChange = "2024-12-28 19:31:45 +0000";
layers = (
{
layerId = "41C87B6E-BB58-4237-A2FA-B195285FD109";
shapes = (
{
closed = 1;
nodes = (
(159,754,l),
(215,754,l),
(349,881,l),
(349,895,l),
(316,915,l),
(189,815,l),
(185,815,l),
(58,915,l),
(25,895,l),
(25,881,l)
);
}
);
width = 374;
}
);
},
{
glyphname = tilde.case;
lastChange = "2024-12-28 19:31:45 +0000";
layers = (
{
layerId = "41C87B6E-BB58-4237-A2FA-B195285FD109";
shapes = (
{
closed = 1;
nodes = (
(229,843,o),
(194,896,o),
(141,891,c),
(88,885,o),
(32,806,o),
(32,806,c),
(50,783,l),
(84,809,o),
(102,821,o),
(130,823,c),
(171,828,o),
(219,775,o),
(271,781,cs),
(332,787,o),
(382,867,o),
(382,867,c),
(363,887,l),
(335,861,o),
(306,851,o),
(283,849,c)
);
}
);
width = 383;
}
);
},
{
glyphname = foundryicon;
lastChange = "2024-12-28 19:31:45 +0000";
layers = (
{
guides = (
{
pos = (0,578);
}
);
layerId = "41C87B6E-BB58-4237-A2FA-B195285FD109";
shapes = (
{
closed = 1;
nodes = (
(650,78,o),
(594,-275,o),
(395,-275,cs),
(325,-275,o),
(307,-236,o),
(307,-164,cs),
(307,-132,o),
(314,-102,o),
(322,-75,c),
(354,-75,o),
(394,-85,o),
(421,-112,c),
(416,-150,o),
(409,-202,o),
(419,-239,c),
(502,-185,o),
(504,-96,o),
(520,36,c),
(515,28,o),
(503,18,o),
(490,18,cs),
(442,18,o),
(409,47,o),
(388,90,c),
(374,50,o),
(341,2,o),
(274,2,cs),
(122,2,o),
(62,148,o),
(59,290,c),
(58,453,o),
(97,618,o),
(207,714,c),
(267,701,o),
(358,679,o),
(358,554,cs),
(358,506,o),
(332,466,o),
(295,434,c),
(283,421,o),
(283,431,o),
(285,437,c),
(294,490,o),
(273,574,o),
(256,595,c),
(190,534,o),
(143,129,o),
(270,38,c),
(322,55,o),
(354,113,o),
(369,146,c),
(355,192,o),
(351,246,o),
(351,299,cs),
(351,349,o),
(358,383,o),
(370,406,c),
(390,402,o),
(439,393,o),
(465,369,c),
(459,261,o),
(459,158,o),
(488,66,c),
(503,70,o),
(507,86,o),
(509,93,c),
(536,217,o),
(507,369,o),
(495,444,c),
(530,448,o),
(586,425,o),
(612,397,c)
);
},
{
closed = 1;
nodes = (
(668,413,o),
(692,407,q),
(718,402,o),
(735,383,q),
(750,356,o),
(763,318,o),
(767,265,c),
(790,308,o),
(805,338,o),
(814,365,c),
(814,383,o),
(822,413,o),
(829,429,c),
(871,425,o),
(910,413,o),
(924,388,c),
(915,340,o),
(911,274,o),
(920,226,c),
(864,211,o),
(832,232,o),
(824,286,c),
(814,259,o),
(786,232,o),
(777,195,c),
(777,161,o),
(777,106,o),
(767,77,c),
(755,36,o),
(728,5,o),
(683,13,c),
(676,132,o),
(671,310,o),
(628,415,c)
);
},
{
closed = 1;
nodes = (
(1262,69,o),
(1290,97,o),
(1292,125,c),
(1274,198,o),
(1275,290,o),
(1278,327,c),
(1248,290,o),
(1219,139,o),
(1246,55,c)
);
},
{
closed = 1;
nodes = (
(1585,326,o),
(1600,486,o),
(1585,566,c),
(1565,485,o),
(1545,365,o),
(1540,261,c)
);
},
{
closed = 1;
nodes = (
(1045,282,o),
(1036,217,o),
(1036,154,c),
(1066,158,o),
(1080,216,o),
(1080,265,cs),
(1080,294,o),
(1070,323,o),
(1063,337,c)
);
},
{
closed = 1;
nodes = (
(1192,643,l),
(1162,582,o),
(1131,460,o),
(1037,445,c),
(1046,427,o),
(1055,409,o),
(1063,395,c),
(1063,394,o),
(1063,394,o),
(1064,393,c),
(1100,375,o),
(1122,338,o),
(1122,279,cs),
(1122,211,o),
(1093,135,o),
(1038,118,c),
(1045,90,o),
(1052,62,o),
(1071,50,c),
(1110,66,o),
(1132,113,o),
(1145,145,c),
(1145,198,l),
(1148,270,o),
(1164,337,o),
(1210,386,c),
(1233,386,o),
(1260,381,o),
(1281,373,c),
(1284,383,o),
(1295,438,o),
(1303,444,c),
(1325,450,o),
(1376,429,o),
(1391,413,c),
(1376,308,o),
(1367,146,o),
(1396,47,c),
(1415,42,o),
(1437,87,o),
(1446,103,c),
(1443,117,ls),
(1405,302,o),
(1428,551,o),
(1507,693,c),
(1624,674,o),
(1656,622,o),
(1656,501,cs),
(1656,386,o),
(1616,248,o),
(1542,214,c),
(1542,145,o),
(1555,89,o),
(1584,47,c),
(1624,77,o),
(1656,131,o),
(1677,216,c),
(1684,219,o),
(1687,218,o),
(1691,218,c),
(1696,140,o),
(1676,8,o),
(1568,8,cs),
(1519,8,o),
(1483,30,o),
(1460,69,c),
(1452,38,o),
(1428,8,o),
(1395,8,cs),
(1357,8,o),
(1327,42,o),
(1315,70,c),
(1308,42,o),
(1274,21,o),
(1248,18,c),
(1196,18,o),
(1168,44,o),
(1158,80,c),
(1141,53,o),
(1112,22,o),
(1068,18,c),
(964,18,o),
(928,109,o),
(934,206,c),
(936,279,o),
(951,365,o),
(976,406,c),
(988,407,o),
(1000,407,o),
(1011,406,c),
(1005,418,o),
(999,432,o),
(995,446,c),
(941,457,o),
(893,504,o),
(853,552,c),
(834,569,o),
(769,566,o),
(743,590,c),
(738,594,o),
(740,600,o),
(745,600,c),
(747,597,o),
(865,587,o),
(884,587,c),
(980,605,o),
(1075,620,o),
(1090,635,c),
(1098,664,o),
(1123,681,o),
(1148,681,cs),
(1158,681,o),
(1167,680,o),
(1175,675,c),
(1192,681,l),
(1196,681,o),
(1193,680,o),
(1193,680,c),
(1189,661,l),
(1206,661,l),
(1207,660,o),
(1206,660,o),
(1206,660,c)
);
},
{
closed = 1;
nodes = (
(1040,411,o),
(1031,427,o),
(1024,444,c),
(1009,444,l),
(1021,405,l),
(1031,403,o),
(1040,402,o),
(1049,399,c)
);
}
);
width = 1742;
}
);
},
